{"glyphs":{"0":{"ha":835,"x_min":56,"x_max":779,"o":"m 779 354 q 731 163 779 246 q 600 33 682 79 q 422 -12 518 -12 q 241 33 325 -12 q 106 163 157 79 q 56 354 56 246 q 108 540 56 461 q 245 661 161 619 q 422 703 329 703 q 597 661 515 703 q 729 540 679 619 q 779 354 779 461 m 182 374 q 216 231 182 303 q 313 113 250 160 q 458 67 376 67 q 601 140 554 67 q 649 324 649 213 q 616 463 649 390 q 523 583 583 535 q 382 632 463 632 q 235 559 288 632 q 182 374 182 486 z "},"1":{"ha":539,"x_min":104,"x_max":435,"o":"m 332 176 q 352 83 332 108 q 428 56 372 58 q 435 -4 435 32 q 269 0 354 0 q 104 -4 179 0 q 111 56 104 32 q 185 83 164 58 q 207 176 207 108 l 207 518 q 188 611 207 586 q 111 639 168 636 q 104 699 104 667 q 269 694 171 694 q 435 699 368 694 q 428 639 435 667 q 352 611 372 636 q 332 518 332 586 l 332 176 z "},"2":{"ha":746,"x_min":90,"x_max":656,"o":"m 640 200 q 656 29 640 100 q 611 -3 640 -3 q 343 0 433 0 q 108 -3 214 0 q 94 22 97 10 q 90 54 90 33 q 328 269 199 156 q 434 390 406 339 q 463 497 463 440 q 432 603 463 567 q 342 639 401 639 q 255 598 285 639 q 210 446 225 557 q 135 456 160 446 q 139 540 139 492 q 132 636 139 603 q 234 685 175 667 q 365 703 293 703 q 534 660 471 703 q 597 519 597 617 q 565 412 597 457 q 444 283 533 367 l 275 125 l 478 125 q 538 131 519 125 q 565 153 557 136 q 575 210 572 169 q 640 200 615 210 z "},"3":{"ha":713,"x_min":69,"x_max":643,"o":"m 272 -237 q 154 -220 207 -237 q 69 -175 101 -203 q 89 -129 69 -150 q 156 -156 110 -144 q 265 -168 201 -168 q 376 -142 321 -168 q 467 -67 432 -117 q 503 50 503 -18 q 451 186 503 133 q 301 239 399 239 q 257 229 275 239 q 239 254 246 240 q 232 278 232 268 q 464 583 390 479 l 294 583 q 229 576 251 583 q 192 549 207 569 q 164 486 178 529 q 107 504 129 486 q 119 592 117 550 q 122 697 122 633 q 365 694 214 694 q 592 697 492 694 q 608 642 611 681 q 372 344 508 522 q 504 317 442 349 q 605 222 567 285 q 643 69 643 158 q 598 -83 643 -12 q 468 -195 553 -153 q 272 -237 383 -237 z "},"4":{"ha":829,"x_min":63,"x_max":760,"o":"m 760 97 q 742 49 750 78 q 735 0 735 19 l 599 0 l 599 -211 q 532 -222 575 -211 q 483 -237 489 -232 q 468 -192 468 -222 l 468 0 l 458 0 q 88 -8 324 0 q 70 16 78 1 q 63 44 63 31 l 536 703 q 571 699 553 703 q 599 689 589 694 l 599 110 l 719 110 q 760 97 747 110 m 468 110 l 468 496 l 211 110 l 468 110 z "},"5":{"ha":668,"x_min":83,"x_max":585,"o":"m 186 697 q 426 694 283 694 q 499 761 499 694 q 561 768 519 768 q 553 594 553 708 q 490 569 539 569 q 222 565 278 569 l 189 425 q 484 308 383 383 q 585 93 585 232 q 533 -83 585 -8 q 401 -198 481 -158 q 243 -237 321 -237 q 149 -225 193 -237 q 83 -193 106 -212 q 101 -147 83 -169 q 160 -162 121 -156 q 238 -168 199 -168 q 341 -140 293 -168 q 417 -62 389 -112 q 446 56 446 -11 q 398 185 446 131 q 276 270 350 239 q 125 308 203 301 q 108 327 114 315 q 101 351 101 339 l 186 697 z "},"6":{"ha":703,"x_min":49,"x_max":647,"o":"m 388 549 q 578 482 508 549 q 647 294 647 415 q 608 135 647 204 q 501 26 568 65 q 354 -12 433 -12 q 127 76 206 -12 q 49 333 49 165 q 128 649 49 526 q 326 826 208 771 q 568 886 444 881 q 578 869 575 878 q 582 843 582 860 q 311 724 406 807 q 192 476 217 640 q 295 532 251 515 q 388 549 339 549 m 367 54 q 484 112 444 54 q 524 243 524 169 q 463 415 524 363 q 325 467 403 467 q 258 457 290 467 q 185 422 225 447 q 182 339 182 369 q 213 171 182 235 q 285 81 243 107 q 367 54 328 54 z "},"7":{"ha":674,"x_min":67,"x_max":614,"o":"m 207 -244 q 167 -183 167 -229 q 246 120 167 -61 q 482 568 325 301 l 265 568 q 201 561 224 568 q 163 533 178 554 q 138 469 149 513 q 67 486 94 469 q 93 699 89 581 q 340 694 165 694 q 593 699 513 694 q 614 646 613 675 q 422 319 524 514 q 336 90 358 193 q 314 -168 314 -14 q 251 -203 279 -183 q 207 -244 222 -224 z "},"8":{"ha":706,"x_min":69,"x_max":636,"o":"m 438 492 q 588 361 539 424 q 636 217 636 299 q 558 49 636 111 q 344 -12 479 -12 q 144 44 218 -12 q 69 196 69 100 q 117 346 69 285 q 265 467 165 407 q 145 572 183 522 q 107 683 107 622 q 172 831 107 776 q 346 885 236 885 q 531 835 463 885 q 599 700 599 785 q 556 581 599 628 q 438 492 513 533 m 238 707 q 267 618 238 656 q 368 536 296 581 l 386 525 q 453 591 433 556 q 474 682 474 626 q 441 784 474 746 q 353 822 408 822 q 269 791 300 822 q 238 707 238 760 m 363 50 q 466 88 428 50 q 504 189 504 125 q 459 312 504 257 q 315 433 414 367 q 220 334 246 382 q 194 207 194 286 q 240 92 194 135 q 363 50 286 50 z "},"9":{"ha":721,"x_min":56,"x_max":672,"o":"m 365 703 q 597 610 522 703 q 672 336 672 518 q 584 42 672 167 q 369 -151 496 -82 q 125 -236 242 -221 q 114 -214 117 -225 q 111 -186 111 -203 q 397 -24 293 -118 q 531 201 500 71 q 440 147 486 164 q 340 129 393 129 q 197 163 263 129 q 94 256 132 196 q 56 393 56 315 q 97 559 56 489 q 208 666 138 629 q 365 703 278 703 m 407 217 q 542 267 488 217 q 544 326 544 306 q 492 565 544 488 q 346 642 439 642 q 231 583 276 642 q 185 442 185 525 q 251 265 185 313 q 407 217 317 217 z "},"\r":{"ha":278,"x_min":0,"x_max":0,"o":""}," ":{"ha":278,"x_min":0,"x_max":0,"o":""},"A":{"ha":978,"x_min":35,"x_max":943,"o":"m 935 56 q 943 -4 943 28 q 785 0 860 0 q 628 -4 711 0 q 638 56 628 36 q 692 68 676 60 q 708 96 708 76 q 688 164 708 113 l 626 306 q 260 300 406 306 l 222 204 q 200 113 200 146 q 217 72 200 85 q 272 56 235 58 q 282 -4 282 32 q 150 0 235 0 q 35 -4 114 0 q 44 54 35 31 q 101 90 81 61 q 156 204 122 119 l 443 942 q 497 947 467 947 l 828 189 q 883 86 863 111 q 935 56 903 61 m 600 368 l 494 615 q 433 767 453 711 q 381 617 418 719 l 285 368 l 600 368 z "},"Á":{"ha":978,"x_min":35,"x_max":943,"o":"m 935 56 q 943 -4 943 28 q 785 0 860 0 q 628 -4 711 0 q 638 56 628 36 q 692 68 676 60 q 708 96 708 76 q 688 164 708 113 l 626 306 q 260 300 406 306 l 222 204 q 200 113 200 146 q 217 72 200 85 q 272 56 235 58 q 282 -4 282 32 q 150 0 235 0 q 35 -4 114 0 q 44 54 35 31 q 101 90 81 61 q 156 204 122 119 l 443 942 q 497 947 467 947 l 828 189 q 883 86 863 111 q 935 56 903 61 m 600 368 l 494 615 q 433 767 453 711 q 381 617 418 719 l 285 368 l 600 368 m 481 1017 q 450 1018 464 1017 q 425 1024 436 1019 q 503 1210 475 1125 q 569 1219 542 1219 q 635 1208 606 1219 q 481 1017 557 1115 z "},"Ă":{"ha":978,"x_min":35,"x_max":943,"o":"m 935 56 q 943 -4 943 28 q 785 0 860 0 q 628 -4 711 0 q 638 56 628 36 q 692 68 676 60 q 708 96 708 76 q 688 164 708 113 l 626 306 q 260 300 406 306 l 222 204 q 200 113 200 146 q 217 72 200 85 q 272 56 235 58 q 282 -4 282 32 q 150 0 235 0 q 35 -4 114 0 q 44 54 35 31 q 101 90 81 61 q 156 204 122 119 l 443 942 q 497 947 467 947 l 828 189 q 883 86 863 111 q 935 56 903 61 m 600 368 l 494 615 q 433 767 453 711 q 381 617 418 719 l 285 368 l 600 368 m 676 1201 q 622 1060 676 1110 q 468 1011 568 1011 q 317 1059 369 1011 q 264 1196 264 1107 q 326 1208 292 1211 q 376 1129 335 1158 q 481 1100 418 1100 q 582 1129 543 1100 q 624 1208 621 1158 q 676 1201 656 1211 z "},"Ắ":{"ha":978,"x_min":35,"x_max":943,"o":"m 935 56 q 943 -4 943 28 q 785 0 860 0 q 628 -4 711 0 q 638 56 628 36 q 692 68 676 60 q 708 96 708 76 q 688 164 708 113 l 626 306 q 260 300 406 306 l 222 204 q 200 113 200 146 q 217 72 200 85 q 272 56 235 58 q 282 -4 282 32 q 150 0 235 0 q 35 -4 114 0 q 44 54 35 31 q 101 90 81 61 q 156 204 122 119 l 443 942 q 497 947 467 947 l 828 189 q 883 86 863 111 q 935 56 903 61 m 600 368 l 494 615 q 433 767 453 711 q 381 617 418 719 l 285 368 l 600 368 z "},"Ặ":{"ha":978,"x_min":35,"x_max":943,"o":"m 935 56 q 943 -4 943 28 q 785 0 860 0 q 628 -4 711 0 q 638 56 628 36 q 692 68 676 60 q 708 96 708 76 q 688 164 708 113 l 626 306 q 260 300 406 306 l 222 204 q 200 113 200 146 q 217 72 200 85 q 272 56 235 58 q 282 -4 282 32 q 150 0 235 0 q 35 -4 114 0 q 44 54 35 31 q 101 90 81 61 q 156 204 122 119 l 443 942 q 497 947 467 947 l 828 189 q 883 86 863 111 q 935 56 903 61 m 600 368 l 494 615 q 433 767 453 711 q 381 617 418 719 l 285 368 l 600 368 m 454 -292 q 396 -268 419 -292 q 372 -211 372 -244 q 397 -151 372 -175 q 454 -126 421 -126 q 515 -150 492 -126 q 538 -211 538 -174 q 513 -267 538 -243 q 454 -292 489 -292 m 676 1201 q 622 1060 676 1110 q 468 1011 568 1011 q 317 1059 369 1011 q 264 1196 264 1107 q 326 1208 292 1211 q 376 1129 335 1158 q 481 1100 418 1100 q 582 1129 543 1100 q 624 1208 621 1158 q 676 1201 656 1211 z "},"Ằ":{"ha":978,"x_min":35,"x_max":943,"o":"m 935 56 q 943 -4 943 28 q 785 0 860 0 q 628 -4 711 0 q 638 56 628 36 q 692 68 676 60 q 708 96 708 76 q 688 164 708 113 l 626 306 q 260 300 406 306 l 222 204 q 200 113 200 146 q 217 72 200 85 q 272 56 235 58 q 282 -4 282 32 q 150 0 235 0 q 35 -4 114 0 q 44 54 35 31 q 101 90 81 61 q 156 204 122 119 l 443 942 q 497 947 467 947 l 828 189 q 883 86 863 111 q 935 56 903 61 m 600 368 l 494 615 q 433 767 453 711 q 381 617 418 719 l 285 368 l 600 368 z "},"Ẳ":{"ha":978,"x_min":35,"x_max":943,"o":"m 935 56 q 943 -4 943 28 q 785 0 860 0 q 628 -4 711 0 q 638 56 628 36 q 692 68 676 60 q 708 96 708 76 q 688 164 708 113 l 626 306 q 260 300 406 306 l 222 204 q 200 113 200 146 q 217 72 200 85 q 272 56 235 58 q 282 -4 282 32 q 150 0 235 0 q 35 -4 114 0 q 44 54 35 31 q 101 90 81 61 q 156 204 122 119 l 443 942 q 497 947 467 947 l 828 189 q 883 86 863 111 q 935 56 903 61 m 600 368 l 494 615 q 433 767 453 711 q 381 617 418 719 l 285 368 l 600 368 z "},"Ẵ":{"ha":978,"x_min":35,"x_max":943,"o":"m 935 56 q 943 -4 943 28 q 785 0 860 0 q 628 -4 711 0 q 638 56 628 36 q 692 68 676 60 q 708 96 708 76 q 688 164 708 113 l 626 306 q 260 300 406 306 l 222 204 q 200 113 200 146 q 217 72 200 85 q 272 56 235 58 q 282 -4 282 32 q 150 0 235 0 q 35 -4 114 0 q 44 54 35 31 q 101 90 81 61 q 156 204 122 119 l 443 942 q 497 947 467 947 l 828 189 q 883 86 863 111 q 935 56 903 61 m 600 368 l 494 615 q 433 767 453 711 q 381 617 418 719 l 285 368 l 600 368 m 676 1201 q 622 1060 676 1110 q 468 1011 568 1011 q 317 1059 369 1011 q 264 1196 264 1107 q 326 1208 292 1211 q 376 1129 335 1158 q 481 1100 418 1100 q 582 1129 543 1100 q 624 1208 621 1158 q 676 1201 656 1211 m 550 1254 q 506 1260 526 1254 q 454 1279 485 1267 q 403 1297 422 1292 q 363 1303 383 1303 q 264 1258 313 1303 q 246 1301 246 1272 q 400 1392 314 1392 q 501 1367 440 1392 q 546 1350 528 1356 q 582 1344 564 1344 q 660 1381 624 1344 q 696 1361 685 1376 q 550 1254 638 1254 z "},"Ǎ":{"ha":978,"x_min":35,"x_max":943,"o":"m 935 56 q 943 -4 943 28 q 785 0 860 0 q 628 -4 711 0 q 638 56 628 36 q 692 68 676 60 q 708 96 708 76 q 688 164 708 113 l 626 306 q 260 300 406 306 l 222 204 q 200 113 200 146 q 217 72 200 85 q 272 56 235 58 q 282 -4 282 32 q 150 0 235 0 q 35 -4 114 0 q 44 54 35 31 q 101 90 81 61 q 156 204 122 119 l 443 942 q 497 947 467 947 l 828 189 q 883 86 863 111 q 935 56 903 61 m 600 368 l 494 615 q 433 767 453 711 q 381 617 418 719 l 285 368 l 600 368 m 439 1015 q 258 1188 364 1101 q 306 1219 274 1211 l 339 1200 q 475 1124 421 1149 q 568 1171 506 1138 q 660 1224 631 1204 q 682 1176 678 1214 q 581 1103 633 1144 q 488 1021 528 1061 q 439 1015 467 1015 z "},"Â":{"ha":978,"x_min":35,"x_max":943,"o":"m 935 56 q 943 -4 943 28 q 785 0 860 0 q 628 -4 711 0 q 638 56 628 36 q 692 68 676 60 q 708 96 708 76 q 688 164 708 113 l 626 306 q 260 300 406 306 l 222 204 q 200 113 200 146 q 217 72 200 85 q 272 56 235 58 q 282 -4 282 32 q 150 0 235 0 q 35 -4 114 0 q 44 54 35 31 q 101 90 81 61 q 156 204 122 119 l 443 942 q 497 947 467 947 l 828 189 q 883 86 863 111 q 935 56 903 61 m 600 368 l 494 615 q 433 767 453 711 q 381 617 418 719 l 285 368 l 600 368 m 281 1011 q 258 1058 263 1021 q 360 1132 307 1090 q 453 1214 413 1174 q 501 1219 474 1219 q 682 1047 576 1133 q 635 1015 667 1024 l 601 1035 q 465 1111 519 1086 q 372 1064 435 1097 q 281 1011 310 1031 z "},"Ấ":{"ha":978,"x_min":35,"x_max":943,"o":"m 935 56 q 943 -4 943 28 q 785 0 860 0 q 628 -4 711 0 q 638 56 628 36 q 692 68 676 60 q 708 96 708 76 q 688 164 708 113 l 626 306 q 260 300 406 306 l 222 204 q 200 113 200 146 q 217 72 200 85 q 272 56 235 58 q 282 -4 282 32 q 150 0 235 0 q 35 -4 114 0 q 44 54 35 31 q 101 90 81 61 q 156 204 122 119 l 443 942 q 497 947 467 947 l 828 189 q 883 86 863 111 q 935 56 903 61 m 600 368 l 494 615 q 433 767 453 711 q 381 617 418 719 l 285 368 l 600 368 m 668 1181 q 639 1182 653 1181 q 615 1188 625 1183 q 689 1363 657 1269 q 751 1371 731 1371 q 813 1361 783 1371 q 668 1181 726 1257 m 281 1011 q 258 1058 263 1021 q 360 1132 307 1090 q 453 1214 413 1174 q 501 1219 474 1219 q 682 1047 576 1133 q 635 1015 667 1024 l 601 1035 q 465 1111 519 1086 q 372 1064 435 1097 q 281 1011 310 1031 z "},"Ậ":{"ha":978,"x_min":35,"x_max":943,"o":"m 935 56 q 943 -4 943 28 q 785 0 860 0 q 628 -4 711 0 q 638 56 628 36 q 692 68 676 60 q 708 96 708 76 q 688 164 708 113 l 626 306 q 260 300 406 306 l 222 204 q 200 113 200 146 q 217 72 200 85 q 272 56 235 58 q 282 -4 282 32 q 150 0 235 0 q 35 -4 114 0 q 44 54 35 31 q 101 90 81 61 q 156 204 122 119 l 443 942 q 497 947 467 947 l 828 189 q 883 86 863 111 q 935 56 903 61 m 600 368 l 494 615 q 433 767 453 711 q 381 617 418 719 l 285 368 l 600 368 m 454 -292 q 396 -268 419 -292 q 372 -211 372 -244 q 397 -151 372 -175 q 454 -126 421 -126 q 515 -150 492 -126 q 538 -211 538 -174 q 513 -267 538 -243 q 454 -292 489 -292 m 281 1011 q 258 1058 263 1021 q 360 1132 307 1090 q 453 1214 413 1174 q 501 1219 474 1219 q 682 1047 576 1133 q 635 1015 667 1024 l 601 1035 q 465 1111 519 1086 q 372 1064 435 1097 q 281 1011 310 1031 z "},"Ầ":{"ha":978,"x_min":35,"x_max":943,"o":"m 935 56 q 943 -4 943 28 q 785 0 860 0 q 628 -4 711 0 q 638 56 628 36 q 692 68 676 60 q 708 96 708 76 q 688 164 708 113 l 626 306 q 260 300 406 306 l 222 204 q 200 113 200 146 q 217 72 200 85 q 272 56 235 58 q 282 -4 282 32 q 150 0 235 0 q 35 -4 114 0 q 44 54 35 31 q 101 90 81 61 q 156 204 122 119 l 443 942 q 497 947 467 947 l 828 189 q 883 86 863 111 q 935 56 903 61 m 600 368 l 494 615 q 433 767 453 711 q 381 617 418 719 l 285 368 l 600 368 z "},"Ẩ":{"ha":978,"x_min":35,"x_max":943,"o":"m 935 56 q 943 -4 943 28 q 785 0 860 0 q 628 -4 711 0 q 638 56 628 36 q 692 68 676 60 q 708 96 708 76 q 688 164 708 113 l 626 306 q 260 300 406 306 l 222 204 q 200 113 200 146 q 217 72 200 85 q 272 56 235 58 q 282 -4 282 32 q 150 0 235 0 q 35 -4 114 0 q 44 54 35 31 q 101 90 81 61 q 156 204 122 119 l 443 942 q 497 947 467 947 l 828 189 q 883 86 863 111 q 935 56 903 61 m 600 368 l 494 615 q 433 767 453 711 q 381 617 418 719 l 285 368 l 600 368 z "},"Ẫ":{"ha":978,"x_min":35,"x_max":943,"o":"m 935 56 q 943 -4 943 28 q 785 0 860 0 q 628 -4 711 0 q 638 56 628 36 q 692 68 676 60 q 708 96 708 76 q 688 164 708 113 l 626 306 q 260 300 406 306 l 222 204 q 200 113 200 146 q 217 72 200 85 q 272 56 235 58 q 282 -4 282 32 q 150 0 235 0 q 35 -4 114 0 q 44 54 35 31 q 101 90 81 61 q 156 204 122 119 l 443 942 q 497 947 467 947 l 828 189 q 883 86 863 111 q 935 56 903 61 m 600 368 l 494 615 q 433 767 453 711 q 381 617 418 719 l 285 368 l 600 368 z "},"Ȁ":{"ha":978,"x_min":35,"x_max":943,"o":"m 935 56 q 943 -4 943 28 q 785 0 860 0 q 628 -4 711 0 q 638 56 628 36 q 692 68 676 60 q 708 96 708 76 q 688 164 708 113 l 626 306 q 260 300 406 306 l 222 204 q 200 113 200 146 q 217 72 200 85 q 272 56 235 58 q 282 -4 282 32 q 150 0 235 0 q 35 -4 114 0 q 44 54 35 31 q 101 90 81 61 q 156 204 122 119 l 443 942 q 497 947 467 947 l 828 189 q 883 86 863 111 q 935 56 903 61 m 600 368 l 494 615 q 433 767 453 711 q 381 617 418 719 l 285 368 l 600 368 m 353 1003 q 199 1181 272 1107 q 292 1199 235 1199 q 324 1197 313 1199 q 408 1010 371 1079 q 383 1004 397 1006 q 353 1003 369 1003 m 561 1003 q 407 1181 481 1107 q 500 1199 443 1199 q 532 1197 521 1199 q 617 1010 579 1079 q 592 1004 606 1006 q 561 1003 578 1003 z "},"Ä":{"ha":978,"x_min":35,"x_max":943,"o":"m 935 56 q 943 -4 943 28 q 785 0 860 0 q 628 -4 711 0 q 638 56 628 36 q 692 68 676 60 q 708 96 708 76 q 688 164 708 113 l 626 306 q 260 300 406 306 l 222 204 q 200 113 200 146 q 217 72 200 85 q 272 56 235 58 q 282 -4 282 32 q 150 0 235 0 q 35 -4 114 0 q 44 54 35 31 q 101 90 81 61 q 156 204 122 119 l 443 942 q 497 947 467 947 l 828 189 q 883 86 863 111 q 935 56 903 61 m 600 368 l 494 615 q 433 767 453 711 q 381 617 418 719 l 285 368 l 600 368 z "},"Ạ":{"ha":978,"x_min":35,"x_max":943,"o":"m 935 56 q 943 -4 943 28 q 785 0 860 0 q 628 -4 711 0 q 638 56 628 36 q 692 68 676 60 q 708 96 708 76 q 688 164 708 113 l 626 306 q 260 300 406 306 l 222 204 q 200 113 200 146 q 217 72 200 85 q 272 56 235 58 q 282 -4 282 32 q 150 0 235 0 q 35 -4 114 0 q 44 54 35 31 q 101 90 81 61 q 156 204 122 119 l 443 942 q 497 947 467 947 l 828 189 q 883 86 863 111 q 935 56 903 61 m 600 368 l 494 615 q 433 767 453 711 q 381 617 418 719 l 285 368 l 600 368 m 454 -292 q 396 -268 419 -292 q 372 -211 372 -244 q 397 -151 372 -175 q 454 -126 421 -126 q 515 -150 492 -126 q 538 -211 538 -174 q 513 -267 538 -243 q 454 -292 489 -292 z "},"À":{"ha":978,"x_min":35,"x_max":943,"o":"m 935 56 q 943 -4 943 28 q 785 0 860 0 q 628 -4 711 0 q 638 56 628 36 q 692 68 676 60 q 708 96 708 76 q 688 164 708 113 l 626 306 q 260 300 406 306 l 222 204 q 200 113 200 146 q 217 72 200 85 q 272 56 235 58 q 282 -4 282 32 q 150 0 235 0 q 35 -4 114 0 q 44 54 35 31 q 101 90 81 61 q 156 204 122 119 l 443 942 q 497 947 467 947 l 828 189 q 883 86 863 111 q 935 56 903 61 m 600 368 l 494 615 q 433 767 453 711 q 381 617 418 719 l 285 368 l 600 368 m 461 1017 q 307 1194 381 1121 q 400 1213 343 1213 q 432 1211 421 1213 q 517 1024 479 1093 q 492 1018 506 1019 q 461 1017 478 1017 z "},"Ả":{"ha":978,"x_min":35,"x_max":943,"o":"m 935 56 q 943 -4 943 28 q 785 0 860 0 q 628 -4 711 0 q 638 56 628 36 q 692 68 676 60 q 708 96 708 76 q 688 164 708 113 l 626 306 q 260 300 406 306 l 222 204 q 200 113 200 146 q 217 72 200 85 q 272 56 235 58 q 282 -4 282 32 q 150 0 235 0 q 35 -4 114 0 q 44 54 35 31 q 101 90 81 61 q 156 204 122 119 l 443 942 q 497 947 467 947 l 828 189 q 883 86 863 111 q 935 56 903 61 m 600 368 l 494 615 q 433 767 453 711 q 381 617 418 719 l 285 368 l 600 368 m 443 1008 q 425 1051 425 1031 q 437 1085 425 1072 q 474 1114 449 1099 q 503 1135 493 1125 q 513 1158 513 1146 q 471 1186 513 1186 q 424 1167 440 1186 q 403 1106 408 1149 q 338 1118 360 1106 q 342 1160 342 1143 q 338 1194 342 1176 q 396 1227 364 1215 q 476 1239 428 1239 q 569 1219 533 1239 q 604 1161 604 1199 q 588 1117 604 1135 q 540 1079 571 1100 q 507 1056 518 1065 q 496 1033 496 1046 q 499 1015 496 1026 q 443 1008 476 1008 z "},"Ȃ":{"ha":978,"x_min":35,"x_max":943,"o":"m 935 56 q 943 -4 943 28 q 785 0 860 0 q 628 -4 711 0 q 638 56 628 36 q 692 68 676 60 q 708 96 708 76 q 688 164 708 113 l 626 306 q 260 300 406 306 l 222 204 q 200 113 200 146 q 217 72 200 85 q 272 56 235 58 q 282 -4 282 32 q 150 0 235 0 q 35 -4 114 0 q 44 54 35 31 q 101 90 81 61 q 156 204 122 119 l 443 942 q 497 947 467 947 l 828 189 q 883 86 863 111 q 935 56 903 61 m 600 368 l 494 615 q 433 767 453 711 q 381 617 418 719 l 285 368 l 600 368 m 264 1018 q 318 1159 264 1110 q 472 1208 372 1208 q 624 1160 571 1208 q 676 1024 676 1113 q 614 1011 649 1008 q 564 1090 606 1061 q 460 1119 522 1119 q 358 1090 397 1119 q 317 1011 319 1061 q 264 1018 285 1008 z "},"Ā":{"ha":978,"x_min":35,"x_max":943,"o":"m 935 56 q 943 -4 943 28 q 785 0 860 0 q 628 -4 711 0 q 638 56 628 36 q 692 68 676 60 q 708 96 708 76 q 688 164 708 113 l 626 306 q 260 300 406 306 l 222 204 q 200 113 200 146 q 217 72 200 85 q 272 56 235 58 q 282 -4 282 32 q 150 0 235 0 q 35 -4 114 0 q 44 54 35 31 q 101 90 81 61 q 156 204 122 119 l 443 942 q 497 947 467 947 l 828 189 q 883 86 863 111 q 935 56 903 61 m 600 368 l 494 615 q 433 767 453 711 q 381 617 418 719 l 285 368 l 600 368 m 724 1118 q 711 1058 724 1090 q 218 1054 456 1058 q 222 1087 218 1067 q 231 1118 225 1107 l 724 1118 z "},"Ą":{"ha":978,"x_min":35,"x_max":943,"o":"m 779 -226 q 838 -215 810 -226 q 847 -269 849 -237 q 744 -343 793 -297 q 718 -346 736 -346 q 627 -315 671 -346 q 583 -211 583 -283 q 619 -101 583 -153 q 739 0 656 -50 l 628 -4 q 638 56 628 36 q 692 68 676 60 q 708 96 708 76 q 688 164 708 113 l 626 306 q 260 300 406 306 l 222 204 q 200 113 200 146 q 217 72 200 85 q 272 56 235 58 q 282 -4 282 32 q 150 0 235 0 q 35 -4 114 0 q 44 54 35 31 q 101 90 81 61 q 156 204 122 119 l 443 942 q 497 947 467 947 l 828 189 q 883 86 863 111 q 935 56 903 61 q 943 -4 943 28 l 835 0 q 728 -68 764 -28 q 692 -151 692 -108 q 715 -206 692 -186 q 779 -226 738 -226 m 600 368 l 494 615 q 433 767 453 711 q 381 617 418 719 l 285 368 l 600 368 z "},"Å":{"ha":978,"x_min":35,"x_max":943,"o":"m 935 56 q 943 -4 943 28 q 785 0 860 0 q 628 -4 711 0 q 638 56 628 36 q 692 68 676 60 q 708 96 708 76 q 688 164 708 113 l 626 306 q 260 300 406 306 l 222 204 q 200 113 200 146 q 217 72 200 85 q 272 56 235 58 q 282 -4 282 32 q 150 0 235 0 q 35 -4 114 0 q 44 54 35 31 q 101 90 81 61 q 156 204 122 119 l 443 942 q 497 947 467 947 l 828 189 q 883 86 863 111 q 935 56 903 61 m 600 368 l 494 615 q 433 767 453 711 q 381 617 418 719 l 285 368 l 600 368 m 465 1004 q 376 1033 413 1004 q 339 1107 339 1061 q 378 1185 339 1154 q 475 1217 417 1217 q 565 1190 528 1217 q 603 1115 603 1164 q 563 1036 603 1068 q 465 1004 524 1004 m 478 1047 q 516 1063 500 1047 q 532 1104 532 1079 q 515 1155 532 1132 q 465 1178 497 1178 q 426 1160 442 1178 q 411 1113 411 1143 q 428 1065 411 1083 q 478 1047 446 1047 z "},"Ǻ":{"ha":978,"x_min":35,"x_max":943,"o":"m 935 56 q 943 -4 943 28 q 785 0 860 0 q 628 -4 711 0 q 638 56 628 36 q 692 68 676 60 q 708 96 708 76 q 688 164 708 113 l 626 306 q 260 300 406 306 l 222 204 q 200 113 200 146 q 217 72 200 85 q 272 56 235 58 q 282 -4 282 32 q 150 0 235 0 q 35 -4 114 0 q 44 54 35 31 q 101 90 81 61 q 156 204 122 119 l 443 942 q 497 947 467 947 l 828 189 q 883 86 863 111 q 935 56 903 61 m 600 368 l 494 615 q 433 767 453 711 q 381 617 418 719 l 285 368 l 600 368 m 465 1004 q 376 1033 413 1004 q 339 1107 339 1061 q 378 1185 339 1154 q 475 1217 417 1217 q 565 1190 528 1217 q 603 1115 603 1164 q 563 1036 603 1068 q 465 1004 524 1004 m 478 1047 q 516 1063 500 1047 q 532 1104 532 1079 q 515 1155 532 1132 q 465 1178 497 1178 q 426 1160 442 1178 q 411 1113 411 1143 q 428 1065 411 1083 q 478 1047 446 1047 m 481 1294 q 450 1296 464 1294 q 425 1301 436 1297 q 503 1488 475 1403 q 569 1497 542 1497 q 635 1486 606 1497 q 481 1294 557 1393 z "},"Ã":{"ha":978,"x_min":35,"x_max":943,"o":"m 935 56 q 943 -4 943 28 q 785 0 860 0 q 628 -4 711 0 q 638 56 628 36 q 692 68 676 60 q 708 96 708 76 q 688 164 708 113 l 626 306 q 260 300 406 306 l 222 204 q 200 113 200 146 q 217 72 200 85 q 272 56 235 58 q 282 -4 282 32 q 150 0 235 0 q 35 -4 114 0 q 44 54 35 31 q 101 90 81 61 q 156 204 122 119 l 443 942 q 497 947 467 947 l 828 189 q 883 86 863 111 q 935 56 903 61 m 600 368 l 494 615 q 433 767 453 711 q 381 617 418 719 l 285 368 l 600 368 m 550 1039 q 506 1045 526 1039 q 454 1064 485 1051 q 403 1082 422 1076 q 363 1088 383 1088 q 264 1043 313 1088 q 246 1086 246 1057 q 400 1176 314 1176 q 501 1151 440 1176 q 546 1135 528 1140 q 582 1129 564 1129 q 660 1165 624 1129 q 696 1146 685 1161 q 550 1039 638 1039 z "},"Æ":{"ha":1265,"x_min":35,"x_max":1208,"o":"m 1208 204 q 1165 -3 1182 122 q 817 0 968 0 q 542 -3 697 0 q 551 56 542 38 q 607 72 589 61 q 633 110 625 83 q 640 192 640 136 l 640 414 q 385 408 463 411 q 276 215 299 257 q 238 106 238 143 q 253 70 238 82 q 300 53 268 58 q 310 -4 310 29 q 164 0 246 0 q 35 -4 76 0 q 44 54 35 31 q 111 88 81 58 q 194 211 142 118 l 519 772 q 542 833 542 808 q 522 865 542 854 q 458 882 503 876 q 450 942 450 901 l 671 939 l 718 939 q 1132 942 963 939 q 1161 724 1146 792 q 1099 707 1140 707 q 1042 834 1092 785 q 871 883 993 883 l 771 883 l 771 474 l 842 474 q 951 501 921 474 q 982 585 982 528 q 1050 594 1021 594 q 1047 440 1047 539 q 1050 282 1047 343 q 986 289 1006 282 q 970 358 982 332 q 926 399 958 383 q 831 414 893 414 l 771 414 l 771 192 q 782 107 771 135 q 813 71 793 79 q 868 63 833 63 l 904 63 q 1033 82 988 63 q 1101 136 1079 101 q 1147 238 1124 171 q 1208 204 1188 225 m 640 474 l 640 750 q 646 874 640 826 q 586 758 631 836 l 422 474 l 640 474 z "},"Ǽ":{"ha":1265,"x_min":35,"x_max":1208,"o":"m 1208 204 q 1165 -3 1182 122 q 817 0 968 0 q 542 -3 697 0 q 551 56 542 38 q 607 72 589 61 q 633 110 625 83 q 640 192 640 136 l 640 414 q 385 408 463 411 q 276 215 299 257 q 238 106 238 143 q 253 70 238 82 q 300 53 268 58 q 310 -4 310 29 q 164 0 246 0 q 35 -4 76 0 q 44 54 35 31 q 111 88 81 58 q 194 211 142 118 l 519 772 q 542 833 542 808 q 522 865 542 854 q 458 882 503 876 q 450 942 450 901 l 671 939 l 718 939 q 1132 942 963 939 q 1161 724 1146 792 q 1099 707 1140 707 q 1042 834 1092 785 q 871 883 993 883 l 771 883 l 771 474 l 842 474 q 951 501 921 474 q 982 585 982 528 q 1050 594 1021 594 q 1047 440 1047 539 q 1050 282 1047 343 q 986 289 1006 282 q 970 358 982 332 q 926 399 958 383 q 831 414 893 414 l 771 414 l 771 192 q 782 107 771 135 q 813 71 793 79 q 868 63 833 63 l 904 63 q 1033 82 988 63 q 1101 136 1079 101 q 1147 238 1124 171 q 1208 204 1188 225 m 640 474 l 640 750 q 646 874 640 826 q 586 758 631 836 l 422 474 l 640 474 m 719 1017 q 689 1018 703 1017 q 664 1024 675 1019 q 742 1210 714 1125 q 808 1219 781 1219 q 874 1208 844 1219 q 719 1017 796 1115 z "},"B":{"ha":865,"x_min":78,"x_max":789,"o":"m 517 510 q 789 274 789 494 q 706 76 789 151 q 456 0 624 0 q 78 -4 182 0 q 85 56 78 36 q 144 69 124 58 q 173 109 164 81 q 182 192 182 138 l 182 763 q 162 856 182 832 q 86 883 142 881 q 79 943 79 903 q 224 939 135 939 l 324 940 q 422 942 357 942 q 638 897 558 942 q 718 739 718 851 q 663 586 718 649 q 517 510 608 524 m 576 697 q 515 838 576 794 q 369 881 453 881 q 313 874 339 881 l 313 521 l 356 521 q 576 697 576 521 m 442 60 q 591 110 542 60 q 640 254 640 161 q 344 461 640 461 l 313 461 l 313 192 q 323 106 313 133 q 360 69 333 79 q 442 60 386 60 z "},"C":{"ha":907,"x_min":49,"x_max":838,"o":"m 490 -12 q 262 49 363 -12 q 105 222 161 111 q 49 476 49 333 q 113 736 49 629 q 284 897 178 843 q 513 951 390 951 q 669 934 597 951 q 821 879 742 917 q 806 664 806 807 q 732 651 775 651 q 675 842 726 790 q 524 894 624 894 q 338 842 411 894 q 229 703 264 789 q 194 514 194 617 q 237 288 194 389 q 360 130 279 188 q 549 72 440 72 q 683 94 614 72 q 813 154 753 117 q 828 134 821 147 q 838 111 836 121 q 673 17 753 46 q 490 -12 593 -12 z "},"Ć":{"ha":907,"x_min":49,"x_max":838,"o":"m 490 -12 q 262 49 363 -12 q 105 222 161 111 q 49 476 49 333 q 113 736 49 629 q 284 897 178 843 q 513 951 390 951 q 669 934 597 951 q 821 879 742 917 q 806 664 806 807 q 732 651 775 651 q 675 842 726 790 q 524 894 624 894 q 338 842 411 894 q 229 703 264 789 q 194 514 194 617 q 237 288 194 389 q 360 130 279 188 q 549 72 440 72 q 683 94 614 72 q 813 154 753 117 q 828 134 821 147 q 838 111 836 121 q 673 17 753 46 q 490 -12 593 -12 m 529 1017 q 499 1018 513 1017 q 474 1024 485 1019 q 551 1210 524 1125 q 618 1219 590 1219 q 683 1208 654 1219 q 529 1017 606 1115 z "},"Č":{"ha":907,"x_min":49,"x_max":838,"o":"m 490 -12 q 262 49 363 -12 q 105 222 161 111 q 49 476 49 333 q 113 736 49 629 q 284 897 178 843 q 513 951 390 951 q 669 934 597 951 q 821 879 742 917 q 806 664 806 807 q 732 651 775 651 q 675 842 726 790 q 524 894 624 894 q 338 842 411 894 q 229 703 264 789 q 194 514 194 617 q 237 288 194 389 q 360 130 279 188 q 549 72 440 72 q 683 94 614 72 q 813 154 753 117 q 828 134 821 147 q 838 111 836 121 q 673 17 753 46 q 490 -12 593 -12 m 488 1015 q 307 1188 413 1101 q 354 1219 322 1211 l 388 1200 q 524 1124 469 1149 q 617 1171 554 1138 q 708 1224 679 1204 q 731 1176 726 1214 q 629 1103 682 1144 q 536 1021 576 1061 q 488 1015 515 1015 z "},"Ç":{"ha":907,"x_min":49,"x_max":838,"o":"m 472 -69 q 560 -112 528 -79 q 593 -196 593 -146 q 565 -271 593 -239 q 496 -319 538 -303 q 415 -336 454 -336 q 406 -292 406 -318 q 483 -271 450 -292 q 515 -215 515 -250 q 490 -161 515 -182 q 425 -140 464 -140 q 400 -87 400 -121 l 449 -11 q 241 63 332 -1 q 99 235 150 128 q 49 476 49 342 q 113 736 49 629 q 284 897 178 843 q 513 951 390 951 q 669 934 597 951 q 821 879 742 917 q 806 664 806 807 q 732 651 775 651 q 675 842 726 790 q 524 894 624 894 q 338 842 411 894 q 229 703 264 789 q 194 514 194 617 q 237 288 194 389 q 360 130 279 188 q 549 72 440 72 q 683 94 614 72 q 813 154 753 117 q 828 134 821 147 q 838 111 836 121 q 683 20 758 50 q 514 -12 608 -10 l 472 -69 z "},"Ḉ":{"ha":907,"x_min":49,"x_max":838,"o":"m 683 1208 q 529 1017 606 1115 q 499 1018 513 1017 q 474 1024 485 1019 q 551 1210 524 1125 q 618 1219 590 1219 q 683 1208 654 1219 m 472 -69 q 560 -112 528 -79 q 593 -196 593 -146 q 565 -271 593 -239 q 496 -319 538 -303 q 415 -336 454 -336 q 406 -292 406 -318 q 483 -271 450 -292 q 515 -215 515 -250 q 490 -161 515 -182 q 425 -140 464 -140 q 400 -87 400 -121 l 449 -11 q 241 63 332 -1 q 99 235 150 128 q 49 476 49 342 q 113 736 49 629 q 284 897 178 843 q 513 951 390 951 q 669 934 597 951 q 821 879 742 917 q 806 664 806 807 q 732 651 775 651 q 675 842 726 790 q 524 894 624 894 q 338 842 411 894 q 229 703 264 789 q 194 514 194 617 q 237 288 194 389 q 360 130 279 188 q 549 72 440 72 q 683 94 614 72 q 813 154 753 117 q 828 134 821 147 q 838 111 836 121 q 683 20 758 50 q 514 -12 608 -10 l 472 -69 z "},"Ĉ":{"ha":907,"x_min":49,"x_max":838,"o":"m 490 -12 q 262 49 363 -12 q 105 222 161 111 q 49 476 49 333 q 113 736 49 629 q 284 897 178 843 q 513 951 390 951 q 669 934 597 951 q 821 879 742 917 q 806 664 806 807 q 732 651 775 651 q 675 842 726 790 q 524 894 624 894 q 338 842 411 894 q 229 703 264 789 q 194 514 194 617 q 237 288 194 389 q 360 130 279 188 q 549 72 440 72 q 683 94 614 72 q 813 154 753 117 q 828 134 821 147 q 838 111 836 121 q 673 17 753 46 q 490 -12 593 -12 m 329 1011 q 307 1058 311 1021 q 408 1132 356 1090 q 501 1214 461 1174 q 550 1219 522 1219 q 731 1047 625 1133 q 683 1015 715 1024 l 650 1035 q 514 1111 568 1086 q 421 1064 483 1097 q 329 1011 358 1031 z "},"Ċ":{"ha":907,"x_min":49,"x_max":838,"o":"m 490 -12 q 262 49 363 -12 q 105 222 161 111 q 49 476 49 333 q 113 736 49 629 q 284 897 178 843 q 513 951 390 951 q 669 934 597 951 q 821 879 742 917 q 806 664 806 807 q 732 651 775 651 q 675 842 726 790 q 524 894 624 894 q 338 842 411 894 q 229 703 264 789 q 194 514 194 617 q 237 288 194 389 q 360 130 279 188 q 549 72 440 72 q 683 94 614 72 q 813 154 753 117 q 828 134 821 147 q 838 111 836 121 q 673 17 753 46 q 490 -12 593 -12 z "},"D":{"ha":1014,"x_min":78,"x_max":965,"o":"m 438 942 q 816 847 667 942 q 965 493 965 751 q 798 100 965 200 q 438 0 631 0 q 78 -4 182 0 q 85 56 78 36 q 144 69 124 58 q 173 109 164 81 q 182 192 182 138 l 182 763 q 162 856 182 832 q 86 883 142 881 q 79 943 79 903 q 274 939 143 939 l 356 940 q 438 942 383 942 m 438 63 q 720 156 618 63 q 822 472 822 250 q 766 709 822 615 q 618 846 710 803 q 415 889 526 889 q 360 885 390 889 q 313 876 331 882 l 313 192 q 322 111 313 138 q 358 74 332 85 q 438 63 385 63 z "},"Ǳ":{"ha":1890,"x_min":78,"x_max":1803,"o":"m 438 942 q 816 847 667 942 q 965 493 965 751 q 798 100 965 200 q 438 0 631 0 q 78 -4 182 0 q 85 56 78 36 q 144 69 124 58 q 173 109 164 81 q 182 192 182 138 l 182 763 q 162 856 182 832 q 86 883 142 881 q 79 943 79 903 q 274 939 143 939 l 356 940 q 438 942 383 942 m 438 63 q 720 156 618 63 q 822 472 822 250 q 766 709 822 615 q 618 846 710 803 q 415 889 526 889 q 360 885 390 889 q 313 876 331 882 l 313 192 q 322 111 313 138 q 358 74 332 85 q 438 63 385 63 m 1731 235 q 1803 211 1776 231 q 1778 -4 1781 121 q 1415 0 1642 0 q 1106 -4 1192 0 q 1094 40 1094 18 q 1384 511 1272 328 q 1604 883 1496 694 l 1407 883 q 1305 870 1342 883 q 1245 819 1268 857 q 1208 706 1222 781 q 1129 719 1151 706 q 1149 824 1142 763 q 1156 942 1156 885 q 1494 939 1269 939 q 1761 942 1663 939 q 1776 896 1776 924 q 1271 58 1511 432 l 1485 58 q 1621 72 1575 58 q 1691 121 1667 85 q 1731 235 1715 157 z "},"Ǆ":{"ha":1890,"x_min":78,"x_max":1803,"o":"m 438 942 q 816 847 667 942 q 965 493 965 751 q 798 100 965 200 q 438 0 631 0 q 78 -4 182 0 q 85 56 78 36 q 144 69 124 58 q 173 109 164 81 q 182 192 182 138 l 182 763 q 162 856 182 832 q 86 883 142 881 q 79 943 79 903 q 274 939 143 939 l 356 940 q 438 942 383 942 m 438 63 q 720 156 618 63 q 822 472 822 250 q 766 709 822 615 q 618 846 710 803 q 415 889 526 889 q 360 885 390 889 q 313 876 331 882 l 313 192 q 322 111 313 138 q 358 74 332 85 q 438 63 385 63 m 1731 235 q 1803 211 1776 231 q 1778 -4 1781 121 q 1415 0 1642 0 q 1106 -4 1192 0 q 1094 40 1094 18 q 1384 511 1272 328 q 1604 883 1496 694 l 1407 883 q 1305 870 1342 883 q 1245 819 1268 857 q 1208 706 1222 781 q 1129 719 1151 706 q 1149 824 1142 763 q 1156 942 1156 885 q 1494 939 1269 939 q 1761 942 1663 939 q 1776 896 1776 924 q 1271 58 1511 432 l 1485 58 q 1621 72 1575 58 q 1691 121 1667 85 q 1731 235 1715 157 m 1442 1015 q 1261 1188 1367 1101 q 1308 1219 1276 1211 l 1342 1200 q 1478 1124 1424 1149 q 1571 1171 1508 1138 q 1663 1224 1633 1204 q 1685 1176 1681 1214 q 1583 1103 1636 1144 q 1490 1021 1531 1061 q 1442 1015 1469 1015 z "},"Ð":{"ha":1014,"x_min":69,"x_max":965,"o":"m 438 942 q 816 847 667 942 q 965 493 965 751 q 798 100 965 200 q 438 0 631 0 q 78 -4 182 0 q 85 56 78 36 q 144 69 124 58 q 173 109 164 81 q 182 192 182 138 l 182 436 l 101 435 q 69 433 92 433 q 73 473 69 450 q 82 504 76 496 l 182 504 l 182 763 q 162 856 182 832 q 86 883 142 881 q 79 943 79 903 q 274 939 143 939 l 356 940 q 438 942 383 942 m 438 63 q 720 156 618 63 q 822 472 822 250 q 766 709 822 615 q 618 846 710 803 q 415 889 526 889 q 360 885 390 889 q 313 876 331 882 l 313 504 l 501 504 q 488 435 501 460 q 313 436 422 436 l 313 192 q 322 111 313 138 q 358 74 332 85 q 438 63 385 63 z "},"Ď":{"ha":1014,"x_min":78,"x_max":965,"o":"m 438 942 q 816 847 667 942 q 965 493 965 751 q 798 100 965 200 q 438 0 631 0 q 78 -4 182 0 q 85 56 78 36 q 144 69 124 58 q 173 109 164 81 q 182 192 182 138 l 182 763 q 162 856 182 832 q 86 883 142 881 q 79 943 79 903 q 274 939 143 939 l 356 940 q 438 942 383 942 m 438 63 q 720 156 618 63 q 822 472 822 250 q 766 709 822 615 q 618 846 710 803 q 415 889 526 889 q 360 885 390 889 q 313 876 331 882 l 313 192 q 322 111 313 138 q 358 74 332 85 q 438 63 385 63 m 461 1015 q 281 1188 386 1101 q 328 1219 296 1211 l 361 1200 q 497 1124 443 1149 q 590 1171 528 1138 q 682 1224 653 1204 q 704 1176 700 1214 q 603 1103 656 1144 q 510 1021 550 1061 q 461 1015 489 1015 z "},"Ḑ":{"ha":1014,"x_min":78,"x_max":965,"o":"m 438 942 q 816 847 667 942 q 965 493 965 751 q 798 100 965 200 q 438 0 631 0 q 78 -4 182 0 q 85 56 78 36 q 144 69 124 58 q 173 109 164 81 q 182 192 182 138 l 182 763 q 162 856 182 832 q 86 883 142 881 q 79 943 79 903 q 274 939 143 939 l 356 940 q 438 942 383 942 m 438 63 q 720 156 618 63 q 822 472 822 250 q 766 709 822 615 q 618 846 710 803 q 415 889 526 889 q 360 885 390 889 q 313 876 331 882 l 313 192 q 322 111 313 138 q 358 74 332 85 q 438 63 385 63 m 514 -60 q 549 -94 538 -69 q 561 -153 561 -118 q 413 -389 561 -278 q 374 -360 385 -383 q 425 -293 407 -326 q 443 -235 443 -260 q 392 -185 443 -190 q 394 -144 390 -172 q 403 -101 397 -117 q 514 -60 469 -87 z "},"Đ":{"ha":1014,"x_min":69,"x_max":965,"o":"m 438 942 q 816 847 667 942 q 965 493 965 751 q 798 100 965 200 q 438 0 631 0 q 78 -4 182 0 q 85 56 78 36 q 144 69 124 58 q 173 109 164 81 q 182 192 182 138 l 182 436 l 101 435 q 69 433 92 433 q 73 473 69 450 q 82 504 76 496 l 182 504 l 182 763 q 162 856 182 832 q 86 883 142 881 q 79 943 79 903 q 274 939 143 939 l 356 940 q 438 942 383 942 m 438 63 q 720 156 618 63 q 822 472 822 250 q 766 709 822 615 q 618 846 710 803 q 415 889 526 889 q 360 885 390 889 q 313 876 331 882 l 313 504 l 501 504 q 488 435 501 460 q 313 436 422 436 l 313 192 q 322 111 313 138 q 358 74 332 85 q 438 63 385 63 z "},"Ḍ":{"ha":1014,"x_min":78,"x_max":965,"o":"m 438 942 q 816 847 667 942 q 965 493 965 751 q 798 100 965 200 q 438 0 631 0 q 78 -4 182 0 q 85 56 78 36 q 144 69 124 58 q 173 109 164 81 q 182 192 182 138 l 182 763 q 162 856 182 832 q 86 883 142 881 q 79 943 79 903 q 274 939 143 939 l 356 940 q 438 942 383 942 m 438 63 q 720 156 618 63 q 822 472 822 250 q 766 709 822 615 q 618 846 710 803 q 415 889 526 889 q 360 885 390 889 q 313 876 331 882 l 313 192 q 322 111 313 138 q 358 74 332 85 q 438 63 385 63 m 478 -292 q 419 -268 443 -292 q 396 -211 396 -244 q 420 -151 396 -175 q 478 -126 444 -126 q 538 -150 515 -126 q 561 -211 561 -174 q 537 -267 561 -243 q 478 -292 513 -292 z "},"Ḏ":{"ha":1014,"x_min":78,"x_max":965,"o":"m 438 942 q 816 847 667 942 q 965 493 965 751 q 798 100 965 200 q 438 0 631 0 q 78 -4 182 0 q 85 56 78 36 q 144 69 124 58 q 173 109 164 81 q 182 192 182 138 l 182 763 q 162 856 182 832 q 86 883 142 881 q 79 943 79 903 q 274 939 143 939 l 356 940 q 438 942 383 942 m 438 63 q 720 156 618 63 q 822 472 822 250 q 766 709 822 615 q 618 846 710 803 q 415 889 526 889 q 360 885 390 889 q 313 876 331 882 l 313 192 q 322 111 313 138 q 358 74 332 85 q 438 63 385 63 m 226 -229 q 230 -197 226 -217 q 239 -165 233 -176 l 732 -165 q 719 -225 732 -194 q 226 -229 464 -225 z "},"ǲ":{"ha":1710,"x_min":78,"x_max":1647,"o":"m 438 942 q 816 847 667 942 q 965 493 965 751 q 798 100 965 200 q 438 0 631 0 q 78 -4 182 0 q 85 56 78 36 q 144 69 124 58 q 173 109 164 81 q 182 192 182 138 l 182 763 q 162 856 182 832 q 86 883 142 881 q 79 943 79 903 q 274 939 143 939 l 356 940 q 438 942 383 942 m 438 63 q 720 156 618 63 q 822 472 822 250 q 766 709 822 615 q 618 846 710 803 q 415 889 526 889 q 360 885 390 889 q 313 876 331 882 l 313 192 q 322 111 313 138 q 358 74 332 85 q 438 63 385 63 m 1636 208 q 1647 24 1636 90 q 1603 -3 1635 -3 q 1354 0 1461 0 q 1107 -3 1207 0 q 1085 53 1085 19 q 1287 336 1171 172 q 1451 575 1403 500 l 1324 575 q 1244 563 1272 575 q 1199 521 1215 551 q 1169 428 1183 490 q 1097 439 1125 428 q 1107 640 1107 546 q 1361 636 1192 636 q 1607 640 1526 636 q 1625 581 1625 618 q 1439 319 1556 481 q 1250 63 1322 158 l 1426 63 q 1506 74 1479 63 q 1544 117 1532 85 q 1563 217 1557 149 q 1636 208 1603 217 z "},"ǅ":{"ha":1710,"x_min":78,"x_max":1647,"o":"m 438 942 q 816 847 667 942 q 965 493 965 751 q 798 100 965 200 q 438 0 631 0 q 78 -4 182 0 q 85 56 78 36 q 144 69 124 58 q 173 109 164 81 q 182 192 182 138 l 182 763 q 162 856 182 832 q 86 883 142 881 q 79 943 79 903 q 274 939 143 939 l 356 940 q 438 942 383 942 m 438 63 q 720 156 618 63 q 822 472 822 250 q 766 709 822 615 q 618 846 710 803 q 415 889 526 889 q 360 885 390 889 q 313 876 331 882 l 313 192 q 322 111 313 138 q 358 74 332 85 q 438 63 385 63 m 1636 208 q 1647 24 1636 90 q 1603 -3 1635 -3 q 1354 0 1461 0 q 1107 -3 1207 0 q 1085 53 1085 19 q 1287 336 1171 172 q 1451 575 1403 500 l 1324 575 q 1244 563 1272 575 q 1199 521 1215 551 q 1169 428 1183 490 q 1097 439 1125 428 q 1107 640 1107 546 q 1361 636 1192 636 q 1607 640 1526 636 q 1625 581 1625 618 q 1439 319 1556 481 q 1250 63 1322 158 l 1426 63 q 1506 74 1479 63 q 1544 117 1532 85 q 1563 217 1557 149 q 1636 208 1603 217 m 1329 718 q 1133 933 1232 843 q 1161 974 1138 963 q 1215 936 1201 946 q 1360 844 1317 867 q 1460 910 1390 861 q 1549 974 1531 958 q 1592 942 1579 969 q 1477 838 1536 896 q 1374 724 1418 779 q 1329 718 1353 718 z "},"E":{"ha":835,"x_min":78,"x_max":778,"o":"m 717 238 q 778 204 757 225 q 735 -3 751 122 q 438 0 626 0 q 78 -4 182 0 q 85 56 78 36 q 144 69 124 58 q 172 108 164 81 q 181 192 181 136 l 181 763 q 160 856 181 832 q 85 883 140 881 q 78 943 78 903 q 311 939 160 939 q 701 943 564 939 q 731 724 715 790 q 668 707 710 707 q 612 834 661 785 q 440 883 563 883 l 311 883 l 311 503 l 399 503 q 519 526 486 503 q 553 615 551 549 q 619 625 586 625 q 617 474 617 578 q 619 313 617 360 q 556 319 582 313 q 517 417 550 392 q 399 443 485 443 l 311 443 l 311 192 q 321 112 311 139 q 358 74 331 85 q 438 63 385 63 l 446 63 q 593 82 542 63 q 669 136 644 101 q 717 238 693 171 z "},"É":{"ha":835,"x_min":78,"x_max":778,"o":"m 717 238 q 778 204 757 225 q 735 -3 751 122 q 438 0 626 0 q 78 -4 182 0 q 85 56 78 36 q 144 69 124 58 q 172 108 164 81 q 181 192 181 136 l 181 763 q 160 856 181 832 q 85 883 140 881 q 78 943 78 903 q 311 939 160 939 q 701 943 564 939 q 731 724 715 790 q 668 707 710 707 q 612 834 661 785 q 440 883 563 883 l 311 883 l 311 503 l 399 503 q 519 526 486 503 q 553 615 551 549 q 619 625 586 625 q 617 474 617 578 q 619 313 617 360 q 556 319 582 313 q 517 417 550 392 q 399 443 485 443 l 311 443 l 311 192 q 321 112 311 139 q 358 74 331 85 q 438 63 385 63 l 446 63 q 593 82 542 63 q 669 136 644 101 q 717 238 693 171 m 410 1017 q 379 1018 393 1017 q 354 1024 365 1019 q 432 1210 404 1125 q 499 1219 471 1219 q 564 1208 535 1219 q 410 1017 486 1115 z "},"Ĕ":{"ha":835,"x_min":78,"x_max":778,"o":"m 717 238 q 778 204 757 225 q 735 -3 751 122 q 438 0 626 0 q 78 -4 182 0 q 85 56 78 36 q 144 69 124 58 q 172 108 164 81 q 181 192 181 136 l 181 763 q 160 856 181 832 q 85 883 140 881 q 78 943 78 903 q 311 939 160 939 q 701 943 564 939 q 731 724 715 790 q 668 707 710 707 q 612 834 661 785 q 440 883 563 883 l 311 883 l 311 503 l 399 503 q 519 526 486 503 q 553 615 551 549 q 619 625 586 625 q 617 474 617 578 q 619 313 617 360 q 556 319 582 313 q 517 417 550 392 q 399 443 485 443 l 311 443 l 311 192 q 321 112 311 139 q 358 74 331 85 q 438 63 385 63 l 446 63 q 593 82 542 63 q 669 136 644 101 q 717 238 693 171 m 606 1201 q 551 1060 606 1110 q 397 1011 497 1011 q 246 1059 299 1011 q 193 1196 193 1107 q 256 1208 221 1211 q 306 1129 264 1158 q 410 1100 347 1100 q 511 1129 472 1100 q 553 1208 550 1158 q 606 1201 585 1211 z "},"Ě":{"ha":835,"x_min":78,"x_max":778,"o":"m 717 238 q 778 204 757 225 q 735 -3 751 122 q 438 0 626 0 q 78 -4 182 0 q 85 56 78 36 q 144 69 124 58 q 172 108 164 81 q 181 192 181 136 l 181 763 q 160 856 181 832 q 85 883 140 881 q 78 943 78 903 q 311 939 160 939 q 701 943 564 939 q 731 724 715 790 q 668 707 710 707 q 612 834 661 785 q 440 883 563 883 l 311 883 l 311 503 l 399 503 q 519 526 486 503 q 553 615 551 549 q 619 625 586 625 q 617 474 617 578 q 619 313 617 360 q 556 319 582 313 q 517 417 550 392 q 399 443 485 443 l 311 443 l 311 192 q 321 112 311 139 q 358 74 331 85 q 438 63 385 63 l 446 63 q 593 82 542 63 q 669 136 644 101 q 717 238 693 171 m 368 1015 q 188 1188 293 1101 q 235 1219 203 1211 l 268 1200 q 404 1124 350 1149 q 497 1171 435 1138 q 589 1224 560 1204 q 611 1176 607 1214 q 510 1103 563 1144 q 417 1021 457 1061 q 368 1015 396 1015 z "},"Ȩ":{"ha":835,"x_min":78,"x_max":778,"o":"m 735 -3 q 447 0 629 0 l 397 -69 q 485 -112 453 -79 q 518 -196 518 -146 q 490 -271 518 -239 q 421 -319 463 -303 q 340 -336 379 -336 q 331 -292 331 -318 q 408 -271 375 -292 q 440 -215 440 -250 q 415 -161 440 -182 q 350 -140 389 -140 q 325 -87 325 -121 l 381 0 q 78 -4 165 0 q 85 56 78 36 q 144 69 124 58 q 172 108 164 81 q 181 192 181 136 l 181 763 q 160 856 181 832 q 85 883 140 881 q 78 943 78 903 q 311 939 160 939 q 701 943 564 939 q 731 724 715 790 q 668 707 710 707 q 612 834 661 785 q 440 883 563 883 l 311 883 l 311 503 l 399 503 q 519 526 486 503 q 553 615 551 549 q 619 625 586 625 q 617 474 617 578 q 619 313 617 360 q 556 319 582 313 q 517 417 550 392 q 399 443 485 443 l 311 443 l 311 192 q 321 112 311 139 q 358 74 331 85 q 438 63 385 63 l 446 63 q 593 82 542 63 q 669 136 644 101 q 717 238 693 171 q 778 204 757 225 q 735 -3 751 122 z "},"Ḝ":{"ha":835,"x_min":78,"x_max":778,"o":"m 397 1011 q 246 1059 299 1011 q 193 1196 193 1107 q 256 1208 221 1211 q 306 1129 264 1158 q 410 1100 347 1100 q 511 1129 472 1100 q 553 1208 550 1158 q 606 1201 585 1211 q 551 1060 606 1110 q 397 1011 497 1011 m 735 -3 q 447 0 629 0 l 397 -69 q 485 -112 453 -79 q 518 -196 518 -146 q 490 -271 518 -239 q 421 -319 463 -303 q 340 -336 379 -336 q 331 -292 331 -318 q 408 -271 375 -292 q 440 -215 440 -250 q 415 -161 440 -182 q 350 -140 389 -140 q 325 -87 325 -121 l 381 0 q 78 -4 165 0 q 85 56 78 36 q 144 69 124 58 q 172 108 164 81 q 181 192 181 136 l 181 763 q 160 856 181 832 q 85 883 140 881 q 78 943 78 903 q 311 939 160 939 q 701 943 564 939 q 731 724 715 790 q 668 707 710 707 q 612 834 661 785 q 440 883 563 883 l 311 883 l 311 503 l 399 503 q 519 526 486 503 q 553 615 551 549 q 619 625 586 625 q 617 474 617 578 q 619 313 617 360 q 556 319 582 313 q 517 417 550 392 q 399 443 485 443 l 311 443 l 311 192 q 321 112 311 139 q 358 74 331 85 q 438 63 385 63 l 446 63 q 593 82 542 63 q 669 136 644 101 q 717 238 693 171 q 778 204 757 225 q 735 -3 751 122 z "},"Ê":{"ha":835,"x_min":78,"x_max":778,"o":"m 717 238 q 778 204 757 225 q 735 -3 751 122 q 438 0 626 0 q 78 -4 182 0 q 85 56 78 36 q 144 69 124 58 q 172 108 164 81 q 181 192 181 136 l 181 763 q 160 856 181 832 q 85 883 140 881 q 78 943 78 903 q 311 939 160 939 q 701 943 564 939 q 731 724 715 790 q 668 707 710 707 q 612 834 661 785 q 440 883 563 883 l 311 883 l 311 503 l 399 503 q 519 526 486 503 q 553 615 551 549 q 619 625 586 625 q 617 474 617 578 q 619 313 617 360 q 556 319 582 313 q 517 417 550 392 q 399 443 485 443 l 311 443 l 311 192 q 321 112 311 139 q 358 74 331 85 q 438 63 385 63 l 446 63 q 593 82 542 63 q 669 136 644 101 q 717 238 693 171 m 210 1011 q 188 1058 192 1021 q 289 1132 236 1090 q 382 1214 342 1174 q 431 1219 403 1219 q 611 1047 506 1133 q 564 1015 596 1024 l 531 1035 q 394 1111 449 1086 q 301 1064 364 1097 q 210 1011 239 1031 z "},"Ế":{"ha":835,"x_min":78,"x_max":778,"o":"m 717 238 q 778 204 757 225 q 735 -3 751 122 q 438 0 626 0 q 78 -4 182 0 q 85 56 78 36 q 144 69 124 58 q 172 108 164 81 q 181 192 181 136 l 181 763 q 160 856 181 832 q 85 883 140 881 q 78 943 78 903 q 311 939 160 939 q 701 943 564 939 q 731 724 715 790 q 668 707 710 707 q 612 834 661 785 q 440 883 563 883 l 311 883 l 311 503 l 399 503 q 519 526 486 503 q 553 615 551 549 q 619 625 586 625 q 617 474 617 578 q 619 313 617 360 q 556 319 582 313 q 517 417 550 392 q 399 443 485 443 l 311 443 l 311 192 q 321 112 311 139 q 358 74 331 85 q 438 63 385 63 l 446 63 q 593 82 542 63 q 669 136 644 101 q 717 238 693 171 m 597 1181 q 568 1182 582 1181 q 544 1188 554 1183 q 618 1363 586 1269 q 681 1371 660 1371 q 742 1361 713 1371 q 597 1181 656 1257 m 210 1011 q 188 1058 192 1021 q 289 1132 236 1090 q 382 1214 342 1174 q 431 1219 403 1219 q 611 1047 506 1133 q 564 1015 596 1024 l 531 1035 q 394 1111 449 1086 q 301 1064 364 1097 q 210 1011 239 1031 z "},"Ệ":{"ha":835,"x_min":78,"x_max":778,"o":"m 717 238 q 778 204 757 225 q 735 -3 751 122 q 438 0 626 0 q 78 -4 182 0 q 85 56 78 36 q 144 69 124 58 q 172 108 164 81 q 181 192 181 136 l 181 763 q 160 856 181 832 q 85 883 140 881 q 78 943 78 903 q 311 939 160 939 q 701 943 564 939 q 731 724 715 790 q 668 707 710 707 q 612 834 661 785 q 440 883 563 883 l 311 883 l 311 503 l 399 503 q 519 526 486 503 q 553 615 551 549 q 619 625 586 625 q 617 474 617 578 q 619 313 617 360 q 556 319 582 313 q 517 417 550 392 q 399 443 485 443 l 311 443 l 311 192 q 321 112 311 139 q 358 74 331 85 q 438 63 385 63 l 446 63 q 593 82 542 63 q 669 136 644 101 q 717 238 693 171 m 421 -292 q 363 -268 386 -292 q 339 -211 339 -244 q 363 -151 339 -175 q 421 -126 388 -126 q 481 -150 458 -126 q 504 -211 504 -174 q 480 -267 504 -243 q 421 -292 456 -292 m 210 1011 q 188 1058 192 1021 q 289 1132 236 1090 q 382 1214 342 1174 q 431 1219 403 1219 q 611 1047 506 1133 q 564 1015 596 1024 l 531 1035 q 394 1111 449 1086 q 301 1064 364 1097 q 210 1011 239 1031 z "},"Ề":{"ha":835,"x_min":78,"x_max":778,"o":"m 717 238 q 778 204 757 225 q 735 -3 751 122 q 438 0 626 0 q 78 -4 182 0 q 85 56 78 36 q 144 69 124 58 q 172 108 164 81 q 181 192 181 136 l 181 763 q 160 856 181 832 q 85 883 140 881 q 78 943 78 903 q 311 939 160 939 q 701 943 564 939 q 731 724 715 790 q 668 707 710 707 q 612 834 661 785 q 440 883 563 883 l 311 883 l 311 503 l 399 503 q 519 526 486 503 q 553 615 551 549 q 619 625 586 625 q 617 474 617 578 q 619 313 617 360 q 556 319 582 313 q 517 417 550 392 q 399 443 485 443 l 311 443 l 311 192 q 321 112 311 139 q 358 74 331 85 q 438 63 385 63 l 446 63 q 593 82 542 63 q 669 136 644 101 q 717 238 693 171 z "},"Ể":{"ha":835,"x_min":78,"x_max":778,"o":"m 717 238 q 778 204 757 225 q 735 -3 751 122 q 438 0 626 0 q 78 -4 182 0 q 85 56 78 36 q 144 69 124 58 q 172 108 164 81 q 181 192 181 136 l 181 763 q 160 856 181 832 q 85 883 140 881 q 78 943 78 903 q 311 939 160 939 q 701 943 564 939 q 731 724 715 790 q 668 707 710 707 q 612 834 661 785 q 440 883 563 883 l 311 883 l 311 503 l 399 503 q 519 526 486 503 q 553 615 551 549 q 619 625 586 625 q 617 474 617 578 q 619 313 617 360 q 556 319 582 313 q 517 417 550 392 q 399 443 485 443 l 311 443 l 311 192 q 321 112 311 139 q 358 74 331 85 q 438 63 385 63 l 446 63 q 593 82 542 63 q 669 136 644 101 q 717 238 693 171 m 210 1011 q 188 1058 192 1021 q 289 1132 236 1090 q 382 1214 342 1174 q 431 1219 403 1219 q 611 1047 506 1133 q 564 1015 596 1024 l 531 1035 q 394 1111 449 1086 q 301 1064 364 1097 q 210 1011 239 1031 m 553 1200 q 535 1243 535 1222 q 547 1277 535 1264 q 583 1306 558 1290 q 613 1327 603 1317 q 622 1350 622 1338 q 581 1378 622 1378 q 534 1359 550 1378 q 513 1297 518 1340 q 447 1310 469 1297 q 451 1351 451 1335 q 447 1386 451 1368 q 506 1419 474 1407 q 586 1431 538 1431 q 678 1410 643 1431 q 714 1353 714 1390 q 697 1309 714 1326 q 650 1271 681 1292 q 617 1247 628 1257 q 606 1225 606 1238 q 608 1207 606 1218 q 553 1200 586 1200 z "},"Ễ":{"ha":835,"x_min":78,"x_max":778,"o":"m 717 238 q 778 204 757 225 q 735 -3 751 122 q 438 0 626 0 q 78 -4 182 0 q 85 56 78 36 q 144 69 124 58 q 172 108 164 81 q 181 192 181 136 l 181 763 q 160 856 181 832 q 85 883 140 881 q 78 943 78 903 q 311 939 160 939 q 701 943 564 939 q 731 724 715 790 q 668 707 710 707 q 612 834 661 785 q 440 883 563 883 l 311 883 l 311 503 l 399 503 q 519 526 486 503 q 553 615 551 549 q 619 625 586 625 q 617 474 617 578 q 619 313 617 360 q 556 319 582 313 q 517 417 550 392 q 399 443 485 443 l 311 443 l 311 192 q 321 112 311 139 q 358 74 331 85 q 438 63 385 63 l 446 63 q 593 82 542 63 q 669 136 644 101 q 717 238 693 171 m 210 1011 q 188 1058 192 1021 q 289 1132 236 1090 q 382 1214 342 1174 q 431 1219 403 1219 q 611 1047 506 1133 q 564 1015 596 1024 l 531 1035 q 394 1111 449 1086 q 301 1064 364 1097 q 210 1011 239 1031 m 479 1292 q 435 1298 456 1292 q 383 1317 414 1304 q 332 1335 351 1329 q 292 1340 313 1340 q 193 1296 242 1340 q 175 1339 175 1310 q 329 1429 243 1429 q 431 1404 369 1429 q 475 1388 457 1393 q 511 1382 493 1382 q 589 1418 553 1382 q 625 1399 614 1414 q 479 1292 567 1292 z "},"Ȅ":{"ha":835,"x_min":78,"x_max":778,"o":"m 717 238 q 778 204 757 225 q 735 -3 751 122 q 438 0 626 0 q 78 -4 182 0 q 85 56 78 36 q 144 69 124 58 q 172 108 164 81 q 181 192 181 136 l 181 763 q 160 856 181 832 q 85 883 140 881 q 78 943 78 903 q 311 939 160 939 q 701 943 564 939 q 731 724 715 790 q 668 707 710 707 q 612 834 661 785 q 440 883 563 883 l 311 883 l 311 503 l 399 503 q 519 526 486 503 q 553 615 551 549 q 619 625 586 625 q 617 474 617 578 q 619 313 617 360 q 556 319 582 313 q 517 417 550 392 q 399 443 485 443 l 311 443 l 311 192 q 321 112 311 139 q 358 74 331 85 q 438 63 385 63 l 446 63 q 593 82 542 63 q 669 136 644 101 q 717 238 693 171 m 282 1003 q 128 1181 201 1107 q 221 1199 164 1199 q 253 1197 242 1199 q 338 1010 300 1079 q 313 1004 326 1006 q 282 1003 299 1003 m 490 1003 q 336 1181 410 1107 q 429 1199 372 1199 q 461 1197 450 1199 q 546 1010 508 1079 q 521 1004 535 1006 q 490 1003 507 1003 z "},"Ë":{"ha":835,"x_min":78,"x_max":778,"o":"m 717 238 q 778 204 757 225 q 735 -3 751 122 q 438 0 626 0 q 78 -4 182 0 q 85 56 78 36 q 144 69 124 58 q 172 108 164 81 q 181 192 181 136 l 181 763 q 160 856 181 832 q 85 883 140 881 q 78 943 78 903 q 311 939 160 939 q 701 943 564 939 q 731 724 715 790 q 668 707 710 707 q 612 834 661 785 q 440 883 563 883 l 311 883 l 311 503 l 399 503 q 519 526 486 503 q 553 615 551 549 q 619 625 586 625 q 617 474 617 578 q 619 313 617 360 q 556 319 582 313 q 517 417 550 392 q 399 443 485 443 l 311 443 l 311 192 q 321 112 311 139 q 358 74 331 85 q 438 63 385 63 l 446 63 q 593 82 542 63 q 669 136 644 101 q 717 238 693 171 z "},"Ė":{"ha":835,"x_min":78,"x_max":778,"o":"m 717 238 q 778 204 757 225 q 735 -3 751 122 q 438 0 626 0 q 78 -4 182 0 q 85 56 78 36 q 144 69 124 58 q 172 108 164 81 q 181 192 181 136 l 181 763 q 160 856 181 832 q 85 883 140 881 q 78 943 78 903 q 311 939 160 939 q 701 943 564 939 q 731 724 715 790 q 668 707 710 707 q 612 834 661 785 q 440 883 563 883 l 311 883 l 311 503 l 399 503 q 519 526 486 503 q 553 615 551 549 q 619 625 586 625 q 617 474 617 578 q 619 313 617 360 q 556 319 582 313 q 517 417 550 392 q 399 443 485 443 l 311 443 l 311 192 q 321 112 311 139 q 358 74 331 85 q 438 63 385 63 l 446 63 q 593 82 542 63 q 669 136 644 101 q 717 238 693 171 z "},"Ẹ":{"ha":835,"x_min":78,"x_max":778,"o":"m 717 238 q 778 204 757 225 q 735 -3 751 122 q 438 0 626 0 q 78 -4 182 0 q 85 56 78 36 q 144 69 124 58 q 172 108 164 81 q 181 192 181 136 l 181 763 q 160 856 181 832 q 85 883 140 881 q 78 943 78 903 q 311 939 160 939 q 701 943 564 939 q 731 724 715 790 q 668 707 710 707 q 612 834 661 785 q 440 883 563 883 l 311 883 l 311 503 l 399 503 q 519 526 486 503 q 553 615 551 549 q 619 625 586 625 q 617 474 617 578 q 619 313 617 360 q 556 319 582 313 q 517 417 550 392 q 399 443 485 443 l 311 443 l 311 192 q 321 112 311 139 q 358 74 331 85 q 438 63 385 63 l 446 63 q 593 82 542 63 q 669 136 644 101 q 717 238 693 171 m 421 -292 q 363 -268 386 -292 q 339 -211 339 -244 q 363 -151 339 -175 q 421 -126 388 -126 q 481 -150 458 -126 q 504 -211 504 -174 q 480 -267 504 -243 q 421 -292 456 -292 z "},"È":{"ha":835,"x_min":78,"x_max":778,"o":"m 717 238 q 778 204 757 225 q 735 -3 751 122 q 438 0 626 0 q 78 -4 182 0 q 85 56 78 36 q 144 69 124 58 q 172 108 164 81 q 181 192 181 136 l 181 763 q 160 856 181 832 q 85 883 140 881 q 78 943 78 903 q 311 939 160 939 q 701 943 564 939 q 731 724 715 790 q 668 707 710 707 q 612 834 661 785 q 440 883 563 883 l 311 883 l 311 503 l 399 503 q 519 526 486 503 q 553 615 551 549 q 619 625 586 625 q 617 474 617 578 q 619 313 617 360 q 556 319 582 313 q 517 417 550 392 q 399 443 485 443 l 311 443 l 311 192 q 321 112 311 139 q 358 74 331 85 q 438 63 385 63 l 446 63 q 593 82 542 63 q 669 136 644 101 q 717 238 693 171 m 390 1017 q 236 1194 310 1121 q 329 1213 272 1213 q 361 1211 350 1213 q 446 1024 408 1093 q 421 1018 435 1019 q 390 1017 407 1017 z "},"Ẻ":{"ha":835,"x_min":78,"x_max":778,"o":"m 717 238 q 778 204 757 225 q 735 -3 751 122 q 438 0 626 0 q 78 -4 182 0 q 85 56 78 36 q 144 69 124 58 q 172 108 164 81 q 181 192 181 136 l 181 763 q 160 856 181 832 q 85 883 140 881 q 78 943 78 903 q 311 939 160 939 q 701 943 564 939 q 731 724 715 790 q 668 707 710 707 q 612 834 661 785 q 440 883 563 883 l 311 883 l 311 503 l 399 503 q 519 526 486 503 q 553 615 551 549 q 619 625 586 625 q 617 474 617 578 q 619 313 617 360 q 556 319 582 313 q 517 417 550 392 q 399 443 485 443 l 311 443 l 311 192 q 321 112 311 139 q 358 74 331 85 q 438 63 385 63 l 446 63 q 593 82 542 63 q 669 136 644 101 q 717 238 693 171 m 372 1008 q 354 1051 354 1031 q 366 1085 354 1072 q 403 1114 378 1099 q 432 1135 422 1125 q 442 1158 442 1146 q 400 1186 442 1186 q 353 1167 369 1186 q 332 1106 338 1149 q 267 1118 289 1106 q 271 1160 271 1143 q 267 1194 271 1176 q 325 1227 293 1215 q 406 1239 357 1239 q 498 1219 463 1239 q 533 1161 533 1199 q 517 1117 533 1135 q 469 1079 500 1100 q 436 1056 447 1065 q 425 1033 425 1046 q 428 1015 425 1026 q 372 1008 406 1008 z "},"Ȇ":{"ha":835,"x_min":78,"x_max":778,"o":"m 717 238 q 778 204 757 225 q 735 -3 751 122 q 438 0 626 0 q 78 -4 182 0 q 85 56 78 36 q 144 69 124 58 q 172 108 164 81 q 181 192 181 136 l 181 763 q 160 856 181 832 q 85 883 140 881 q 78 943 78 903 q 311 939 160 939 q 701 943 564 939 q 731 724 715 790 q 668 707 710 707 q 612 834 661 785 q 440 883 563 883 l 311 883 l 311 503 l 399 503 q 519 526 486 503 q 553 615 551 549 q 619 625 586 625 q 617 474 617 578 q 619 313 617 360 q 556 319 582 313 q 517 417 550 392 q 399 443 485 443 l 311 443 l 311 192 q 321 112 311 139 q 358 74 331 85 q 438 63 385 63 l 446 63 q 593 82 542 63 q 669 136 644 101 q 717 238 693 171 m 193 1018 q 247 1159 193 1110 q 401 1208 301 1208 q 553 1160 500 1208 q 606 1024 606 1113 q 543 1011 578 1008 q 493 1090 535 1061 q 389 1119 451 1119 q 288 1090 326 1119 q 246 1011 249 1061 q 193 1018 214 1008 z "},"Ē":{"ha":835,"x_min":78,"x_max":778,"o":"m 717 238 q 778 204 757 225 q 735 -3 751 122 q 438 0 626 0 q 78 -4 182 0 q 85 56 78 36 q 144 69 124 58 q 172 108 164 81 q 181 192 181 136 l 181 763 q 160 856 181 832 q 85 883 140 881 q 78 943 78 903 q 311 939 160 939 q 701 943 564 939 q 731 724 715 790 q 668 707 710 707 q 612 834 661 785 q 440 883 563 883 l 311 883 l 311 503 l 399 503 q 519 526 486 503 q 553 615 551 549 q 619 625 586 625 q 617 474 617 578 q 619 313 617 360 q 556 319 582 313 q 517 417 550 392 q 399 443 485 443 l 311 443 l 311 192 q 321 112 311 139 q 358 74 331 85 q 438 63 385 63 l 446 63 q 593 82 542 63 q 669 136 644 101 q 717 238 693 171 m 653 1118 q 640 1058 653 1090 q 147 1054 385 1058 q 151 1087 147 1067 q 160 1118 154 1107 l 653 1118 z "},"Ḗ":{"ha":835,"x_min":78,"x_max":778,"o":"m 717 238 q 778 204 757 225 q 735 -3 751 122 q 438 0 626 0 q 78 -4 182 0 q 85 56 78 36 q 144 69 124 58 q 172 108 164 81 q 181 192 181 136 l 181 763 q 160 856 181 832 q 85 883 140 881 q 78 943 78 903 q 311 939 160 939 q 701 943 564 939 q 731 724 715 790 q 668 707 710 707 q 612 834 661 785 q 440 883 563 883 l 311 883 l 311 503 l 399 503 q 519 526 486 503 q 553 615 551 549 q 619 625 586 625 q 617 474 617 578 q 619 313 617 360 q 556 319 582 313 q 517 417 550 392 q 399 443 485 443 l 311 443 l 311 192 q 321 112 311 139 q 358 74 331 85 q 438 63 385 63 l 446 63 q 593 82 542 63 q 669 136 644 101 q 717 238 693 171 m 653 1118 q 640 1058 653 1090 q 147 1054 385 1058 q 151 1087 147 1067 q 160 1118 154 1107 l 653 1118 m 410 1196 q 379 1197 393 1196 q 354 1203 365 1199 q 432 1389 404 1304 q 499 1399 471 1399 q 564 1388 535 1399 q 410 1196 486 1294 z "},"Ḕ":{"ha":835,"x_min":78,"x_max":778,"o":"m 717 238 q 778 204 757 225 q 735 -3 751 122 q 438 0 626 0 q 78 -4 182 0 q 85 56 78 36 q 144 69 124 58 q 172 108 164 81 q 181 192 181 136 l 181 763 q 160 856 181 832 q 85 883 140 881 q 78 943 78 903 q 311 939 160 939 q 701 943 564 939 q 731 724 715 790 q 668 707 710 707 q 612 834 661 785 q 440 883 563 883 l 311 883 l 311 503 l 399 503 q 519 526 486 503 q 553 615 551 549 q 619 625 586 625 q 617 474 617 578 q 619 313 617 360 q 556 319 582 313 q 517 417 550 392 q 399 443 485 443 l 311 443 l 311 192 q 321 112 311 139 q 358 74 331 85 q 438 63 385 63 l 446 63 q 593 82 542 63 q 669 136 644 101 q 717 238 693 171 m 653 1118 q 640 1058 653 1090 q 147 1054 385 1058 q 151 1087 147 1067 q 160 1118 154 1107 l 653 1118 m 390 1196 q 236 1374 310 1300 q 329 1392 272 1392 q 361 1390 350 1392 q 446 1203 408 1272 q 421 1197 435 1199 q 390 1196 407 1196 z "},"Ę":{"ha":835,"x_min":78,"x_max":778,"o":"m 661 -1 q 556 -68 592 -28 q 521 -151 521 -108 q 544 -206 521 -186 q 608 -226 567 -226 q 667 -215 639 -226 q 676 -269 678 -237 q 574 -343 622 -297 q 547 -346 565 -346 q 456 -315 500 -346 q 413 -211 413 -283 q 449 -101 413 -153 q 568 0 485 -50 l 438 0 q 78 -4 182 0 q 85 56 78 36 q 144 69 124 58 q 172 108 164 81 q 181 192 181 136 l 181 763 q 160 856 181 832 q 85 883 140 881 q 78 943 78 903 q 311 939 160 939 q 701 943 564 939 q 731 724 715 790 q 668 707 710 707 q 612 834 661 785 q 440 883 563 883 l 311 883 l 311 503 l 399 503 q 519 526 486 503 q 553 615 551 549 q 619 625 586 625 q 617 474 617 578 q 619 313 617 360 q 556 319 582 313 q 517 417 550 392 q 399 443 485 443 l 311 443 l 311 192 q 321 112 311 139 q 358 74 331 85 q 438 63 385 63 l 446 63 q 593 82 542 63 q 669 136 644 101 q 717 238 693 171 q 778 204 757 225 q 735 -3 751 122 l 661 -1 z "},"Ǝ":{"ha":835,"x_min":57,"x_max":757,"o":"m 654 192 q 663 108 654 136 q 691 69 671 81 q 750 56 711 58 q 757 -4 757 36 q 397 0 653 0 q 100 -3 208 0 q 57 204 83 122 q 118 238 78 225 q 166 136 142 171 q 242 82 190 101 q 389 63 293 63 l 397 63 q 477 74 450 63 q 514 112 504 85 q 524 192 524 139 l 524 443 l 436 443 q 317 417 350 443 q 279 319 285 392 q 215 313 253 313 q 218 474 218 360 q 215 625 218 578 q 282 615 249 625 q 316 526 283 549 q 436 503 349 503 l 524 503 l 524 883 l 394 883 q 223 834 272 883 q 167 707 174 785 q 104 724 125 707 q 133 943 119 790 q 524 939 271 939 q 757 943 675 939 q 750 883 757 903 q 674 856 694 881 q 654 763 654 832 l 654 192 z "},"Ẽ":{"ha":835,"x_min":78,"x_max":778,"o":"m 717 238 q 778 204 757 225 q 735 -3 751 122 q 438 0 626 0 q 78 -4 182 0 q 85 56 78 36 q 144 69 124 58 q 172 108 164 81 q 181 192 181 136 l 181 763 q 160 856 181 832 q 85 883 140 881 q 78 943 78 903 q 311 939 160 939 q 701 943 564 939 q 731 724 715 790 q 668 707 710 707 q 612 834 661 785 q 440 883 563 883 l 311 883 l 311 503 l 399 503 q 519 526 486 503 q 553 615 551 549 q 619 625 586 625 q 617 474 617 578 q 619 313 617 360 q 556 319 582 313 q 517 417 550 392 q 399 443 485 443 l 311 443 l 311 192 q 321 112 311 139 q 358 74 331 85 q 438 63 385 63 l 446 63 q 593 82 542 63 q 669 136 644 101 q 717 238 693 171 m 479 1039 q 435 1045 456 1039 q 383 1064 414 1051 q 332 1082 351 1076 q 292 1088 313 1088 q 193 1043 242 1088 q 175 1086 175 1057 q 329 1176 243 1176 q 431 1151 369 1176 q 475 1135 457 1140 q 511 1129 493 1129 q 589 1165 553 1129 q 625 1146 614 1161 q 479 1039 567 1039 z "},"Ʒ":{"ha":846,"x_min":85,"x_max":769,"o":"m 461 528 q 690 455 611 522 q 769 271 769 388 q 669 63 769 138 q 389 -12 569 -12 q 232 5 303 -12 q 94 57 161 22 q 94 161 96 103 q 85 265 92 219 q 165 274 118 274 q 228 108 176 161 q 388 54 279 54 q 559 107 499 54 q 619 253 619 160 q 539 417 619 360 q 314 474 458 474 q 299 531 299 504 q 560 883 426 676 l 365 883 q 263 870 300 883 q 203 819 226 857 q 167 706 181 781 q 88 719 110 706 q 107 824 100 763 q 114 942 114 885 q 453 939 228 939 q 719 942 621 939 q 735 896 735 924 q 461 528 607 701 z "},"Ǯ":{"ha":846,"x_min":85,"x_max":769,"o":"m 461 528 q 690 455 611 522 q 769 271 769 388 q 669 63 769 138 q 389 -12 569 -12 q 232 5 303 -12 q 94 57 161 22 q 94 161 96 103 q 85 265 92 219 q 165 274 118 274 q 228 108 176 161 q 388 54 279 54 q 559 107 499 54 q 619 253 619 160 q 539 417 619 360 q 314 474 458 474 q 299 531 299 504 q 560 883 426 676 l 365 883 q 263 870 300 883 q 203 819 226 857 q 167 706 181 781 q 88 719 110 706 q 107 824 100 763 q 114 942 114 885 q 453 939 228 939 q 719 942 621 939 q 735 896 735 924 q 461 528 607 701 m 372 1015 q 192 1188 297 1101 q 239 1219 207 1211 l 272 1200 q 408 1124 354 1149 q 501 1171 439 1138 q 593 1224 564 1204 q 615 1176 611 1214 q 514 1103 567 1144 q 421 1021 461 1061 q 372 1015 400 1015 z "},"F":{"ha":779,"x_min":78,"x_max":725,"o":"m 311 883 l 311 475 l 407 475 q 527 498 494 475 q 561 588 560 521 q 628 597 594 597 q 625 446 625 550 q 628 285 625 332 q 564 292 590 285 q 526 390 558 364 q 407 415 493 415 l 311 415 l 311 204 q 324 113 311 144 q 362 70 336 82 q 435 56 388 58 q 442 -4 442 36 q 267 0 378 0 q 78 -4 132 0 q 85 56 78 36 q 160 83 140 58 q 181 176 181 107 l 181 763 q 160 856 181 832 q 85 883 140 881 q 78 943 78 903 q 310 939 169 939 q 696 943 558 939 q 725 724 710 790 q 663 707 704 707 q 606 834 656 785 q 435 883 557 883 l 311 883 z "},"G":{"ha":1015,"x_min":49,"x_max":925,"o":"m 506 -12 q 266 49 369 -12 q 106 222 163 110 q 49 482 49 335 q 117 737 49 631 q 295 897 185 843 q 531 951 406 951 q 714 934 628 951 q 864 886 800 917 q 849 671 849 807 q 775 658 815 658 q 710 844 771 793 q 542 894 650 894 q 350 842 428 894 q 234 702 272 789 q 196 513 196 615 q 234 280 196 383 q 348 116 272 176 q 533 56 424 56 q 610 60 578 56 q 674 78 642 65 q 710 110 700 89 q 721 182 721 132 l 721 251 q 713 345 721 318 q 682 381 706 372 q 601 390 658 389 q 593 454 593 411 q 763 450 646 450 q 925 453 867 450 q 917 390 925 413 q 874 380 886 389 q 856 343 861 371 q 851 251 851 315 l 851 189 q 855 134 851 157 q 869 92 858 111 q 712 16 806 44 q 506 -12 618 -12 z "},"Ğ":{"ha":1015,"x_min":49,"x_max":925,"o":"m 506 -12 q 266 49 369 -12 q 106 222 163 110 q 49 482 49 335 q 117 737 49 631 q 295 897 185 843 q 531 951 406 951 q 714 934 628 951 q 864 886 800 917 q 849 671 849 807 q 775 658 815 658 q 710 844 771 793 q 542 894 650 894 q 350 842 428 894 q 234 702 272 789 q 196 513 196 615 q 234 280 196 383 q 348 116 272 176 q 533 56 424 56 q 610 60 578 56 q 674 78 642 65 q 710 110 700 89 q 721 182 721 132 l 721 251 q 713 345 721 318 q 682 381 706 372 q 601 390 658 389 q 593 454 593 411 q 763 450 646 450 q 925 453 867 450 q 917 390 925 413 q 874 380 886 389 q 856 343 861 371 q 851 251 851 315 l 851 189 q 855 134 851 157 q 869 92 858 111 q 712 16 806 44 q 506 -12 618 -12 m 731 1201 q 676 1060 731 1110 q 522 1011 622 1011 q 371 1059 424 1011 q 318 1196 318 1107 q 381 1208 346 1211 q 431 1129 389 1158 q 535 1100 472 1100 q 636 1129 597 1100 q 678 1208 675 1158 q 731 1201 710 1211 z "},"Ǧ":{"ha":1015,"x_min":49,"x_max":925,"o":"m 506 -12 q 266 49 369 -12 q 106 222 163 110 q 49 482 49 335 q 117 737 49 631 q 295 897 185 843 q 531 951 406 951 q 714 934 628 951 q 864 886 800 917 q 849 671 849 807 q 775 658 815 658 q 710 844 771 793 q 542 894 650 894 q 350 842 428 894 q 234 702 272 789 q 196 513 196 615 q 234 280 196 383 q 348 116 272 176 q 533 56 424 56 q 610 60 578 56 q 674 78 642 65 q 710 110 700 89 q 721 182 721 132 l 721 251 q 713 345 721 318 q 682 381 706 372 q 601 390 658 389 q 593 454 593 411 q 763 450 646 450 q 925 453 867 450 q 917 390 925 413 q 874 380 886 389 q 856 343 861 371 q 851 251 851 315 l 851 189 q 855 134 851 157 q 869 92 858 111 q 712 16 806 44 q 506 -12 618 -12 m 493 1015 q 313 1188 418 1101 q 360 1219 328 1211 l 393 1200 q 529 1124 475 1149 q 622 1171 560 1138 q 714 1224 685 1204 q 736 1176 732 1214 q 635 1103 688 1144 q 542 1021 582 1061 q 493 1015 521 1015 z "},"Ĝ":{"ha":1015,"x_min":49,"x_max":925,"o":"m 506 -12 q 266 49 369 -12 q 106 222 163 110 q 49 482 49 335 q 117 737 49 631 q 295 897 185 843 q 531 951 406 951 q 714 934 628 951 q 864 886 800 917 q 849 671 849 807 q 775 658 815 658 q 710 844 771 793 q 542 894 650 894 q 350 842 428 894 q 234 702 272 789 q 196 513 196 615 q 234 280 196 383 q 348 116 272 176 q 533 56 424 56 q 610 60 578 56 q 674 78 642 65 q 710 110 700 89 q 721 182 721 132 l 721 251 q 713 345 721 318 q 682 381 706 372 q 601 390 658 389 q 593 454 593 411 q 763 450 646 450 q 925 453 867 450 q 917 390 925 413 q 874 380 886 389 q 856 343 861 371 q 851 251 851 315 l 851 189 q 855 134 851 157 q 869 92 858 111 q 712 16 806 44 q 506 -12 618 -12 m 335 1011 q 313 1058 317 1021 q 414 1132 361 1090 q 507 1214 467 1174 q 556 1219 528 1219 q 736 1047 631 1133 q 689 1015 721 1024 l 656 1035 q 519 1111 574 1086 q 426 1064 489 1097 q 335 1011 364 1031 z "},"Ģ":{"ha":1015,"x_min":49,"x_max":925,"o":"m 506 -12 q 266 49 369 -12 q 106 222 163 110 q 49 482 49 335 q 117 737 49 631 q 295 897 185 843 q 531 951 406 951 q 714 934 628 951 q 864 886 800 917 q 849 671 849 807 q 775 658 815 658 q 710 844 771 793 q 542 894 650 894 q 350 842 428 894 q 234 702 272 789 q 196 513 196 615 q 234 280 196 383 q 348 116 272 176 q 533 56 424 56 q 610 60 578 56 q 674 78 642 65 q 710 110 700 89 q 721 182 721 132 l 721 251 q 713 345 721 318 q 682 381 706 372 q 601 390 658 389 q 593 454 593 411 q 763 450 646 450 q 925 453 867 450 q 917 390 925 413 q 874 380 886 389 q 856 343 861 371 q 851 251 851 315 l 851 189 q 855 134 851 157 q 869 92 858 111 q 712 16 806 44 q 506 -12 618 -12 m 553 -60 q 588 -94 576 -69 q 600 -153 600 -118 q 451 -389 600 -278 q 413 -360 424 -383 q 464 -293 446 -326 q 482 -235 482 -260 q 431 -185 482 -190 q 433 -144 429 -172 q 442 -101 436 -117 q 553 -60 508 -87 z "},"Ġ":{"ha":1015,"x_min":49,"x_max":925,"o":"m 506 -12 q 266 49 369 -12 q 106 222 163 110 q 49 482 49 335 q 117 737 49 631 q 295 897 185 843 q 531 951 406 951 q 714 934 628 951 q 864 886 800 917 q 849 671 849 807 q 775 658 815 658 q 710 844 771 793 q 542 894 650 894 q 350 842 428 894 q 234 702 272 789 q 196 513 196 615 q 234 280 196 383 q 348 116 272 176 q 533 56 424 56 q 610 60 578 56 q 674 78 642 65 q 710 110 700 89 q 721 182 721 132 l 721 251 q 713 345 721 318 q 682 381 706 372 q 601 390 658 389 q 593 454 593 411 q 763 450 646 450 q 925 453 867 450 q 917 390 925 413 q 874 380 886 389 q 856 343 861 371 q 851 251 851 315 l 851 189 q 855 134 851 157 q 869 92 858 111 q 712 16 806 44 q 506 -12 618 -12 z "},"Ḡ":{"ha":1015,"x_min":49,"x_max":925,"o":"m 506 -12 q 266 49 369 -12 q 106 222 163 110 q 49 482 49 335 q 117 737 49 631 q 295 897 185 843 q 531 951 406 951 q 714 934 628 951 q 864 886 800 917 q 849 671 849 807 q 775 658 815 658 q 710 844 771 793 q 542 894 650 894 q 350 842 428 894 q 234 702 272 789 q 196 513 196 615 q 234 280 196 383 q 348 116 272 176 q 533 56 424 56 q 610 60 578 56 q 674 78 642 65 q 710 110 700 89 q 721 182 721 132 l 721 251 q 713 345 721 318 q 682 381 706 372 q 601 390 658 389 q 593 454 593 411 q 763 450 646 450 q 925 453 867 450 q 917 390 925 413 q 874 380 886 389 q 856 343 861 371 q 851 251 851 315 l 851 189 q 855 134 851 157 q 869 92 858 111 q 712 16 806 44 q 506 -12 618 -12 m 778 1118 q 765 1058 778 1090 q 272 1054 510 1058 q 276 1087 272 1067 q 285 1118 279 1107 l 778 1118 z "},"Ǥ":{"ha":1015,"x_min":49,"x_max":972,"o":"m 958 197 q 851 199 918 199 l 851 189 q 855 134 851 157 q 869 92 858 111 q 712 16 806 44 q 506 -12 618 -12 q 266 49 369 -12 q 106 222 163 110 q 49 482 49 335 q 117 737 49 631 q 295 897 185 843 q 531 951 406 951 q 714 934 628 951 q 864 886 800 917 q 849 671 849 807 q 775 658 815 658 q 710 844 771 793 q 542 894 650 894 q 350 842 428 894 q 234 702 272 789 q 196 513 196 615 q 234 280 196 383 q 348 116 272 176 q 533 56 424 56 q 610 60 578 56 q 674 78 642 65 q 710 110 700 89 q 721 182 721 132 l 721 199 l 718 199 q 515 196 608 199 q 519 235 515 213 q 529 267 524 258 l 721 267 q 711 349 719 325 q 680 381 703 374 q 601 390 657 389 q 593 454 593 411 q 763 450 646 450 q 925 453 867 450 q 917 390 925 413 q 875 381 888 389 q 858 348 863 372 q 851 267 853 324 l 972 267 q 969 227 972 243 q 958 197 967 211 z "},"Ȝ":{"ha":814,"x_min":94,"x_max":738,"o":"m 458 429 q 658 356 579 425 q 738 146 738 288 q 685 -55 738 32 q 536 -190 632 -142 q 317 -237 440 -237 q 185 -220 242 -237 q 94 -175 128 -203 q 113 -129 94 -149 q 183 -156 128 -143 q 296 -168 239 -168 q 513 -87 432 -168 q 594 132 594 -7 q 539 304 594 244 q 383 364 483 364 q 242 332 306 364 q 225 404 225 361 q 422 478 351 436 q 519 572 493 521 q 546 688 546 622 q 497 838 546 786 q 357 889 447 889 q 240 846 282 889 q 181 697 199 803 l 164 696 q 111 706 146 696 q 115 794 115 750 q 110 886 115 846 q 226 935 157 918 q 371 951 294 951 q 608 883 526 951 q 689 703 689 815 q 634 547 689 614 q 458 429 579 479 z "},"H":{"ha":1046,"x_min":78,"x_max":968,"o":"m 865 176 q 885 83 865 107 q 961 56 906 58 q 968 -4 968 36 q 800 0 885 0 q 632 -4 703 0 q 639 56 632 36 q 715 83 694 58 q 735 176 735 107 l 735 451 q 311 443 417 451 l 311 176 q 331 83 311 107 q 407 56 351 58 q 414 -4 414 36 q 246 0 331 0 q 78 -4 149 0 q 85 56 78 36 q 160 83 140 58 q 181 176 181 107 l 181 763 q 160 856 181 832 q 85 883 140 881 q 78 943 78 903 q 246 939 154 939 q 414 943 331 939 q 407 883 414 903 q 331 856 351 881 q 311 763 311 832 l 311 511 l 735 511 l 735 763 q 715 856 735 832 q 639 883 694 881 q 632 943 632 903 q 800 939 708 939 q 968 943 885 939 q 961 883 968 903 q 885 856 906 881 q 865 763 865 832 l 865 176 z "},"Ħ":{"ha":1046,"x_min":78,"x_max":968,"o":"m 865 176 q 885 83 865 107 q 961 56 906 58 q 968 -4 968 36 q 800 0 885 0 q 632 -4 703 0 q 639 56 632 36 q 715 83 694 58 q 735 176 735 107 l 735 451 q 311 443 417 451 l 311 176 q 331 83 311 107 q 407 56 351 58 q 414 -4 414 36 q 246 0 331 0 q 78 -4 149 0 q 85 56 78 36 q 160 83 140 58 q 181 176 181 107 l 181 636 l 90 635 q 94 667 90 647 q 103 699 97 688 l 181 699 l 181 763 q 160 856 181 832 q 85 883 140 881 q 78 943 78 903 q 246 939 154 939 q 414 943 331 939 q 407 883 414 903 q 331 856 351 881 q 311 763 311 832 l 311 699 l 735 699 l 735 763 q 715 856 735 832 q 639 883 694 881 q 632 943 632 903 q 800 939 708 939 q 968 943 885 939 q 961 883 968 903 q 885 856 906 881 q 865 763 865 832 l 865 699 l 956 699 q 943 639 956 671 l 865 639 l 865 176 m 735 511 l 735 639 l 311 638 l 311 511 l 735 511 z "},"Ḫ":{"ha":1046,"x_min":78,"x_max":968,"o":"m 865 176 q 885 83 865 107 q 961 56 906 58 q 968 -4 968 36 q 800 0 885 0 q 632 -4 703 0 q 639 56 632 36 q 715 83 694 58 q 735 176 735 107 l 735 451 q 311 443 417 451 l 311 176 q 331 83 311 107 q 407 56 351 58 q 414 -4 414 36 q 246 0 331 0 q 78 -4 149 0 q 85 56 78 36 q 160 83 140 58 q 181 176 181 107 l 181 763 q 160 856 181 832 q 85 883 140 881 q 78 943 78 903 q 246 939 154 939 q 414 943 331 939 q 407 883 414 903 q 331 856 351 881 q 311 763 311 832 l 311 511 l 735 511 l 735 763 q 715 856 735 832 q 639 883 694 881 q 632 943 632 903 q 800 939 708 939 q 968 943 885 939 q 961 883 968 903 q 885 856 906 881 q 865 763 865 832 l 865 176 z "},"Ȟ":{"ha":1046,"x_min":78,"x_max":968,"o":"m 865 176 q 885 83 865 107 q 961 56 906 58 q 968 -4 968 36 q 800 0 885 0 q 632 -4 703 0 q 639 56 632 36 q 715 83 694 58 q 735 176 735 107 l 735 451 q 311 443 417 451 l 311 176 q 331 83 311 107 q 407 56 351 58 q 414 -4 414 36 q 246 0 331 0 q 78 -4 149 0 q 85 56 78 36 q 160 83 140 58 q 181 176 181 107 l 181 763 q 160 856 181 832 q 85 883 140 881 q 78 943 78 903 q 246 939 154 939 q 414 943 331 939 q 407 883 414 903 q 331 856 351 881 q 311 763 311 832 l 311 511 l 735 511 l 735 763 q 715 856 735 832 q 639 883 694 881 q 632 943 632 903 q 800 939 708 939 q 968 943 885 939 q 961 883 968 903 q 885 856 906 881 q 865 763 865 832 l 865 176 m 492 1015 q 311 1188 417 1101 q 358 1219 326 1211 l 392 1200 q 528 1124 474 1149 q 621 1171 558 1138 q 713 1224 683 1204 q 735 1176 731 1214 q 633 1103 686 1144 q 540 1021 581 1061 q 492 1015 519 1015 z "},"Ĥ":{"ha":1046,"x_min":78,"x_max":968,"o":"m 865 176 q 885 83 865 107 q 961 56 906 58 q 968 -4 968 36 q 800 0 885 0 q 632 -4 703 0 q 639 56 632 36 q 715 83 694 58 q 735 176 735 107 l 735 451 q 311 443 417 451 l 311 176 q 331 83 311 107 q 407 56 351 58 q 414 -4 414 36 q 246 0 331 0 q 78 -4 149 0 q 85 56 78 36 q 160 83 140 58 q 181 176 181 107 l 181 763 q 160 856 181 832 q 85 883 140 881 q 78 943 78 903 q 246 939 154 939 q 414 943 331 939 q 407 883 414 903 q 331 856 351 881 q 311 763 311 832 l 311 511 l 735 511 l 735 763 q 715 856 735 832 q 639 883 694 881 q 632 943 632 903 q 800 939 708 939 q 968 943 885 939 q 961 883 968 903 q 885 856 906 881 q 865 763 865 832 l 865 176 m 333 1011 q 311 1058 315 1021 q 413 1132 360 1090 q 506 1214 465 1174 q 554 1219 526 1219 q 735 1047 629 1133 q 688 1015 719 1024 l 654 1035 q 518 1111 572 1086 q 425 1064 488 1097 q 333 1011 363 1031 z "},"Ḥ":{"ha":1046,"x_min":78,"x_max":968,"o":"m 865 176 q 885 83 865 107 q 961 56 906 58 q 968 -4 968 36 q 800 0 885 0 q 632 -4 703 0 q 639 56 632 36 q 715 83 694 58 q 735 176 735 107 l 735 451 q 311 443 417 451 l 311 176 q 331 83 311 107 q 407 56 351 58 q 414 -4 414 36 q 246 0 331 0 q 78 -4 149 0 q 85 56 78 36 q 160 83 140 58 q 181 176 181 107 l 181 763 q 160 856 181 832 q 85 883 140 881 q 78 943 78 903 q 246 939 154 939 q 414 943 331 939 q 407 883 414 903 q 331 856 351 881 q 311 763 311 832 l 311 511 l 735 511 l 735 763 q 715 856 735 832 q 639 883 694 881 q 632 943 632 903 q 800 939 708 939 q 968 943 885 939 q 961 883 968 903 q 885 856 906 881 q 865 763 865 832 l 865 176 m 522 -292 q 464 -268 488 -292 q 440 -211 440 -244 q 465 -151 440 -175 q 522 -126 489 -126 q 583 -150 560 -126 q 606 -211 606 -174 q 581 -267 606 -243 q 522 -292 557 -292 z "},"I":{"ha":492,"x_min":78,"x_max":414,"o":"m 181 763 q 160 856 181 832 q 85 883 140 881 q 78 943 78 903 q 246 939 154 939 q 414 943 331 939 q 407 883 414 903 q 331 856 351 881 q 311 763 311 832 l 311 176 q 331 83 311 107 q 407 56 351 58 q 414 -4 414 36 q 246 0 331 0 q 78 -4 149 0 q 85 56 78 36 q 160 83 140 58 q 181 176 181 107 l 181 763 z "},"Ĳ":{"ha":839,"x_min":78,"x_max":782,"o":"m 181 763 q 160 856 181 832 q 85 883 140 881 q 78 943 78 903 q 246 939 154 939 q 414 943 331 939 q 407 883 414 903 q 331 856 351 881 q 311 763 311 832 l 311 176 q 331 83 311 107 q 407 56 351 58 q 414 -4 414 36 q 246 0 331 0 q 78 -4 149 0 q 85 56 78 36 q 160 83 140 58 q 181 176 181 107 l 181 763 m 679 174 q 660 -56 679 32 q 584 -212 642 -143 q 410 -346 526 -282 q 386 -310 390 -335 q 509 -159 469 -239 q 549 47 549 -79 l 549 763 q 528 856 549 832 q 453 883 508 881 q 446 943 446 903 q 614 939 507 939 q 782 943 732 939 q 775 883 782 903 q 700 856 721 881 q 679 763 679 831 l 679 174 z "},"Í":{"ha":492,"x_min":78,"x_max":414,"o":"m 181 763 q 160 856 181 832 q 85 883 140 881 q 78 943 78 903 q 246 939 154 939 q 414 943 331 939 q 407 883 414 903 q 331 856 351 881 q 311 763 311 832 l 311 176 q 331 83 311 107 q 407 56 351 58 q 414 -4 414 36 q 246 0 331 0 q 78 -4 149 0 q 85 56 78 36 q 160 83 140 58 q 181 176 181 107 l 181 763 m 256 1017 q 225 1018 239 1017 q 200 1024 211 1019 q 278 1210 250 1125 q 344 1219 317 1219 q 410 1208 381 1219 q 256 1017 332 1115 z "},"Ĭ":{"ha":492,"x_min":56,"x_max":435,"o":"m 243 994 q 103 1045 150 994 q 56 1192 56 1096 q 111 1204 81 1207 q 158 1115 122 1147 q 253 1083 194 1083 q 349 1116 313 1083 q 389 1204 385 1149 l 399 1204 q 435 1197 424 1204 q 386 1047 435 1099 q 243 994 338 994 m 181 763 q 160 856 181 832 q 85 883 140 881 q 78 943 78 903 q 246 939 154 939 q 414 943 331 939 q 407 883 414 903 q 331 856 351 881 q 311 763 311 832 l 311 176 q 331 83 311 107 q 407 56 351 58 q 414 -4 414 36 q 246 0 331 0 q 78 -4 149 0 q 85 56 78 36 q 160 83 140 58 q 181 176 181 107 l 181 763 z "},"Ǐ":{"ha":492,"x_min":64,"x_max":428,"o":"m 218 985 q 64 1181 168 1054 q 114 1207 78 1199 q 257 1093 185 1143 q 394 1211 319 1139 q 428 1164 424 1194 q 265 992 356 1097 q 218 985 236 985 m 181 763 q 160 856 181 832 q 85 883 140 881 q 78 943 78 903 q 246 939 154 939 q 414 943 331 939 q 407 883 414 903 q 331 856 351 881 q 311 763 311 832 l 311 176 q 331 83 311 107 q 407 56 351 58 q 414 -4 414 36 q 246 0 331 0 q 78 -4 149 0 q 85 56 78 36 q 160 83 140 58 q 181 176 181 107 l 181 763 z "},"Î":{"ha":492,"x_min":64,"x_max":428,"o":"m 97 986 q 64 1033 68 1000 q 226 1206 138 1100 q 274 1213 265 1213 q 428 1017 324 1143 q 378 990 414 999 q 235 1103 303 1058 q 97 986 167 1053 m 181 763 q 160 856 181 832 q 85 883 140 881 q 78 943 78 903 q 246 939 154 939 q 414 943 331 939 q 407 883 414 903 q 331 856 351 881 q 311 763 311 832 l 311 176 q 331 83 311 107 q 407 56 351 58 q 414 -4 414 36 q 246 0 331 0 q 78 -4 149 0 q 85 56 78 36 q 160 83 140 58 q 181 176 181 107 l 181 763 z "},"Ȉ":{"ha":492,"x_min":-7,"x_max":414,"o":"m 181 763 q 160 856 181 832 q 85 883 140 881 q 78 943 78 903 q 246 939 154 939 q 414 943 331 939 q 407 883 414 903 q 331 856 351 881 q 311 763 311 832 l 311 176 q 331 83 311 107 q 407 56 351 58 q 414 -4 414 36 q 246 0 331 0 q 78 -4 149 0 q 85 56 78 36 q 160 83 140 58 q 181 176 181 107 l 181 763 m 133 1003 q -7 1181 61 1107 q 86 1199 29 1199 q 118 1197 107 1199 q 189 1010 156 1083 q 164 1004 178 1006 q 133 1003 150 1003 m 329 1003 q 192 1181 254 1110 q 283 1199 226 1199 q 314 1197 304 1199 q 385 1010 351 1083 q 360 1004 374 1006 q 329 1003 346 1003 z "},"Ï":{"ha":492,"x_min":60,"x_max":431,"o":"m 139 1024 q 82 1042 104 1024 q 60 1090 60 1061 q 79 1144 60 1122 q 136 1165 99 1165 q 196 1145 176 1165 q 215 1093 215 1125 q 193 1043 215 1063 q 139 1024 171 1024 m 356 1025 q 295 1045 317 1025 q 274 1099 274 1065 q 295 1147 274 1129 q 351 1165 317 1165 q 408 1147 386 1165 q 431 1099 431 1128 q 413 1046 431 1067 q 356 1025 394 1025 m 181 763 q 160 856 181 832 q 85 883 140 881 q 78 943 78 903 q 246 939 154 939 q 414 943 331 939 q 407 883 414 903 q 331 856 351 881 q 311 763 311 832 l 311 176 q 331 83 311 107 q 407 56 351 58 q 414 -4 414 36 q 246 0 331 0 q 78 -4 149 0 q 85 56 78 36 q 160 83 140 58 q 181 176 181 107 l 181 763 z "},"Ḯ":{"ha":492,"x_min":60,"x_max":431,"o":"m 256 1214 q 225 1215 239 1214 q 200 1221 211 1217 q 278 1407 250 1322 q 344 1417 317 1417 q 410 1406 381 1417 q 256 1214 332 1313 m 139 1024 q 82 1042 104 1024 q 60 1090 60 1061 q 79 1144 60 1122 q 136 1165 99 1165 q 196 1145 176 1165 q 215 1093 215 1125 q 193 1043 215 1063 q 139 1024 171 1024 m 356 1025 q 295 1045 317 1025 q 274 1099 274 1065 q 295 1147 274 1129 q 351 1165 317 1165 q 408 1147 386 1165 q 431 1099 431 1128 q 413 1046 431 1067 q 356 1025 394 1025 m 181 763 q 160 856 181 832 q 85 883 140 881 q 78 943 78 903 q 246 939 154 939 q 414 943 331 939 q 407 883 414 903 q 331 856 351 881 q 311 763 311 832 l 311 176 q 331 83 311 107 q 407 56 351 58 q 414 -4 414 36 q 246 0 331 0 q 78 -4 149 0 q 85 56 78 36 q 160 83 140 58 q 181 176 181 107 l 181 763 z "},"İ":{"ha":492,"x_min":78,"x_max":414,"o":"m 181 763 q 160 856 181 832 q 85 883 140 881 q 78 943 78 903 q 246 939 154 939 q 414 943 331 939 q 407 883 414 903 q 331 856 351 881 q 311 763 311 832 l 311 176 q 331 83 311 107 q 407 56 351 58 q 414 -4 414 36 q 246 0 331 0 q 78 -4 149 0 q 85 56 78 36 q 160 83 140 58 q 181 176 181 107 l 181 763 z "},"Ị":{"ha":492,"x_min":78,"x_max":414,"o":"m 181 763 q 160 856 181 832 q 85 883 140 881 q 78 943 78 903 q 246 939 154 939 q 414 943 331 939 q 407 883 414 903 q 331 856 351 881 q 311 763 311 832 l 311 176 q 331 83 311 107 q 407 56 351 58 q 414 -4 414 36 q 246 0 331 0 q 78 -4 149 0 q 85 56 78 36 q 160 83 140 58 q 181 176 181 107 l 181 763 m 244 -292 q 186 -268 210 -292 q 163 -211 163 -244 q 187 -151 163 -175 q 244 -126 211 -126 q 305 -150 282 -126 q 328 -211 328 -174 q 303 -267 328 -243 q 244 -292 279 -292 z "},"Ì":{"ha":492,"x_min":78,"x_max":414,"o":"m 181 763 q 160 856 181 832 q 85 883 140 881 q 78 943 78 903 q 246 939 154 939 q 414 943 331 939 q 407 883 414 903 q 331 856 351 881 q 311 763 311 832 l 311 176 q 331 83 311 107 q 407 56 351 58 q 414 -4 414 36 q 246 0 331 0 q 78 -4 149 0 q 85 56 78 36 q 160 83 140 58 q 181 176 181 107 l 181 763 m 236 1017 q 82 1194 156 1121 q 175 1213 118 1213 q 207 1211 196 1213 q 292 1024 254 1093 q 267 1018 281 1019 q 236 1017 253 1017 z "},"Ỉ":{"ha":492,"x_min":78,"x_max":414,"o":"m 181 763 q 160 856 181 832 q 85 883 140 881 q 78 943 78 903 q 246 939 154 939 q 414 943 331 939 q 407 883 414 903 q 331 856 351 881 q 311 763 311 832 l 311 176 q 331 83 311 107 q 407 56 351 58 q 414 -4 414 36 q 246 0 331 0 q 78 -4 149 0 q 85 56 78 36 q 160 83 140 58 q 181 176 181 107 l 181 763 m 218 1008 q 200 1051 200 1031 q 212 1085 200 1072 q 249 1114 224 1099 q 278 1135 268 1125 q 288 1158 288 1146 q 246 1186 288 1186 q 199 1167 215 1186 q 178 1106 183 1149 q 113 1118 135 1106 q 117 1160 117 1143 q 113 1194 117 1176 q 171 1227 139 1215 q 251 1239 203 1239 q 344 1219 308 1239 q 379 1161 379 1199 q 363 1117 379 1135 q 315 1079 346 1100 q 282 1056 293 1065 q 271 1033 271 1046 q 274 1015 271 1026 q 218 1008 251 1008 z "},"Ȋ":{"ha":492,"x_min":56,"x_max":435,"o":"m 181 763 q 160 856 181 832 q 85 883 140 881 q 78 943 78 903 q 246 939 154 939 q 414 943 331 939 q 407 883 414 903 q 331 856 351 881 q 311 763 311 832 l 311 176 q 331 83 311 107 q 407 56 351 58 q 414 -4 414 36 q 246 0 331 0 q 78 -4 149 0 q 85 56 78 36 q 160 83 140 58 q 181 176 181 107 l 181 763 m 247 1204 q 388 1153 340 1204 q 435 1007 435 1103 q 379 994 410 992 q 332 1083 368 1051 q 238 1115 296 1115 q 142 1083 178 1115 q 101 994 106 1050 l 92 994 q 56 1001 67 994 q 104 1152 56 1100 q 247 1204 153 1204 z "},"Ī":{"ha":492,"x_min":63,"x_max":429,"o":"m 63 1050 q 66 1087 63 1065 q 75 1118 69 1108 l 429 1118 q 417 1056 429 1092 q 63 1050 229 1056 m 181 763 q 160 856 181 832 q 85 883 140 881 q 78 943 78 903 q 246 939 154 939 q 414 943 331 939 q 407 883 414 903 q 331 856 351 881 q 311 763 311 832 l 311 176 q 331 83 311 107 q 407 56 351 58 q 414 -4 414 36 q 246 0 331 0 q 78 -4 149 0 q 85 56 78 36 q 160 83 140 58 q 181 176 181 107 l 181 763 z "},"Į":{"ha":492,"x_min":78,"x_max":414,"o":"m 299 0 q 210 -147 210 -68 q 233 -206 210 -186 q 297 -226 256 -226 q 356 -215 328 -226 q 365 -269 367 -237 q 263 -343 311 -297 q 236 -346 254 -346 q 145 -314 189 -346 q 101 -210 101 -282 q 229 0 101 -100 q 78 -4 140 0 q 85 56 78 36 q 160 83 140 58 q 181 176 181 107 l 181 763 q 160 856 181 832 q 85 883 140 881 q 78 943 78 903 q 246 939 154 939 q 414 943 331 939 q 407 883 414 903 q 331 856 351 881 q 311 763 311 832 l 311 176 q 331 83 311 107 q 407 56 351 58 q 414 -4 414 36 l 299 0 z "},"Ĩ":{"ha":492,"x_min":44,"x_max":446,"o":"m 318 1018 q 274 1024 290 1018 q 233 1046 258 1031 q 205 1063 218 1057 q 172 1069 192 1069 q 67 1022 125 1069 q 44 1056 47 1035 q 192 1168 107 1168 q 231 1162 214 1168 q 268 1143 247 1156 q 301 1126 289 1132 q 332 1121 314 1121 q 373 1130 351 1121 q 413 1158 394 1139 q 446 1139 436 1153 q 394 1047 426 1075 q 318 1018 363 1018 m 181 763 q 160 856 181 832 q 85 883 140 881 q 78 943 78 903 q 246 939 154 939 q 414 943 331 939 q 407 883 414 903 q 331 856 351 881 q 311 763 311 832 l 311 176 q 331 83 311 107 q 407 56 351 58 q 414 -4 414 36 q 246 0 331 0 q 78 -4 149 0 q 85 56 78 36 q 160 83 140 58 q 181 176 181 107 l 181 763 z "},"J":{"ha":457,"x_min":4,"x_max":400,"o":"m 297 174 q 278 -56 297 32 q 202 -212 260 -143 q 28 -346 144 -282 q 4 -310 8 -335 q 127 -159 88 -239 q 167 47 167 -79 l 167 763 q 147 856 167 832 q 71 883 126 881 q 64 943 64 903 q 232 939 125 939 q 400 943 350 939 q 393 883 400 903 q 318 856 339 881 q 297 763 297 831 l 297 174 z "},"Ĵ":{"ha":457,"x_min":4,"x_max":414,"o":"m 83 986 q 50 1033 54 1000 q 213 1206 124 1100 q 260 1213 251 1213 q 414 1017 310 1143 q 364 990 400 999 q 221 1103 289 1058 q 83 986 153 1053 m 297 174 q 278 -56 297 32 q 202 -212 260 -143 q 28 -346 144 -282 q 4 -310 8 -335 q 127 -159 88 -239 q 167 47 167 -79 l 167 763 q 147 856 167 832 q 71 883 126 881 q 64 943 64 903 q 232 939 125 939 q 400 943 350 939 q 393 883 400 903 q 318 856 339 881 q 297 763 297 831 l 297 174 z "},"K":{"ha":942,"x_min":78,"x_max":911,"o":"m 701 197 q 767 119 742 144 q 825 78 792 93 q 911 60 858 63 q 904 0 911 25 q 683 -8 765 0 q 515 226 628 83 q 311 453 403 369 l 311 176 q 331 83 311 107 q 407 56 351 58 q 414 -4 414 36 q 246 0 331 0 q 78 -4 149 0 q 85 56 78 36 q 160 83 140 58 q 181 176 181 107 l 181 763 q 160 856 181 832 q 85 883 140 881 q 78 943 78 903 q 246 939 154 939 q 414 943 331 939 q 407 883 414 903 q 331 856 351 881 q 311 763 311 832 l 311 493 l 574 768 q 625 851 625 821 q 579 883 625 882 q 572 943 572 906 q 715 939 618 939 q 858 943 803 939 q 850 883 858 903 q 758 856 800 881 q 653 763 717 831 l 426 522 q 701 197 526 426 z "},"Ǩ":{"ha":942,"x_min":78,"x_max":911,"o":"m 701 197 q 767 119 742 144 q 825 78 792 93 q 911 60 858 63 q 904 0 911 25 q 683 -8 765 0 q 515 226 628 83 q 311 453 403 369 l 311 176 q 331 83 311 107 q 407 56 351 58 q 414 -4 414 36 q 246 0 331 0 q 78 -4 149 0 q 85 56 78 36 q 160 83 140 58 q 181 176 181 107 l 181 763 q 160 856 181 832 q 85 883 140 881 q 78 943 78 903 q 246 939 154 939 q 414 943 331 939 q 407 883 414 903 q 331 856 351 881 q 311 763 311 832 l 311 493 l 574 768 q 625 851 625 821 q 579 883 625 882 q 572 943 572 906 q 715 939 618 939 q 858 943 803 939 q 850 883 858 903 q 758 856 800 881 q 653 763 717 831 l 426 522 q 701 197 526 426 m 463 1015 q 282 1188 388 1101 q 329 1219 297 1211 l 363 1200 q 499 1124 444 1149 q 592 1171 529 1138 q 683 1224 654 1204 q 706 1176 701 1214 q 604 1103 657 1144 q 511 1021 551 1061 q 463 1015 490 1015 z "},"Ķ":{"ha":942,"x_min":78,"x_max":911,"o":"m 701 197 q 767 119 742 144 q 825 78 792 93 q 911 60 858 63 q 904 0 911 25 q 683 -8 765 0 q 515 226 628 83 q 311 453 403 369 l 311 176 q 331 83 311 107 q 407 56 351 58 q 414 -4 414 36 q 246 0 331 0 q 78 -4 149 0 q 85 56 78 36 q 160 83 140 58 q 181 176 181 107 l 181 763 q 160 856 181 832 q 85 883 140 881 q 78 943 78 903 q 246 939 154 939 q 414 943 331 939 q 407 883 414 903 q 331 856 351 881 q 311 763 311 832 l 311 493 l 574 768 q 625 851 625 821 q 579 883 625 882 q 572 943 572 906 q 715 939 618 939 q 858 943 803 939 q 850 883 858 903 q 758 856 800 881 q 653 763 717 831 l 426 522 q 701 197 526 426 m 506 -60 q 541 -94 529 -69 q 553 -153 553 -118 q 404 -389 553 -278 q 365 -360 376 -383 q 417 -293 399 -326 q 435 -235 435 -260 q 383 -185 435 -190 q 385 -144 382 -172 q 394 -101 389 -117 q 506 -60 461 -87 z "},"L":{"ha":778,"x_min":78,"x_max":750,"o":"m 446 63 q 567 79 522 63 q 638 132 611 96 q 689 238 664 168 q 750 204 729 225 q 707 -3 724 122 q 438 0 599 0 q 78 -4 182 0 q 85 56 78 36 q 144 69 124 58 q 173 109 164 81 q 182 192 182 138 l 182 763 q 162 856 182 832 q 86 883 142 881 q 79 943 79 903 q 247 939 160 939 q 415 943 332 939 q 408 883 415 903 q 349 870 369 881 q 321 833 329 860 q 313 758 313 807 l 313 192 q 322 111 313 138 q 358 74 332 85 q 438 63 385 63 l 446 63 z "},"Ǉ":{"ha":1235,"x_min":78,"x_max":1178,"o":"m 446 63 q 567 79 522 63 q 638 132 611 96 q 689 238 664 168 q 750 204 729 225 q 707 -3 724 122 q 438 0 599 0 q 78 -4 182 0 q 85 56 78 36 q 144 69 124 58 q 173 109 164 81 q 182 192 182 138 l 182 763 q 162 856 182 832 q 86 883 142 881 q 79 943 79 903 q 247 939 160 939 q 415 943 332 939 q 408 883 415 903 q 349 870 369 881 q 321 833 329 860 q 313 758 313 807 l 313 192 q 322 111 313 138 q 358 74 332 85 q 438 63 385 63 l 446 63 m 1075 174 q 1056 -56 1075 32 q 980 -212 1038 -143 q 806 -346 922 -282 q 782 -310 786 -335 q 905 -159 865 -239 q 944 47 944 -79 l 944 763 q 924 856 944 832 q 849 883 904 881 q 842 943 842 903 q 1010 939 903 939 q 1178 943 1128 939 q 1171 883 1178 903 q 1096 856 1117 881 q 1075 763 1075 831 l 1075 174 z "},"Ĺ":{"ha":778,"x_min":78,"x_max":750,"o":"m 446 63 q 567 79 522 63 q 638 132 611 96 q 689 238 664 168 q 750 204 729 225 q 707 -3 724 122 q 438 0 599 0 q 78 -4 182 0 q 85 56 78 36 q 144 69 124 58 q 173 109 164 81 q 182 192 182 138 l 182 763 q 162 856 182 832 q 86 883 142 881 q 79 943 79 903 q 247 939 160 939 q 415 943 332 939 q 408 883 415 903 q 349 870 369 881 q 321 833 329 860 q 313 758 313 807 l 313 192 q 322 111 313 138 q 358 74 332 85 q 438 63 385 63 l 446 63 m 257 1017 q 226 1018 240 1017 q 201 1024 213 1019 q 279 1210 251 1125 q 346 1219 318 1219 q 411 1208 382 1219 q 257 1017 333 1115 z "},"Ľ":{"ha":778,"x_min":78,"x_max":750,"o":"m 446 63 q 567 79 522 63 q 638 132 611 96 q 689 238 664 168 q 750 204 729 225 q 707 -3 724 122 q 438 0 599 0 q 78 -4 182 0 q 85 56 78 36 q 144 69 124 58 q 173 109 164 81 q 182 192 182 138 l 182 763 q 162 856 182 832 q 86 883 142 881 q 79 943 79 903 q 247 939 160 939 q 415 943 332 939 q 408 883 415 903 q 349 870 369 881 q 321 833 329 860 q 313 758 313 807 l 313 192 q 322 111 313 138 q 358 74 332 85 q 438 63 385 63 l 446 63 m 728 893 q 703 764 728 821 q 625 646 678 707 q 594 651 610 646 q 569 664 578 656 q 614 737 604 711 q 624 799 624 763 q 558 868 624 860 q 561 910 558 885 q 569 951 564 936 q 681 993 636 965 q 728 893 728 975 z "},"Ļ":{"ha":778,"x_min":78,"x_max":750,"o":"m 446 63 q 567 79 522 63 q 638 132 611 96 q 689 238 664 168 q 750 204 729 225 q 707 -3 724 122 q 438 0 599 0 q 78 -4 182 0 q 85 56 78 36 q 144 69 124 58 q 173 109 164 81 q 182 192 182 138 l 182 763 q 162 856 182 832 q 86 883 142 881 q 79 943 79 903 q 247 939 160 939 q 415 943 332 939 q 408 883 415 903 q 349 870 369 881 q 321 833 329 860 q 313 758 313 807 l 313 192 q 322 111 313 138 q 358 74 332 85 q 438 63 385 63 l 446 63 m 438 -60 q 473 -94 461 -69 q 485 -153 485 -118 q 336 -389 485 -278 q 297 -360 308 -383 q 349 -293 331 -326 q 367 -235 367 -260 q 315 -185 367 -190 q 317 -144 314 -172 q 326 -101 321 -117 q 438 -60 393 -87 z "},"Ŀ":{"ha":778,"x_min":78,"x_max":750,"o":"m 446 63 q 567 79 522 63 q 638 132 611 96 q 689 238 664 168 q 750 204 729 225 q 707 -3 724 122 q 438 0 599 0 q 78 -4 182 0 q 85 56 78 36 q 144 69 124 58 q 173 109 164 81 q 182 192 182 138 l 182 763 q 162 856 182 832 q 86 883 142 881 q 79 943 79 903 q 247 939 160 939 q 415 943 332 939 q 408 883 415 903 q 349 870 369 881 q 321 833 329 860 q 313 758 313 807 l 313 192 q 322 111 313 138 q 358 74 332 85 q 438 63 385 63 l 446 63 m 635 419 q 576 440 597 419 q 556 493 556 460 q 579 549 556 526 q 640 572 603 572 q 695 549 674 572 q 717 500 717 526 q 693 440 717 461 q 635 419 669 419 z "},"Ḷ":{"ha":778,"x_min":78,"x_max":750,"o":"m 446 63 q 567 79 522 63 q 638 132 611 96 q 689 238 664 168 q 750 204 729 225 q 707 -3 724 122 q 438 0 599 0 q 78 -4 182 0 q 85 56 78 36 q 144 69 124 58 q 173 109 164 81 q 182 192 182 138 l 182 763 q 162 856 182 832 q 86 883 142 881 q 79 943 79 903 q 247 939 160 939 q 415 943 332 939 q 408 883 415 903 q 349 870 369 881 q 321 833 329 860 q 313 758 313 807 l 313 192 q 322 111 313 138 q 358 74 332 85 q 438 63 385 63 l 446 63 m 401 -292 q 343 -268 367 -292 q 319 -211 319 -244 q 344 -151 319 -175 q 401 -126 368 -126 q 462 -150 439 -126 q 485 -211 485 -174 q 460 -267 485 -243 q 401 -292 436 -292 z "},"ǈ":{"ha":1171,"x_min":78,"x_max":1067,"o":"m 446 63 q 567 79 522 63 q 638 132 611 96 q 689 238 664 168 q 750 204 729 225 q 707 -3 724 122 q 438 0 599 0 q 78 -4 182 0 q 85 56 78 36 q 144 69 124 58 q 173 109 164 81 q 182 192 182 138 l 182 763 q 162 856 182 832 q 86 883 142 881 q 79 943 79 903 q 247 939 160 939 q 415 943 332 939 q 408 883 415 903 q 349 870 369 881 q 321 833 329 860 q 313 758 313 807 l 313 192 q 322 111 313 138 q 358 74 332 85 q 438 63 385 63 l 446 63 m 983 806 q 925 829 949 806 q 901 886 901 853 q 926 947 901 922 q 983 971 950 971 q 1044 947 1021 971 q 1067 886 1067 924 q 1042 830 1067 854 q 983 806 1018 806 m 826 -346 q 796 -307 800 -332 q 903 -147 875 -217 q 932 26 932 -76 l 932 451 q 925 508 932 488 q 896 540 918 529 q 828 550 874 550 q 840 601 828 582 q 939 617 875 601 q 1026 649 1003 632 q 1057 593 1057 639 l 1057 46 q 990 -191 1057 -92 q 826 -346 924 -290 z "},"Ḻ":{"ha":778,"x_min":78,"x_max":750,"o":"m 446 63 q 567 79 522 63 q 638 132 611 96 q 689 238 664 168 q 750 204 729 225 q 707 -3 724 122 q 438 0 599 0 q 78 -4 182 0 q 85 56 78 36 q 144 69 124 58 q 173 109 164 81 q 182 192 182 138 l 182 763 q 162 856 182 832 q 86 883 142 881 q 79 943 79 903 q 247 939 160 939 q 415 943 332 939 q 408 883 415 903 q 349 870 369 881 q 321 833 329 860 q 313 758 313 807 l 313 192 q 322 111 313 138 q 358 74 332 85 q 438 63 385 63 l 446 63 m 150 -229 q 153 -197 150 -217 q 163 -165 157 -176 l 656 -165 q 643 -225 656 -194 q 150 -229 388 -225 z "},"Ł":{"ha":778,"x_min":40,"x_max":750,"o":"m 689 238 q 750 204 729 225 q 707 -3 724 122 q 438 0 599 0 q 78 -4 182 0 q 85 56 78 36 q 144 69 124 58 q 173 109 164 81 q 182 192 182 138 l 182 374 l 69 294 q 48 330 56 311 q 40 360 40 349 l 182 458 l 182 763 q 162 856 182 832 q 86 883 142 881 q 79 943 79 903 q 247 939 160 939 q 415 943 332 939 q 408 883 415 903 q 349 870 369 881 q 321 833 329 860 q 313 758 313 807 l 313 528 l 431 611 q 449 581 440 600 q 460 547 457 561 l 313 444 l 313 192 q 322 111 313 138 q 358 74 332 85 q 438 63 385 63 l 446 63 q 567 79 522 63 q 638 132 611 96 q 689 238 664 168 z "},"M":{"ha":1293,"x_min":49,"x_max":1244,"o":"m 1238 57 q 1244 -4 1244 33 q 1078 0 1181 0 q 908 -4 979 0 q 917 56 908 29 q 988 79 969 61 q 1006 146 1006 97 q 1001 215 1006 174 l 951 692 l 664 -3 q 607 -12 640 -12 l 283 690 l 239 244 q 235 172 235 203 q 256 84 235 108 q 329 56 278 60 q 336 -4 336 32 q 188 0 269 0 q 49 -4 106 0 q 56 56 49 32 q 115 75 94 60 q 148 131 136 90 q 168 257 160 172 l 213 751 q 214 785 214 764 q 192 861 214 839 q 119 883 169 883 q 113 943 113 906 q 218 939 154 939 q 324 943 269 939 l 671 175 l 974 943 q 1082 939 1021 939 q 1188 943 1132 939 q 1181 883 1188 910 q 1109 860 1133 883 q 1085 778 1085 836 q 1086 743 1085 756 l 1136 233 q 1154 127 1143 164 q 1185 75 1165 90 q 1238 57 1204 60 z "},"Ṃ":{"ha":1293,"x_min":49,"x_max":1244,"o":"m 1238 57 q 1244 -4 1244 33 q 1078 0 1181 0 q 908 -4 979 0 q 917 56 908 29 q 988 79 969 61 q 1006 146 1006 97 q 1001 215 1006 174 l 951 692 l 664 -3 q 607 -12 640 -12 l 283 690 l 239 244 q 235 172 235 203 q 256 84 235 108 q 329 56 278 60 q 336 -4 336 32 q 188 0 269 0 q 49 -4 106 0 q 56 56 49 32 q 115 75 94 60 q 148 131 136 90 q 168 257 160 172 l 213 751 q 214 785 214 764 q 192 861 214 839 q 119 883 169 883 q 113 943 113 906 q 218 939 154 939 q 324 943 269 939 l 671 175 l 974 943 q 1082 939 1021 939 q 1188 943 1132 939 q 1181 883 1188 910 q 1109 860 1133 883 q 1085 778 1085 836 q 1086 743 1085 756 l 1136 233 q 1154 127 1143 164 q 1185 75 1165 90 q 1238 57 1204 60 m 632 -292 q 574 -268 597 -292 q 550 -211 550 -244 q 574 -151 550 -175 q 632 -126 599 -126 q 692 -150 669 -126 q 715 -211 715 -174 q 691 -267 715 -243 q 632 -292 667 -292 z "},"N":{"ha":1031,"x_min":78,"x_max":974,"o":"m 842 939 q 974 943 917 939 q 967 883 974 908 q 917 865 935 883 q 892 805 900 847 q 885 686 885 763 l 885 0 q 825 -8 863 -8 l 251 740 l 251 260 q 260 136 251 179 q 289 74 268 93 q 347 56 310 56 q 354 -4 354 35 q 217 0 292 0 q 78 -4 131 0 q 85 56 78 35 q 143 74 122 56 q 172 136 164 93 q 181 260 181 179 l 181 833 l 175 840 q 138 872 156 864 q 85 883 121 881 q 78 943 78 908 q 181 939 119 939 q 274 943 236 939 l 814 226 l 814 686 q 806 806 814 764 q 776 865 797 847 q 718 883 756 883 q 711 943 711 924 q 842 939 771 939 z "},"Ǌ":{"ha":1488,"x_min":78,"x_max":1431,"o":"m 842 939 q 974 943 917 939 q 967 883 974 908 q 917 865 935 883 q 892 805 900 847 q 885 686 885 763 l 885 0 q 825 -8 863 -8 l 251 740 l 251 260 q 260 136 251 179 q 289 74 268 93 q 347 56 310 56 q 354 -4 354 35 q 217 0 292 0 q 78 -4 131 0 q 85 56 78 35 q 143 74 122 56 q 172 136 164 93 q 181 260 181 179 l 181 833 l 175 840 q 138 872 156 864 q 85 883 121 881 q 78 943 78 908 q 181 939 119 939 q 274 943 236 939 l 814 226 l 814 686 q 806 806 814 764 q 776 865 797 847 q 718 883 756 883 q 711 943 711 924 q 842 939 771 939 m 1328 174 q 1309 -56 1328 32 q 1233 -212 1290 -143 q 1058 -346 1175 -282 q 1035 -310 1039 -335 q 1158 -159 1118 -239 q 1197 47 1197 -79 l 1197 763 q 1177 856 1197 832 q 1101 883 1157 881 q 1094 943 1094 903 q 1263 939 1156 939 q 1431 943 1381 939 q 1424 883 1431 903 q 1349 856 1369 881 q 1328 763 1328 831 l 1328 174 z "},"Ń":{"ha":1031,"x_min":78,"x_max":974,"o":"m 842 939 q 974 943 917 939 q 967 883 974 908 q 917 865 935 883 q 892 805 900 847 q 885 686 885 763 l 885 0 q 825 -8 863 -8 l 251 740 l 251 260 q 260 136 251 179 q 289 74 268 93 q 347 56 310 56 q 354 -4 354 35 q 217 0 292 0 q 78 -4 131 0 q 85 56 78 35 q 143 74 122 56 q 172 136 164 93 q 181 260 181 179 l 181 833 l 175 840 q 138 872 156 864 q 85 883 121 881 q 78 943 78 908 q 181 939 119 939 q 274 943 236 939 l 814 226 l 814 686 q 806 806 814 764 q 776 865 797 847 q 718 883 756 883 q 711 943 711 924 q 842 939 771 939 m 532 1017 q 501 1018 515 1017 q 476 1024 488 1019 q 554 1210 526 1125 q 621 1219 593 1219 q 686 1208 657 1219 q 532 1017 608 1115 z "},"Ň":{"ha":1031,"x_min":78,"x_max":974,"o":"m 842 939 q 974 943 917 939 q 967 883 974 908 q 917 865 935 883 q 892 805 900 847 q 885 686 885 763 l 885 0 q 825 -8 863 -8 l 251 740 l 251 260 q 260 136 251 179 q 289 74 268 93 q 347 56 310 56 q 354 -4 354 35 q 217 0 292 0 q 78 -4 131 0 q 85 56 78 35 q 143 74 122 56 q 172 136 164 93 q 181 260 181 179 l 181 833 l 175 840 q 138 872 156 864 q 85 883 121 881 q 78 943 78 908 q 181 939 119 939 q 274 943 236 939 l 814 226 l 814 686 q 806 806 814 764 q 776 865 797 847 q 718 883 756 883 q 711 943 711 924 q 842 939 771 939 m 490 1015 q 310 1188 415 1101 q 357 1219 325 1211 l 390 1200 q 526 1124 472 1149 q 619 1171 557 1138 q 711 1224 682 1204 q 733 1176 729 1214 q 632 1103 685 1144 q 539 1021 579 1061 q 490 1015 518 1015 z "},"Ņ":{"ha":1031,"x_min":78,"x_max":974,"o":"m 842 939 q 974 943 917 939 q 967 883 974 908 q 917 865 935 883 q 892 805 900 847 q 885 686 885 763 l 885 0 q 825 -8 863 -8 l 251 740 l 251 260 q 260 136 251 179 q 289 74 268 93 q 347 56 310 56 q 354 -4 354 35 q 217 0 292 0 q 78 -4 131 0 q 85 56 78 35 q 143 74 122 56 q 172 136 164 93 q 181 260 181 179 l 181 833 l 175 840 q 138 872 156 864 q 85 883 121 881 q 78 943 78 908 q 181 939 119 939 q 274 943 236 939 l 814 226 l 814 686 q 806 806 814 764 q 776 865 797 847 q 718 883 756 883 q 711 943 711 924 q 842 939 771 939 m 588 -60 q 623 -94 611 -69 q 635 -153 635 -118 q 486 -389 635 -278 q 447 -360 458 -383 q 499 -293 481 -326 q 517 -235 517 -260 q 465 -185 517 -190 q 467 -144 464 -172 q 476 -101 471 -117 q 588 -60 543 -87 z "},"Ṅ":{"ha":1031,"x_min":78,"x_max":974,"o":"m 842 939 q 974 943 917 939 q 967 883 974 908 q 917 865 935 883 q 892 805 900 847 q 885 686 885 763 l 885 0 q 825 -8 863 -8 l 251 740 l 251 260 q 260 136 251 179 q 289 74 268 93 q 347 56 310 56 q 354 -4 354 35 q 217 0 292 0 q 78 -4 131 0 q 85 56 78 35 q 143 74 122 56 q 172 136 164 93 q 181 260 181 179 l 181 833 l 175 840 q 138 872 156 864 q 85 883 121 881 q 78 943 78 908 q 181 939 119 939 q 274 943 236 939 l 814 226 l 814 686 q 806 806 814 764 q 776 865 797 847 q 718 883 756 883 q 711 943 711 924 q 842 939 771 939 z "},"Ṇ":{"ha":1031,"x_min":78,"x_max":974,"o":"m 842 939 q 974 943 917 939 q 967 883 974 908 q 917 865 935 883 q 892 805 900 847 q 885 686 885 763 l 885 0 q 825 -8 863 -8 l 251 740 l 251 260 q 260 136 251 179 q 289 74 268 93 q 347 56 310 56 q 354 -4 354 35 q 217 0 292 0 q 78 -4 131 0 q 85 56 78 35 q 143 74 122 56 q 172 136 164 93 q 181 260 181 179 l 181 833 l 175 840 q 138 872 156 864 q 85 883 121 881 q 78 943 78 908 q 181 939 119 939 q 274 943 236 939 l 814 226 l 814 686 q 806 806 814 764 q 776 865 797 847 q 718 883 756 883 q 711 943 711 924 q 842 939 771 939 m 551 -292 q 493 -268 517 -292 q 469 -211 469 -244 q 494 -151 469 -175 q 551 -126 518 -126 q 612 -150 589 -126 q 635 -211 635 -174 q 610 -267 635 -243 q 551 -292 586 -292 z "},"Ŋ":{"ha":921,"x_min":78,"x_max":843,"o":"m 579 -346 q 479 -314 521 -346 q 475 -271 475 -297 q 481 -212 475 -240 q 568 -221 529 -221 q 662 -194 631 -221 q 703 -115 693 -168 q 713 36 713 -61 l 713 633 q 543 858 713 858 q 378 785 444 858 q 313 571 313 711 l 313 176 q 333 83 313 107 q 408 56 353 58 q 415 -4 415 36 q 247 0 332 0 q 79 -4 150 0 q 86 56 79 36 q 162 83 142 58 q 182 176 182 107 l 182 753 q 174 809 182 789 q 144 840 167 829 q 78 851 122 850 q 90 903 78 883 q 190 919 133 906 q 282 950 246 933 q 305 930 297 944 q 313 883 313 915 q 303 765 313 851 l 304 765 q 414 895 332 847 q 589 943 496 943 q 772 872 700 943 q 843 661 843 801 l 843 111 q 812 -110 843 -4 q 721 -281 781 -215 q 579 -346 661 -346 z "},"Ɲ":{"ha":1031,"x_min":-101,"x_max":974,"o":"m 842 939 q 974 943 917 939 q 967 883 974 908 q 917 865 935 883 q 892 805 900 847 q 885 686 885 763 l 885 -6 q 828 -12 865 -12 l 251 740 l 251 56 q 224 -145 251 -54 q 140 -291 196 -236 q 4 -346 85 -346 q -97 -314 -56 -346 q -101 -271 -101 -297 q -96 -212 -101 -240 q -11 -221 -49 -221 q 132 -155 83 -221 q 181 50 181 -89 l 181 833 l 175 840 q 138 872 156 864 q 85 883 121 881 q 78 943 78 908 q 181 939 119 939 q 274 943 236 939 l 814 226 l 814 686 q 806 806 814 764 q 776 865 797 847 q 718 883 756 883 q 711 943 711 924 q 842 939 771 939 z "},"ǋ":{"ha":1424,"x_min":78,"x_max":1319,"o":"m 842 939 q 974 943 917 939 q 967 883 974 908 q 917 865 935 883 q 892 805 900 847 q 885 686 885 763 l 885 0 q 825 -8 863 -8 l 251 740 l 251 260 q 260 136 251 179 q 289 74 268 93 q 347 56 310 56 q 354 -4 354 35 q 217 0 292 0 q 78 -4 131 0 q 85 56 78 35 q 143 74 122 56 q 172 136 164 93 q 181 260 181 179 l 181 833 l 175 840 q 138 872 156 864 q 85 883 121 881 q 78 943 78 908 q 181 939 119 939 q 274 943 236 939 l 814 226 l 814 686 q 806 806 814 764 q 776 865 797 847 q 718 883 756 883 q 711 943 711 924 q 842 939 771 939 m 1236 806 q 1178 829 1201 806 q 1154 886 1154 853 q 1178 947 1154 922 q 1236 971 1203 971 q 1297 947 1274 971 q 1319 886 1319 924 q 1295 830 1319 854 q 1236 806 1271 806 m 1079 -346 q 1049 -307 1053 -332 q 1156 -147 1128 -217 q 1185 26 1185 -76 l 1185 451 q 1178 508 1185 488 q 1149 540 1171 529 q 1081 550 1126 550 q 1093 601 1081 582 q 1192 617 1128 601 q 1279 649 1256 632 q 1310 593 1310 639 l 1310 46 q 1243 -191 1310 -92 q 1079 -346 1176 -290 z "},"Ṉ":{"ha":1031,"x_min":78,"x_max":974,"o":"m 842 939 q 974 943 917 939 q 967 883 974 908 q 917 865 935 883 q 892 805 900 847 q 885 686 885 763 l 885 0 q 825 -8 863 -8 l 251 740 l 251 260 q 260 136 251 179 q 289 74 268 93 q 347 56 310 56 q 354 -4 354 35 q 217 0 292 0 q 78 -4 131 0 q 85 56 78 35 q 143 74 122 56 q 172 136 164 93 q 181 260 181 179 l 181 833 l 175 840 q 138 872 156 864 q 85 883 121 881 q 78 943 78 908 q 181 939 119 939 q 274 943 236 939 l 814 226 l 814 686 q 806 806 814 764 q 776 865 797 847 q 718 883 756 883 q 711 943 711 924 q 842 939 771 939 m 300 -229 q 303 -197 300 -217 q 313 -165 307 -176 l 806 -165 q 793 -225 806 -194 q 300 -229 538 -225 z "},"Ñ":{"ha":1031,"x_min":78,"x_max":974,"o":"m 842 939 q 974 943 917 939 q 967 883 974 908 q 917 865 935 883 q 892 805 900 847 q 885 686 885 763 l 885 0 q 825 -8 863 -8 l 251 740 l 251 260 q 260 136 251 179 q 289 74 268 93 q 347 56 310 56 q 354 -4 354 35 q 217 0 292 0 q 78 -4 131 0 q 85 56 78 35 q 143 74 122 56 q 172 136 164 93 q 181 260 181 179 l 181 833 l 175 840 q 138 872 156 864 q 85 883 121 881 q 78 943 78 908 q 181 939 119 939 q 274 943 236 939 l 814 226 l 814 686 q 806 806 814 764 q 776 865 797 847 q 718 883 756 883 q 711 943 711 924 q 842 939 771 939 m 601 1039 q 557 1045 578 1039 q 506 1064 536 1051 q 454 1082 474 1076 q 414 1088 435 1088 q 315 1043 364 1088 q 297 1086 297 1057 q 451 1176 365 1176 q 553 1151 492 1176 q 597 1135 579 1140 q 633 1129 615 1129 q 711 1165 675 1129 q 747 1146 736 1161 q 601 1039 689 1039 z "},"O":{"ha":1015,"x_min":49,"x_max":967,"o":"m 507 -12 q 268 51 372 -12 q 106 224 164 114 q 49 472 49 335 q 109 720 49 611 q 274 890 169 829 q 507 951 379 951 q 744 891 639 951 q 908 722 849 831 q 967 472 967 613 q 908 226 967 336 q 744 51 849 115 q 507 -12 639 -12 m 535 56 q 688 106 622 56 q 789 242 754 156 q 824 436 824 329 q 778 663 824 560 q 654 825 733 765 q 478 885 575 885 q 331 838 396 885 q 228 706 265 790 q 192 510 192 621 q 233 286 192 390 q 351 119 274 182 q 535 56 429 56 z "},"Ó":{"ha":1015,"x_min":49,"x_max":967,"o":"m 507 -12 q 268 51 372 -12 q 106 224 164 114 q 49 472 49 335 q 109 720 49 611 q 274 890 169 829 q 507 951 379 951 q 744 891 639 951 q 908 722 849 831 q 967 472 967 613 q 908 226 967 336 q 744 51 849 115 q 507 -12 639 -12 m 535 56 q 688 106 622 56 q 789 242 754 156 q 824 436 824 329 q 778 663 824 560 q 654 825 733 765 q 478 885 575 885 q 331 838 396 885 q 228 706 265 790 q 192 510 192 621 q 233 286 192 390 q 351 119 274 182 q 535 56 429 56 m 518 1017 q 488 1018 501 1017 q 463 1024 474 1019 q 540 1210 513 1125 q 607 1219 579 1219 q 672 1208 643 1219 q 518 1017 594 1115 z "},"Ŏ":{"ha":1015,"x_min":49,"x_max":967,"o":"m 507 -12 q 268 51 372 -12 q 106 224 164 114 q 49 472 49 335 q 109 720 49 611 q 274 890 169 829 q 507 951 379 951 q 744 891 639 951 q 908 722 849 831 q 967 472 967 613 q 908 226 967 336 q 744 51 849 115 q 507 -12 639 -12 m 535 56 q 688 106 622 56 q 789 242 754 156 q 824 436 824 329 q 778 663 824 560 q 654 825 733 765 q 478 885 575 885 q 331 838 396 885 q 228 706 265 790 q 192 510 192 621 q 233 286 192 390 q 351 119 274 182 q 535 56 429 56 m 714 1201 q 660 1060 714 1110 q 506 1011 606 1011 q 354 1059 407 1011 q 301 1196 301 1107 q 364 1208 329 1211 q 414 1129 372 1158 q 518 1100 456 1100 q 619 1129 581 1100 q 661 1208 658 1158 q 714 1201 693 1211 z "},"Ǒ":{"ha":1015,"x_min":49,"x_max":967,"o":"m 507 -12 q 268 51 372 -12 q 106 224 164 114 q 49 472 49 335 q 109 720 49 611 q 274 890 169 829 q 507 951 379 951 q 744 891 639 951 q 908 722 849 831 q 967 472 967 613 q 908 226 967 336 q 744 51 849 115 q 507 -12 639 -12 m 535 56 q 688 106 622 56 q 789 242 754 156 q 824 436 824 329 q 778 663 824 560 q 654 825 733 765 q 478 885 575 885 q 331 838 396 885 q 228 706 265 790 q 192 510 192 621 q 233 286 192 390 q 351 119 274 182 q 535 56 429 56 m 476 1015 q 296 1188 401 1101 q 343 1219 311 1211 l 376 1200 q 513 1124 458 1149 q 606 1171 543 1138 q 697 1224 668 1204 q 719 1176 715 1214 q 618 1103 671 1144 q 525 1021 565 1061 q 476 1015 504 1015 z "},"Ô":{"ha":1015,"x_min":49,"x_max":967,"o":"m 507 -12 q 268 51 372 -12 q 106 224 164 114 q 49 472 49 335 q 109 720 49 611 q 274 890 169 829 q 507 951 379 951 q 744 891 639 951 q 908 722 849 831 q 967 472 967 613 q 908 226 967 336 q 744 51 849 115 q 507 -12 639 -12 m 535 56 q 688 106 622 56 q 789 242 754 156 q 824 436 824 329 q 778 663 824 560 q 654 825 733 765 q 478 885 575 885 q 331 838 396 885 q 228 706 265 790 q 192 510 192 621 q 233 286 192 390 q 351 119 274 182 q 535 56 429 56 m 318 1011 q 296 1058 300 1021 q 397 1132 344 1090 q 490 1214 450 1174 q 539 1219 511 1219 q 719 1047 614 1133 q 672 1015 704 1024 l 639 1035 q 503 1111 557 1086 q 410 1064 472 1097 q 318 1011 347 1031 z "},"Ố":{"ha":1015,"x_min":49,"x_max":967,"o":"m 507 -12 q 268 51 372 -12 q 106 224 164 114 q 49 472 49 335 q 109 720 49 611 q 274 890 169 829 q 507 951 379 951 q 744 891 639 951 q 908 722 849 831 q 967 472 967 613 q 908 226 967 336 q 744 51 849 115 q 507 -12 639 -12 m 535 56 q 688 106 622 56 q 789 242 754 156 q 824 436 824 329 q 778 663 824 560 q 654 825 733 765 q 478 885 575 885 q 331 838 396 885 q 228 706 265 790 q 192 510 192 621 q 233 286 192 390 q 351 119 274 182 q 535 56 429 56 m 706 1181 q 676 1182 690 1181 q 653 1188 663 1183 q 726 1363 694 1269 q 789 1371 768 1371 q 850 1361 821 1371 q 706 1181 764 1257 m 318 1011 q 296 1058 300 1021 q 397 1132 344 1090 q 490 1214 450 1174 q 539 1219 511 1219 q 719 1047 614 1133 q 672 1015 704 1024 l 639 1035 q 503 1111 557 1086 q 410 1064 472 1097 q 318 1011 347 1031 z "},"Ộ":{"ha":1015,"x_min":49,"x_max":967,"o":"m 507 -12 q 268 51 372 -12 q 106 224 164 114 q 49 472 49 335 q 109 720 49 611 q 274 890 169 829 q 507 951 379 951 q 744 891 639 951 q 908 722 849 831 q 967 472 967 613 q 908 226 967 336 q 744 51 849 115 q 507 -12 639 -12 m 535 56 q 688 106 622 56 q 789 242 754 156 q 824 436 824 329 q 778 663 824 560 q 654 825 733 765 q 478 885 575 885 q 331 838 396 885 q 228 706 265 790 q 192 510 192 621 q 233 286 192 390 q 351 119 274 182 q 535 56 429 56 m 507 -292 q 449 -268 472 -292 q 425 -211 425 -244 q 449 -151 425 -175 q 507 -126 474 -126 q 567 -150 544 -126 q 590 -211 590 -174 q 566 -267 590 -243 q 507 -292 542 -292 m 318 1011 q 296 1058 300 1021 q 397 1132 344 1090 q 490 1214 450 1174 q 539 1219 511 1219 q 719 1047 614 1133 q 672 1015 704 1024 l 639 1035 q 503 1111 557 1086 q 410 1064 472 1097 q 318 1011 347 1031 z "},"Ồ":{"ha":1015,"x_min":49,"x_max":967,"o":"m 507 -12 q 268 51 372 -12 q 106 224 164 114 q 49 472 49 335 q 109 720 49 611 q 274 890 169 829 q 507 951 379 951 q 744 891 639 951 q 908 722 849 831 q 967 472 967 613 q 908 226 967 336 q 744 51 849 115 q 507 -12 639 -12 m 535 56 q 688 106 622 56 q 789 242 754 156 q 824 436 824 329 q 778 663 824 560 q 654 825 733 765 q 478 885 575 885 q 331 838 396 885 q 228 706 265 790 q 192 510 192 621 q 233 286 192 390 q 351 119 274 182 q 535 56 429 56 z "},"Ổ":{"ha":1015,"x_min":49,"x_max":967,"o":"m 507 -12 q 268 51 372 -12 q 106 224 164 114 q 49 472 49 335 q 109 720 49 611 q 274 890 169 829 q 507 951 379 951 q 744 891 639 951 q 908 722 849 831 q 967 472 967 613 q 908 226 967 336 q 744 51 849 115 q 507 -12 639 -12 m 535 56 q 688 106 622 56 q 789 242 754 156 q 824 436 824 329 q 778 663 824 560 q 654 825 733 765 q 478 885 575 885 q 331 838 396 885 q 228 706 265 790 q 192 510 192 621 q 233 286 192 390 q 351 119 274 182 q 535 56 429 56 m 318 1011 q 296 1058 300 1021 q 397 1132 344 1090 q 490 1214 450 1174 q 539 1219 511 1219 q 719 1047 614 1133 q 672 1015 704 1024 l 639 1035 q 503 1111 557 1086 q 410 1064 472 1097 q 318 1011 347 1031 m 661 1200 q 643 1243 643 1222 q 655 1277 643 1264 q 692 1306 667 1290 q 721 1327 711 1317 q 731 1350 731 1338 q 689 1378 731 1378 q 642 1359 658 1378 q 621 1297 626 1340 q 556 1310 578 1297 q 560 1351 560 1335 q 556 1386 560 1368 q 614 1419 582 1407 q 694 1431 646 1431 q 787 1410 751 1431 q 822 1353 822 1390 q 806 1309 822 1326 q 758 1271 789 1292 q 725 1247 736 1257 q 714 1225 714 1238 q 717 1207 714 1218 q 661 1200 694 1200 z "},"Ỗ":{"ha":1015,"x_min":49,"x_max":967,"o":"m 507 -12 q 268 51 372 -12 q 106 224 164 114 q 49 472 49 335 q 109 720 49 611 q 274 890 169 829 q 507 951 379 951 q 744 891 639 951 q 908 722 849 831 q 967 472 967 613 q 908 226 967 336 q 744 51 849 115 q 507 -12 639 -12 m 535 56 q 688 106 622 56 q 789 242 754 156 q 824 436 824 329 q 778 663 824 560 q 654 825 733 765 q 478 885 575 885 q 331 838 396 885 q 228 706 265 790 q 192 510 192 621 q 233 286 192 390 q 351 119 274 182 q 535 56 429 56 m 318 1011 q 296 1058 300 1021 q 397 1132 344 1090 q 490 1214 450 1174 q 539 1219 511 1219 q 719 1047 614 1133 q 672 1015 704 1024 l 639 1035 q 503 1111 557 1086 q 410 1064 472 1097 q 318 1011 347 1031 m 588 1292 q 543 1298 564 1292 q 492 1317 522 1304 q 440 1335 460 1329 q 400 1340 421 1340 q 301 1296 350 1340 q 283 1339 283 1310 q 438 1429 351 1429 q 539 1404 478 1429 q 583 1388 565 1393 q 619 1382 601 1382 q 697 1418 661 1382 q 733 1399 722 1414 q 588 1292 675 1292 z "},"Ȍ":{"ha":1015,"x_min":49,"x_max":967,"o":"m 507 -12 q 268 51 372 -12 q 106 224 164 114 q 49 472 49 335 q 109 720 49 611 q 274 890 169 829 q 507 951 379 951 q 744 891 639 951 q 908 722 849 831 q 967 472 967 613 q 908 226 967 336 q 744 51 849 115 q 507 -12 639 -12 m 535 56 q 688 106 622 56 q 789 242 754 156 q 824 436 824 329 q 778 663 824 560 q 654 825 733 765 q 478 885 575 885 q 331 838 396 885 q 228 706 265 790 q 192 510 192 621 q 233 286 192 390 q 351 119 274 182 q 535 56 429 56 m 390 1003 q 236 1181 310 1107 q 329 1199 272 1199 q 361 1197 350 1199 q 446 1010 408 1079 q 421 1004 435 1006 q 390 1003 407 1003 m 599 1003 q 444 1181 518 1107 q 538 1199 481 1199 q 569 1197 558 1199 q 654 1010 617 1079 q 629 1004 643 1006 q 599 1003 615 1003 z "},"Ö":{"ha":1015,"x_min":49,"x_max":967,"o":"m 507 -12 q 268 51 372 -12 q 106 224 164 114 q 49 472 49 335 q 109 720 49 611 q 274 890 169 829 q 507 951 379 951 q 744 891 639 951 q 908 722 849 831 q 967 472 967 613 q 908 226 967 336 q 744 51 849 115 q 507 -12 639 -12 m 535 56 q 688 106 622 56 q 789 242 754 156 q 824 436 824 329 q 778 663 824 560 q 654 825 733 765 q 478 885 575 885 q 331 838 396 885 q 228 706 265 790 q 192 510 192 621 q 233 286 192 390 q 351 119 274 182 q 535 56 429 56 z "},"Ȫ":{"ha":1015,"x_min":49,"x_max":967,"o":"m 507 -12 q 268 51 372 -12 q 106 224 164 114 q 49 472 49 335 q 109 720 49 611 q 274 890 169 829 q 507 951 379 951 q 744 891 639 951 q 908 722 849 831 q 967 472 967 613 q 908 226 967 336 q 744 51 849 115 q 507 -12 639 -12 m 535 56 q 688 106 622 56 q 789 242 754 156 q 824 436 824 329 q 778 663 824 560 q 654 825 733 765 q 478 885 575 885 q 331 838 396 885 q 228 706 265 790 q 192 510 192 621 q 233 286 192 390 q 351 119 274 182 q 535 56 429 56 m 761 1332 q 749 1272 761 1304 q 256 1268 493 1272 q 259 1301 256 1281 q 268 1332 263 1321 l 761 1332 z "},"Ȱ":{"ha":1015,"x_min":49,"x_max":967,"o":"m 507 -12 q 268 51 372 -12 q 106 224 164 114 q 49 472 49 335 q 109 720 49 611 q 274 890 169 829 q 507 951 379 951 q 744 891 639 951 q 908 722 849 831 q 967 472 967 613 q 908 226 967 336 q 744 51 849 115 q 507 -12 639 -12 m 535 56 q 688 106 622 56 q 789 242 754 156 q 824 436 824 329 q 778 663 824 560 q 654 825 733 765 q 478 885 575 885 q 331 838 396 885 q 228 706 265 790 q 192 510 192 621 q 233 286 192 390 q 351 119 274 182 q 535 56 429 56 m 761 1289 q 749 1229 761 1261 q 256 1225 493 1229 q 259 1258 256 1238 q 268 1289 263 1278 l 761 1289 z "},"Ọ":{"ha":1015,"x_min":49,"x_max":967,"o":"m 507 -12 q 268 51 372 -12 q 106 224 164 114 q 49 472 49 335 q 109 720 49 611 q 274 890 169 829 q 507 951 379 951 q 744 891 639 951 q 908 722 849 831 q 967 472 967 613 q 908 226 967 336 q 744 51 849 115 q 507 -12 639 -12 m 535 56 q 688 106 622 56 q 789 242 754 156 q 824 436 824 329 q 778 663 824 560 q 654 825 733 765 q 478 885 575 885 q 331 838 396 885 q 228 706 265 790 q 192 510 192 621 q 233 286 192 390 q 351 119 274 182 q 535 56 429 56 m 507 -292 q 449 -268 472 -292 q 425 -211 425 -244 q 449 -151 425 -175 q 507 -126 474 -126 q 567 -150 544 -126 q 590 -211 590 -174 q 566 -267 590 -243 q 507 -292 542 -292 z "},"Ò":{"ha":1015,"x_min":49,"x_max":967,"o":"m 507 -12 q 268 51 372 -12 q 106 224 164 114 q 49 472 49 335 q 109 720 49 611 q 274 890 169 829 q 507 951 379 951 q 744 891 639 951 q 908 722 849 831 q 967 472 967 613 q 908 226 967 336 q 744 51 849 115 q 507 -12 639 -12 m 535 56 q 688 106 622 56 q 789 242 754 156 q 824 436 824 329 q 778 663 824 560 q 654 825 733 765 q 478 885 575 885 q 331 838 396 885 q 228 706 265 790 q 192 510 192 621 q 233 286 192 390 q 351 119 274 182 q 535 56 429 56 m 499 1017 q 344 1194 418 1121 q 438 1213 381 1213 q 469 1211 458 1213 q 554 1024 517 1093 q 529 1018 543 1019 q 499 1017 515 1017 z "},"Ỏ":{"ha":1015,"x_min":49,"x_max":967,"o":"m 507 -12 q 268 51 372 -12 q 106 224 164 114 q 49 472 49 335 q 109 720 49 611 q 274 890 169 829 q 507 951 379 951 q 744 891 639 951 q 908 722 849 831 q 967 472 967 613 q 908 226 967 336 q 744 51 849 115 q 507 -12 639 -12 m 535 56 q 688 106 622 56 q 789 242 754 156 q 824 436 824 329 q 778 663 824 560 q 654 825 733 765 q 478 885 575 885 q 331 838 396 885 q 228 706 265 790 q 192 510 192 621 q 233 286 192 390 q 351 119 274 182 q 535 56 429 56 m 481 1008 q 463 1051 463 1031 q 474 1085 463 1072 q 511 1114 486 1099 q 540 1135 531 1125 q 550 1158 550 1146 q 508 1186 550 1186 q 462 1167 478 1186 q 440 1106 446 1149 q 375 1118 397 1106 q 379 1160 379 1143 q 375 1194 379 1176 q 433 1227 401 1215 q 514 1239 465 1239 q 606 1219 571 1239 q 642 1161 642 1199 q 625 1117 642 1135 q 578 1079 608 1100 q 544 1056 556 1065 q 533 1033 533 1046 q 536 1015 533 1026 q 481 1008 514 1008 z "},"Ơ":{"ha":1015,"x_min":49,"x_max":967,"o":"m 768 875 q 914 708 861 813 q 967 472 967 603 q 908 226 967 336 q 744 51 849 115 q 507 -12 639 -12 q 268 51 372 -12 q 106 224 164 114 q 49 472 49 335 q 109 720 49 611 q 274 890 169 829 q 507 951 379 951 q 626 943 554 951 q 724 935 690 935 q 822 956 789 935 q 854 1036 854 976 q 846 1101 854 1067 q 908 1115 876 1115 q 928 1114 921 1115 q 957 1029 957 1075 q 903 920 957 963 q 768 875 849 878 m 535 56 q 688 106 622 56 q 789 242 754 156 q 824 436 824 329 q 778 663 824 560 q 654 825 733 765 q 478 885 575 885 q 331 838 396 885 q 228 706 265 790 q 192 510 192 621 q 233 286 192 390 q 351 119 274 182 q 535 56 429 56 z "},"Ớ":{"ha":1015,"x_min":49,"x_max":967,"o":"m 768 875 q 914 708 861 813 q 967 472 967 603 q 908 226 967 336 q 744 51 849 115 q 507 -12 639 -12 q 268 51 372 -12 q 106 224 164 114 q 49 472 49 335 q 109 720 49 611 q 274 890 169 829 q 507 951 379 951 q 626 943 554 951 q 724 935 690 935 q 822 956 789 935 q 854 1036 854 976 q 846 1101 854 1067 q 908 1115 876 1115 q 928 1114 921 1115 q 957 1029 957 1075 q 903 920 957 963 q 768 875 849 878 m 535 56 q 688 106 622 56 q 789 242 754 156 q 824 436 824 329 q 778 663 824 560 q 654 825 733 765 q 478 885 575 885 q 331 838 396 885 q 228 706 265 790 q 192 510 192 621 q 233 286 192 390 q 351 119 274 182 q 535 56 429 56 m 518 1017 q 488 1018 501 1017 q 463 1024 474 1019 q 540 1210 513 1125 q 607 1219 579 1219 q 672 1208 643 1219 q 518 1017 594 1115 z "},"Ợ":{"ha":1015,"x_min":49,"x_max":967,"o":"m 768 875 q 914 708 861 813 q 967 472 967 603 q 908 226 967 336 q 744 51 849 115 q 507 -12 639 -12 q 268 51 372 -12 q 106 224 164 114 q 49 472 49 335 q 109 720 49 611 q 274 890 169 829 q 507 951 379 951 q 626 943 554 951 q 724 935 690 935 q 822 956 789 935 q 854 1036 854 976 q 846 1101 854 1067 q 908 1115 876 1115 q 928 1114 921 1115 q 957 1029 957 1075 q 903 920 957 963 q 768 875 849 878 m 535 56 q 688 106 622 56 q 789 242 754 156 q 824 436 824 329 q 778 663 824 560 q 654 825 733 765 q 478 885 575 885 q 331 838 396 885 q 228 706 265 790 q 192 510 192 621 q 233 286 192 390 q 351 119 274 182 q 535 56 429 56 m 507 -292 q 449 -268 472 -292 q 425 -211 425 -244 q 449 -151 425 -175 q 507 -126 474 -126 q 567 -150 544 -126 q 590 -211 590 -174 q 566 -267 590 -243 q 507 -292 542 -292 z "},"Ờ":{"ha":1015,"x_min":49,"x_max":967,"o":"m 768 875 q 914 708 861 813 q 967 472 967 603 q 908 226 967 336 q 744 51 849 115 q 507 -12 639 -12 q 268 51 372 -12 q 106 224 164 114 q 49 472 49 335 q 109 720 49 611 q 274 890 169 829 q 507 951 379 951 q 626 943 554 951 q 724 935 690 935 q 822 956 789 935 q 854 1036 854 976 q 846 1101 854 1067 q 908 1115 876 1115 q 928 1114 921 1115 q 957 1029 957 1075 q 903 920 957 963 q 768 875 849 878 m 535 56 q 688 106 622 56 q 789 242 754 156 q 824 436 824 329 q 778 663 824 560 q 654 825 733 765 q 478 885 575 885 q 331 838 396 885 q 228 706 265 790 q 192 510 192 621 q 233 286 192 390 q 351 119 274 182 q 535 56 429 56 m 499 1017 q 344 1194 418 1121 q 438 1213 381 1213 q 469 1211 458 1213 q 554 1024 517 1093 q 529 1018 543 1019 q 499 1017 515 1017 z "},"Ở":{"ha":1015,"x_min":49,"x_max":967,"o":"m 768 875 q 914 708 861 813 q 967 472 967 603 q 908 226 967 336 q 744 51 849 115 q 507 -12 639 -12 q 268 51 372 -12 q 106 224 164 114 q 49 472 49 335 q 109 720 49 611 q 274 890 169 829 q 507 951 379 951 q 626 943 554 951 q 724 935 690 935 q 822 956 789 935 q 854 1036 854 976 q 846 1101 854 1067 q 908 1115 876 1115 q 928 1114 921 1115 q 957 1029 957 1075 q 903 920 957 963 q 768 875 849 878 m 535 56 q 688 106 622 56 q 789 242 754 156 q 824 436 824 329 q 778 663 824 560 q 654 825 733 765 q 478 885 575 885 q 331 838 396 885 q 228 706 265 790 q 192 510 192 621 q 233 286 192 390 q 351 119 274 182 q 535 56 429 56 m 481 1008 q 463 1051 463 1031 q 474 1085 463 1072 q 511 1114 486 1099 q 540 1135 531 1125 q 550 1158 550 1146 q 508 1186 550 1186 q 462 1167 478 1186 q 440 1106 446 1149 q 375 1118 397 1106 q 379 1160 379 1143 q 375 1194 379 1176 q 433 1227 401 1215 q 514 1239 465 1239 q 606 1219 571 1239 q 642 1161 642 1199 q 625 1117 642 1135 q 578 1079 608 1100 q 544 1056 556 1065 q 533 1033 533 1046 q 536 1015 533 1026 q 481 1008 514 1008 z "},"Ỡ":{"ha":1015,"x_min":49,"x_max":967,"o":"m 768 875 q 914 708 861 813 q 967 472 967 603 q 908 226 967 336 q 744 51 849 115 q 507 -12 639 -12 q 268 51 372 -12 q 106 224 164 114 q 49 472 49 335 q 109 720 49 611 q 274 890 169 829 q 507 951 379 951 q 626 943 554 951 q 724 935 690 935 q 822 956 789 935 q 854 1036 854 976 q 846 1101 854 1067 q 908 1115 876 1115 q 928 1114 921 1115 q 957 1029 957 1075 q 903 920 957 963 q 768 875 849 878 m 535 56 q 688 106 622 56 q 789 242 754 156 q 824 436 824 329 q 778 663 824 560 q 654 825 733 765 q 478 885 575 885 q 331 838 396 885 q 228 706 265 790 q 192 510 192 621 q 233 286 192 390 q 351 119 274 182 q 535 56 429 56 m 588 1039 q 543 1045 564 1039 q 492 1064 522 1051 q 440 1082 460 1076 q 400 1088 421 1088 q 301 1043 350 1088 q 283 1086 283 1057 q 438 1176 351 1176 q 539 1151 478 1176 q 583 1135 565 1140 q 619 1129 601 1129 q 697 1165 661 1129 q 733 1146 722 1161 q 588 1039 675 1039 z "},"Ő":{"ha":1015,"x_min":49,"x_max":967,"o":"m 507 -12 q 268 51 372 -12 q 106 224 164 114 q 49 472 49 335 q 109 720 49 611 q 274 890 169 829 q 507 951 379 951 q 744 891 639 951 q 908 722 849 831 q 967 472 967 613 q 908 226 967 336 q 744 51 849 115 q 507 -12 639 -12 m 535 56 q 688 106 622 56 q 789 242 754 156 q 824 436 824 329 q 778 663 824 560 q 654 825 733 765 q 478 885 575 885 q 331 838 396 885 q 228 706 265 790 q 192 510 192 621 q 233 286 192 390 q 351 119 274 182 q 535 56 429 56 m 400 1017 q 350 1036 372 1017 q 421 1206 390 1118 q 517 1222 465 1222 q 564 1213 544 1222 q 400 1017 481 1125 m 622 1017 q 572 1036 594 1017 q 643 1206 613 1118 q 739 1222 688 1222 q 786 1213 767 1222 q 622 1017 694 1114 z "},"Ȏ":{"ha":1015,"x_min":49,"x_max":967,"o":"m 507 -12 q 268 51 372 -12 q 106 224 164 114 q 49 472 49 335 q 109 720 49 611 q 274 890 169 829 q 507 951 379 951 q 744 891 639 951 q 908 722 849 831 q 967 472 967 613 q 908 226 967 336 q 744 51 849 115 q 507 -12 639 -12 m 535 56 q 688 106 622 56 q 789 242 754 156 q 824 436 824 329 q 778 663 824 560 q 654 825 733 765 q 478 885 575 885 q 331 838 396 885 q 228 706 265 790 q 192 510 192 621 q 233 286 192 390 q 351 119 274 182 q 535 56 429 56 m 301 1018 q 356 1159 301 1110 q 510 1208 410 1208 q 661 1160 608 1208 q 714 1024 714 1113 q 651 1011 686 1008 q 601 1090 643 1061 q 497 1119 560 1119 q 396 1090 435 1119 q 354 1011 357 1061 q 301 1018 322 1008 z "},"Ō":{"ha":1015,"x_min":49,"x_max":967,"o":"m 507 -12 q 268 51 372 -12 q 106 224 164 114 q 49 472 49 335 q 109 720 49 611 q 274 890 169 829 q 507 951 379 951 q 744 891 639 951 q 908 722 849 831 q 967 472 967 613 q 908 226 967 336 q 744 51 849 115 q 507 -12 639 -12 m 535 56 q 688 106 622 56 q 789 242 754 156 q 824 436 824 329 q 778 663 824 560 q 654 825 733 765 q 478 885 575 885 q 331 838 396 885 q 228 706 265 790 q 192 510 192 621 q 233 286 192 390 q 351 119 274 182 q 535 56 429 56 m 761 1118 q 749 1058 761 1090 q 256 1054 493 1058 q 259 1087 256 1067 q 268 1118 263 1107 l 761 1118 z "},"Ṓ":{"ha":1015,"x_min":49,"x_max":967,"o":"m 507 -12 q 268 51 372 -12 q 106 224 164 114 q 49 472 49 335 q 109 720 49 611 q 274 890 169 829 q 507 951 379 951 q 744 891 639 951 q 908 722 849 831 q 967 472 967 613 q 908 226 967 336 q 744 51 849 115 q 507 -12 639 -12 m 535 56 q 688 106 622 56 q 789 242 754 156 q 824 436 824 329 q 778 663 824 560 q 654 825 733 765 q 478 885 575 885 q 331 838 396 885 q 228 706 265 790 q 192 510 192 621 q 233 286 192 390 q 351 119 274 182 q 535 56 429 56 m 761 1118 q 749 1058 761 1090 q 256 1054 493 1058 q 259 1087 256 1067 q 268 1118 263 1107 l 761 1118 m 518 1196 q 488 1197 501 1196 q 463 1203 474 1199 q 540 1389 513 1304 q 607 1399 579 1399 q 672 1388 643 1399 q 518 1196 594 1294 z "},"Ṑ":{"ha":1015,"x_min":49,"x_max":967,"o":"m 507 -12 q 268 51 372 -12 q 106 224 164 114 q 49 472 49 335 q 109 720 49 611 q 274 890 169 829 q 507 951 379 951 q 744 891 639 951 q 908 722 849 831 q 967 472 967 613 q 908 226 967 336 q 744 51 849 115 q 507 -12 639 -12 m 535 56 q 688 106 622 56 q 789 242 754 156 q 824 436 824 329 q 778 663 824 560 q 654 825 733 765 q 478 885 575 885 q 331 838 396 885 q 228 706 265 790 q 192 510 192 621 q 233 286 192 390 q 351 119 274 182 q 535 56 429 56 m 761 1118 q 749 1058 761 1090 q 256 1054 493 1058 q 259 1087 256 1067 q 268 1118 263 1107 l 761 1118 m 499 1196 q 344 1374 418 1300 q 438 1392 381 1392 q 469 1390 458 1392 q 554 1203 517 1272 q 529 1197 543 1199 q 499 1196 515 1196 z "},"Ǫ":{"ha":1015,"x_min":49,"x_max":967,"o":"m 967 472 q 898 208 967 325 q 711 33 829 90 q 578 -137 578 -31 q 601 -209 578 -187 q 657 -231 625 -231 q 724 -219 696 -231 q 733 -274 735 -242 q 631 -347 679 -301 q 604 -350 622 -350 q 510 -312 551 -350 q 469 -207 469 -274 q 494 -98 469 -146 q 578 -7 518 -50 q 507 -12 549 -12 q 268 51 372 -12 q 106 224 164 114 q 49 472 49 335 q 109 720 49 611 q 274 890 169 829 q 507 951 379 951 q 744 891 639 951 q 908 722 849 831 q 967 472 967 613 m 535 56 q 688 106 622 56 q 789 242 754 156 q 824 436 824 329 q 778 663 824 560 q 654 825 733 765 q 478 885 575 885 q 331 838 396 885 q 228 706 265 790 q 192 510 192 621 q 233 286 192 390 q 351 119 274 182 q 535 56 429 56 z "},"Ø":{"ha":1015,"x_min":49,"x_max":967,"o":"m 821 833 q 928 677 890 769 q 967 472 967 585 q 908 226 967 336 q 744 51 849 115 q 507 -12 639 -12 q 228 78 347 -12 l 136 -40 q 99 -31 117 -40 q 75 -10 82 -22 l 179 121 q 83 278 117 188 q 49 472 49 368 q 109 720 49 611 q 274 890 169 829 q 507 951 379 951 q 767 876 656 951 l 839 974 q 910 951 888 974 l 821 833 m 478 885 q 331 838 396 885 q 228 706 265 790 q 192 510 192 621 q 210 356 192 431 q 264 221 229 282 l 696 789 q 596 860 651 835 q 478 885 540 885 m 535 56 q 688 106 622 56 q 789 242 754 156 q 824 436 824 329 q 801 597 824 521 q 739 735 779 674 l 303 165 q 535 56 394 56 z "},"Ǿ":{"ha":1015,"x_min":49,"x_max":967,"o":"m 821 833 q 928 677 890 769 q 967 472 967 585 q 908 226 967 336 q 744 51 849 115 q 507 -12 639 -12 q 228 78 347 -12 l 136 -40 q 99 -31 117 -40 q 75 -10 82 -22 l 179 121 q 83 278 117 188 q 49 472 49 368 q 109 720 49 611 q 274 890 169 829 q 507 951 379 951 q 767 876 656 951 l 839 974 q 910 951 888 974 l 821 833 m 478 885 q 331 838 396 885 q 228 706 265 790 q 192 510 192 621 q 210 356 192 431 q 264 221 229 282 l 696 789 q 596 860 651 835 q 478 885 540 885 m 535 56 q 688 106 622 56 q 789 242 754 156 q 824 436 824 329 q 801 597 824 521 q 739 735 779 674 l 303 165 q 535 56 394 56 m 518 1017 q 488 1018 501 1017 q 463 1024 474 1019 q 540 1210 513 1125 q 607 1219 579 1219 q 672 1208 643 1219 q 518 1017 594 1115 z "},"Õ":{"ha":1015,"x_min":49,"x_max":967,"o":"m 507 -12 q 268 51 372 -12 q 106 224 164 114 q 49 472 49 335 q 109 720 49 611 q 274 890 169 829 q 507 951 379 951 q 744 891 639 951 q 908 722 849 831 q 967 472 967 613 q 908 226 967 336 q 744 51 849 115 q 507 -12 639 -12 m 535 56 q 688 106 622 56 q 789 242 754 156 q 824 436 824 329 q 778 663 824 560 q 654 825 733 765 q 478 885 575 885 q 331 838 396 885 q 228 706 265 790 q 192 510 192 621 q 233 286 192 390 q 351 119 274 182 q 535 56 429 56 m 588 1039 q 543 1045 564 1039 q 492 1064 522 1051 q 440 1082 460 1076 q 400 1088 421 1088 q 301 1043 350 1088 q 283 1086 283 1057 q 438 1176 351 1176 q 539 1151 478 1176 q 583 1135 565 1140 q 619 1129 601 1129 q 697 1165 661 1129 q 733 1146 722 1161 q 588 1039 675 1039 z "},"Ṍ":{"ha":1015,"x_min":49,"x_max":967,"o":"m 507 -12 q 268 51 372 -12 q 106 224 164 114 q 49 472 49 335 q 109 720 49 611 q 274 890 169 829 q 507 951 379 951 q 744 891 639 951 q 908 722 849 831 q 967 472 967 613 q 908 226 967 336 q 744 51 849 115 q 507 -12 639 -12 m 535 56 q 688 106 622 56 q 789 242 754 156 q 824 436 824 329 q 778 663 824 560 q 654 825 733 765 q 478 885 575 885 q 331 838 396 885 q 228 706 265 790 q 192 510 192 621 q 233 286 192 390 q 351 119 274 182 q 535 56 429 56 m 588 1039 q 543 1045 564 1039 q 492 1064 522 1051 q 440 1082 460 1076 q 400 1088 421 1088 q 301 1043 350 1088 q 283 1086 283 1057 q 438 1176 351 1176 q 539 1151 478 1176 q 583 1135 565 1140 q 619 1129 601 1129 q 697 1165 661 1129 q 733 1146 722 1161 q 588 1039 675 1039 m 518 1240 q 488 1242 501 1240 q 463 1247 474 1243 q 540 1433 513 1349 q 607 1443 579 1443 q 672 1432 643 1443 q 518 1240 594 1339 z "},"Ṏ":{"ha":1015,"x_min":49,"x_max":967,"o":"m 507 -12 q 268 51 372 -12 q 106 224 164 114 q 49 472 49 335 q 109 720 49 611 q 274 890 169 829 q 507 951 379 951 q 744 891 639 951 q 908 722 849 831 q 967 472 967 613 q 908 226 967 336 q 744 51 849 115 q 507 -12 639 -12 m 535 56 q 688 106 622 56 q 789 242 754 156 q 824 436 824 329 q 778 663 824 560 q 654 825 733 765 q 478 885 575 885 q 331 838 396 885 q 228 706 265 790 q 192 510 192 621 q 233 286 192 390 q 351 119 274 182 q 535 56 429 56 m 588 1039 q 543 1045 564 1039 q 492 1064 522 1051 q 440 1082 460 1076 q 400 1088 421 1088 q 301 1043 350 1088 q 283 1086 283 1057 q 438 1176 351 1176 q 539 1151 478 1176 q 583 1135 565 1140 q 619 1129 601 1129 q 697 1165 661 1129 q 733 1146 722 1161 q 588 1039 675 1039 z "},"Ȭ":{"ha":1015,"x_min":49,"x_max":967,"o":"m 507 -12 q 268 51 372 -12 q 106 224 164 114 q 49 472 49 335 q 109 720 49 611 q 274 890 169 829 q 507 951 379 951 q 744 891 639 951 q 908 722 849 831 q 967 472 967 613 q 908 226 967 336 q 744 51 849 115 q 507 -12 639 -12 m 535 56 q 688 106 622 56 q 789 242 754 156 q 824 436 824 329 q 778 663 824 560 q 654 825 733 765 q 478 885 575 885 q 331 838 396 885 q 228 706 265 790 q 192 510 192 621 q 233 286 192 390 q 351 119 274 182 q 535 56 429 56 m 588 1039 q 543 1045 564 1039 q 492 1064 522 1051 q 440 1082 460 1076 q 400 1088 421 1088 q 301 1043 350 1088 q 283 1086 283 1057 q 438 1176 351 1176 q 539 1151 478 1176 q 583 1135 565 1140 q 619 1129 601 1129 q 697 1165 661 1129 q 733 1146 722 1161 q 588 1039 675 1039 m 761 1342 q 749 1282 761 1314 q 256 1278 493 1282 q 259 1310 256 1290 q 268 1342 263 1331 l 761 1342 z "},"Œ":{"ha":1335,"x_min":49,"x_max":1278,"o":"m 617 944 q 854 939 764 939 q 1201 942 1032 939 q 1231 728 1217 789 q 1168 711 1210 711 q 1111 838 1161 789 q 936 886 1061 886 l 711 886 q 852 731 806 831 q 903 503 899 632 l 922 503 q 1031 531 1000 503 q 1061 614 1061 558 q 1129 624 1096 624 q 1126 469 1126 568 q 1129 311 1126 372 q 1065 318 1092 311 q 1049 387 1061 361 q 1006 428 1038 413 q 911 443 974 443 l 901 443 q 850 220 896 318 q 715 63 804 122 l 974 63 q 1101 82 1056 63 q 1170 136 1147 101 q 1217 238 1193 171 q 1278 204 1257 225 q 1235 -3 1251 122 q 932 0 1126 0 q 663 -7 854 0 q 489 -12 538 -12 q 255 45 354 -12 q 102 210 156 103 q 49 463 49 318 q 103 719 49 610 q 260 888 158 828 q 497 947 361 947 l 617 944 m 478 881 q 323 832 389 881 q 222 695 257 783 q 186 489 186 607 q 225 259 186 357 q 337 108 264 161 q 507 56 410 56 q 638 99 581 56 q 728 232 694 143 q 761 450 761 321 q 721 688 761 590 q 616 833 681 785 q 478 881 551 881 z "},"P":{"ha":807,"x_min":78,"x_max":758,"o":"m 443 942 q 682 866 606 942 q 758 672 758 790 q 722 516 758 589 q 615 397 686 443 q 443 351 543 351 q 346 367 385 351 q 343 393 343 383 q 347 424 343 410 q 421 415 382 415 q 617 632 617 415 q 560 815 617 749 q 382 881 503 881 q 311 872 351 881 l 311 204 q 324 113 311 144 q 362 70 336 82 q 435 56 388 58 q 442 -4 442 36 q 267 0 378 0 q 78 -4 132 0 q 85 56 78 36 q 160 83 140 58 q 181 176 181 107 l 181 763 q 160 856 181 832 q 85 883 140 881 q 78 943 78 903 q 267 939 150 939 l 443 942 z "},"Þ":{"ha":815,"x_min":78,"x_max":767,"o":"m 472 750 q 692 678 618 750 q 767 492 767 606 q 731 358 767 422 q 623 251 694 293 q 451 210 551 210 q 354 224 396 210 q 351 243 351 235 q 356 269 351 260 q 432 263 385 263 q 635 463 635 263 q 576 634 635 571 q 397 697 517 697 q 311 688 357 697 l 311 204 q 324 113 311 144 q 362 70 336 82 q 435 56 388 58 q 442 -4 442 36 q 260 0 375 0 q 78 -4 156 0 q 85 56 78 36 q 160 83 140 58 q 181 176 181 107 l 181 763 q 160 856 181 832 q 85 883 140 881 q 78 943 78 903 q 246 939 154 939 q 414 943 331 939 q 407 883 414 903 q 331 856 351 881 q 311 763 311 832 l 311 749 l 472 750 z "},"Q":{"ha":1015,"x_min":49,"x_max":1064,"o":"m 671 17 q 745 -15 711 4 q 821 -60 779 -33 q 926 -118 882 -99 q 1029 -137 971 -137 q 1064 -136 1051 -137 q 1056 -192 1064 -165 q 883 -256 960 -221 q 792 -213 828 -242 q 715 -136 757 -185 q 624 -51 667 -81 q 507 -12 581 -21 q 268 51 372 -12 q 106 224 164 114 q 49 472 49 335 q 109 720 49 611 q 274 890 169 829 q 507 951 379 951 q 744 891 639 951 q 908 722 849 831 q 967 472 967 613 q 886 190 967 313 q 671 17 806 67 m 192 510 q 233 286 192 390 q 351 119 274 182 q 535 56 429 56 q 688 106 622 56 q 789 242 754 156 q 824 436 824 329 q 778 663 824 560 q 654 825 733 765 q 478 885 575 885 q 331 838 396 885 q 228 706 265 790 q 192 510 192 621 z "},"R":{"ha":950,"x_min":78,"x_max":914,"o":"m 726 194 q 781 114 758 140 q 833 75 803 88 q 914 60 863 63 q 908 0 914 19 q 690 -12 767 0 q 597 151 638 72 l 581 182 q 502 312 538 260 q 408 426 467 364 l 365 425 q 311 428 344 425 l 311 176 q 330 83 311 107 q 403 56 349 58 q 410 -4 410 35 q 244 0 350 0 q 78 -4 140 0 q 85 56 78 33 q 161 83 142 58 q 181 176 181 107 l 181 763 q 160 858 181 832 q 85 883 140 883 q 78 942 78 906 q 244 939 133 939 q 360 940 321 939 l 476 942 q 703 877 626 942 q 779 708 779 813 q 717 550 779 617 q 546 456 656 483 q 628 355 594 404 q 726 194 661 306 m 311 492 q 372 488 344 488 q 568 540 493 488 q 643 694 643 592 q 588 831 643 782 q 414 881 533 881 q 311 869 364 881 l 311 492 z "},"Ŕ":{"ha":950,"x_min":78,"x_max":914,"o":"m 726 194 q 781 114 758 140 q 833 75 803 88 q 914 60 863 63 q 908 0 914 19 q 690 -12 767 0 q 597 151 638 72 l 581 182 q 502 312 538 260 q 408 426 467 364 l 365 425 q 311 428 344 425 l 311 176 q 330 83 311 107 q 403 56 349 58 q 410 -4 410 35 q 244 0 350 0 q 78 -4 140 0 q 85 56 78 33 q 161 83 142 58 q 181 176 181 107 l 181 763 q 160 858 181 832 q 85 883 140 883 q 78 942 78 906 q 244 939 133 939 q 360 940 321 939 l 476 942 q 703 877 626 942 q 779 708 779 813 q 717 550 779 617 q 546 456 656 483 q 628 355 594 404 q 726 194 661 306 m 311 492 q 372 488 344 488 q 568 540 493 488 q 643 694 643 592 q 588 831 643 782 q 414 881 533 881 q 311 869 364 881 l 311 492 m 436 1017 q 406 1018 419 1017 q 381 1024 392 1019 q 458 1210 431 1125 q 525 1219 497 1219 q 590 1208 561 1219 q 436 1017 513 1115 z "},"Ř":{"ha":950,"x_min":78,"x_max":914,"o":"m 726 194 q 781 114 758 140 q 833 75 803 88 q 914 60 863 63 q 908 0 914 19 q 690 -12 767 0 q 597 151 638 72 l 581 182 q 502 312 538 260 q 408 426 467 364 l 365 425 q 311 428 344 425 l 311 176 q 330 83 311 107 q 403 56 349 58 q 410 -4 410 35 q 244 0 350 0 q 78 -4 140 0 q 85 56 78 33 q 161 83 142 58 q 181 176 181 107 l 181 763 q 160 858 181 832 q 85 883 140 883 q 78 942 78 906 q 244 939 133 939 q 360 940 321 939 l 476 942 q 703 877 626 942 q 779 708 779 813 q 717 550 779 617 q 546 456 656 483 q 628 355 594 404 q 726 194 661 306 m 311 492 q 372 488 344 488 q 568 540 493 488 q 643 694 643 592 q 588 831 643 782 q 414 881 533 881 q 311 869 364 881 l 311 492 m 394 1015 q 214 1188 319 1101 q 261 1219 229 1211 l 294 1200 q 431 1124 376 1149 q 524 1171 461 1138 q 615 1224 586 1204 q 638 1176 633 1214 q 536 1103 589 1144 q 443 1021 483 1061 q 394 1015 422 1015 z "},"Ŗ":{"ha":950,"x_min":78,"x_max":914,"o":"m 726 194 q 781 114 758 140 q 833 75 803 88 q 914 60 863 63 q 908 0 914 19 q 690 -12 767 0 q 597 151 638 72 l 581 182 q 502 312 538 260 q 408 426 467 364 l 365 425 q 311 428 344 425 l 311 176 q 330 83 311 107 q 403 56 349 58 q 410 -4 410 35 q 244 0 350 0 q 78 -4 140 0 q 85 56 78 33 q 161 83 142 58 q 181 176 181 107 l 181 763 q 160 858 181 832 q 85 883 140 883 q 78 942 78 906 q 244 939 133 939 q 360 940 321 939 l 476 942 q 703 877 626 942 q 779 708 779 813 q 717 550 779 617 q 546 456 656 483 q 628 355 594 404 q 726 194 661 306 m 311 492 q 372 488 344 488 q 568 540 493 488 q 643 694 643 592 q 588 831 643 782 q 414 881 533 881 q 311 869 364 881 l 311 492 m 515 -60 q 551 -94 539 -69 q 563 -153 563 -118 q 414 -389 563 -278 q 375 -360 386 -383 q 426 -293 408 -326 q 444 -235 444 -260 q 393 -185 444 -190 q 395 -144 392 -172 q 404 -101 399 -117 q 515 -60 471 -87 z "},"Ȑ":{"ha":950,"x_min":78,"x_max":914,"o":"m 726 194 q 781 114 758 140 q 833 75 803 88 q 914 60 863 63 q 908 0 914 19 q 690 -12 767 0 q 597 151 638 72 l 581 182 q 502 312 538 260 q 408 426 467 364 l 365 425 q 311 428 344 425 l 311 176 q 330 83 311 107 q 403 56 349 58 q 410 -4 410 35 q 244 0 350 0 q 78 -4 140 0 q 85 56 78 33 q 161 83 142 58 q 181 176 181 107 l 181 763 q 160 858 181 832 q 85 883 140 883 q 78 942 78 906 q 244 939 133 939 q 360 940 321 939 l 476 942 q 703 877 626 942 q 779 708 779 813 q 717 550 779 617 q 546 456 656 483 q 628 355 594 404 q 726 194 661 306 m 311 492 q 372 488 344 488 q 568 540 493 488 q 643 694 643 592 q 588 831 643 782 q 414 881 533 881 q 311 869 364 881 l 311 492 m 308 1003 q 154 1181 228 1107 q 247 1199 190 1199 q 279 1197 268 1199 q 364 1010 326 1079 q 339 1004 353 1006 q 308 1003 325 1003 m 517 1003 q 363 1181 436 1107 q 456 1199 399 1199 q 488 1197 476 1199 q 572 1010 535 1079 q 547 1004 561 1006 q 517 1003 533 1003 z "},"Ṛ":{"ha":950,"x_min":78,"x_max":914,"o":"m 726 194 q 781 114 758 140 q 833 75 803 88 q 914 60 863 63 q 908 0 914 19 q 690 -12 767 0 q 597 151 638 72 l 581 182 q 502 312 538 260 q 408 426 467 364 l 365 425 q 311 428 344 425 l 311 176 q 330 83 311 107 q 403 56 349 58 q 410 -4 410 35 q 244 0 350 0 q 78 -4 140 0 q 85 56 78 33 q 161 83 142 58 q 181 176 181 107 l 181 763 q 160 858 181 832 q 85 883 140 883 q 78 942 78 906 q 244 939 133 939 q 360 940 321 939 l 476 942 q 703 877 626 942 q 779 708 779 813 q 717 550 779 617 q 546 456 656 483 q 628 355 594 404 q 726 194 661 306 m 311 492 q 372 488 344 488 q 568 540 493 488 q 643 694 643 592 q 588 831 643 782 q 414 881 533 881 q 311 869 364 881 l 311 492 m 479 -292 q 421 -268 444 -292 q 397 -211 397 -244 q 422 -151 397 -175 q 479 -126 446 -126 q 540 -150 517 -126 q 563 -211 563 -174 q 538 -267 563 -243 q 479 -292 514 -292 z "},"Ȓ":{"ha":950,"x_min":78,"x_max":914,"o":"m 726 194 q 781 114 758 140 q 833 75 803 88 q 914 60 863 63 q 908 0 914 19 q 690 -12 767 0 q 597 151 638 72 l 581 182 q 502 312 538 260 q 408 426 467 364 l 365 425 q 311 428 344 425 l 311 176 q 330 83 311 107 q 403 56 349 58 q 410 -4 410 35 q 244 0 350 0 q 78 -4 140 0 q 85 56 78 33 q 161 83 142 58 q 181 176 181 107 l 181 763 q 160 858 181 832 q 85 883 140 883 q 78 942 78 906 q 244 939 133 939 q 360 940 321 939 l 476 942 q 703 877 626 942 q 779 708 779 813 q 717 550 779 617 q 546 456 656 483 q 628 355 594 404 q 726 194 661 306 m 311 492 q 372 488 344 488 q 568 540 493 488 q 643 694 643 592 q 588 831 643 782 q 414 881 533 881 q 311 869 364 881 l 311 492 m 219 1018 q 274 1159 219 1110 q 428 1208 328 1208 q 579 1160 526 1208 q 632 1024 632 1113 q 569 1011 604 1008 q 519 1090 561 1061 q 415 1119 478 1119 q 314 1090 353 1119 q 272 1011 275 1061 q 219 1018 240 1008 z "},"Ṟ":{"ha":950,"x_min":78,"x_max":914,"o":"m 726 194 q 781 114 758 140 q 833 75 803 88 q 914 60 863 63 q 908 0 914 19 q 690 -12 767 0 q 597 151 638 72 l 581 182 q 502 312 538 260 q 408 426 467 364 l 365 425 q 311 428 344 425 l 311 176 q 330 83 311 107 q 403 56 349 58 q 410 -4 410 35 q 244 0 350 0 q 78 -4 140 0 q 85 56 78 33 q 161 83 142 58 q 181 176 181 107 l 181 763 q 160 858 181 832 q 85 883 140 883 q 78 942 78 906 q 244 939 133 939 q 360 940 321 939 l 476 942 q 703 877 626 942 q 779 708 779 813 q 717 550 779 617 q 546 456 656 483 q 628 355 594 404 q 726 194 661 306 m 311 492 q 372 488 344 488 q 568 540 493 488 q 643 694 643 592 q 588 831 643 782 q 414 881 533 881 q 311 869 364 881 l 311 492 m 228 -229 q 231 -197 228 -217 q 240 -165 235 -176 l 733 -165 q 721 -225 733 -194 q 228 -229 465 -225 z "},"S":{"ha":767,"x_min":94,"x_max":693,"o":"m 376 -12 q 232 9 296 -12 q 94 76 168 31 q 107 274 107 154 q 182 282 139 282 q 238 113 188 171 q 396 54 289 54 q 530 94 486 54 q 574 199 574 133 q 546 290 574 253 q 478 352 518 328 q 365 410 438 376 q 232 482 282 450 q 147 567 182 514 q 111 701 111 621 q 186 885 111 818 q 390 951 261 951 q 521 934 458 951 q 622 890 583 917 q 631 707 622 767 q 553 694 600 694 q 494 849 533 808 q 389 890 456 890 q 274 854 315 890 q 232 753 232 818 q 260 660 232 699 q 330 596 289 621 q 443 535 371 571 q 574 464 525 496 q 658 381 624 432 q 693 254 693 329 q 659 122 693 182 q 553 24 625 61 q 376 -12 482 -12 z "},"Ś":{"ha":767,"x_min":94,"x_max":693,"o":"m 376 -12 q 232 9 296 -12 q 94 76 168 31 q 107 274 107 154 q 182 282 139 282 q 238 113 188 171 q 396 54 289 54 q 530 94 486 54 q 574 199 574 133 q 546 290 574 253 q 478 352 518 328 q 365 410 438 376 q 232 482 282 450 q 147 567 182 514 q 111 701 111 621 q 186 885 111 818 q 390 951 261 951 q 521 934 458 951 q 622 890 583 917 q 631 707 622 767 q 553 694 600 694 q 494 849 533 808 q 389 890 456 890 q 274 854 315 890 q 232 753 232 818 q 260 660 232 699 q 330 596 289 621 q 443 535 371 571 q 574 464 525 496 q 658 381 624 432 q 693 254 693 329 q 659 122 693 182 q 553 24 625 61 q 376 -12 482 -12 m 396 1017 q 365 1018 379 1017 q 340 1024 351 1019 q 418 1210 390 1125 q 485 1219 457 1219 q 550 1208 521 1219 q 396 1017 472 1115 z "},"Ṥ":{"ha":767,"x_min":94,"x_max":693,"o":"m 376 -12 q 232 9 296 -12 q 94 76 168 31 q 107 274 107 154 q 182 282 139 282 q 238 113 188 171 q 396 54 289 54 q 530 94 486 54 q 574 199 574 133 q 546 290 574 253 q 478 352 518 328 q 365 410 438 376 q 232 482 282 450 q 147 567 182 514 q 111 701 111 621 q 186 885 111 818 q 390 951 261 951 q 521 934 458 951 q 622 890 583 917 q 631 707 622 767 q 553 694 600 694 q 494 849 533 808 q 389 890 456 890 q 274 854 315 890 q 232 753 232 818 q 260 660 232 699 q 330 596 289 621 q 443 535 371 571 q 574 464 525 496 q 658 381 624 432 q 693 254 693 329 q 659 122 693 182 q 553 24 625 61 q 376 -12 482 -12 m 396 1017 q 365 1018 379 1017 q 340 1024 351 1019 q 418 1210 390 1125 q 485 1219 457 1219 q 550 1208 521 1219 q 396 1017 472 1115 z "},"Š":{"ha":767,"x_min":94,"x_max":693,"o":"m 376 -12 q 232 9 296 -12 q 94 76 168 31 q 107 274 107 154 q 182 282 139 282 q 238 113 188 171 q 396 54 289 54 q 530 94 486 54 q 574 199 574 133 q 546 290 574 253 q 478 352 518 328 q 365 410 438 376 q 232 482 282 450 q 147 567 182 514 q 111 701 111 621 q 186 885 111 818 q 390 951 261 951 q 521 934 458 951 q 622 890 583 917 q 631 707 622 767 q 553 694 600 694 q 494 849 533 808 q 389 890 456 890 q 274 854 315 890 q 232 753 232 818 q 260 660 232 699 q 330 596 289 621 q 443 535 371 571 q 574 464 525 496 q 658 381 624 432 q 693 254 693 329 q 659 122 693 182 q 553 24 625 61 q 376 -12 482 -12 m 354 1015 q 174 1188 279 1101 q 221 1219 189 1211 l 254 1200 q 390 1124 336 1149 q 483 1171 421 1138 q 575 1224 546 1204 q 597 1176 593 1214 q 496 1103 549 1144 q 403 1021 443 1061 q 354 1015 382 1015 z "},"Ṧ":{"ha":767,"x_min":94,"x_max":693,"o":"m 376 -12 q 232 9 296 -12 q 94 76 168 31 q 107 274 107 154 q 182 282 139 282 q 238 113 188 171 q 396 54 289 54 q 530 94 486 54 q 574 199 574 133 q 546 290 574 253 q 478 352 518 328 q 365 410 438 376 q 232 482 282 450 q 147 567 182 514 q 111 701 111 621 q 186 885 111 818 q 390 951 261 951 q 521 934 458 951 q 622 890 583 917 q 631 707 622 767 q 553 694 600 694 q 494 849 533 808 q 389 890 456 890 q 274 854 315 890 q 232 753 232 818 q 260 660 232 699 q 330 596 289 621 q 443 535 371 571 q 574 464 525 496 q 658 381 624 432 q 693 254 693 329 q 659 122 693 182 q 553 24 625 61 q 376 -12 482 -12 m 354 1015 q 174 1188 279 1101 q 221 1219 189 1211 l 254 1200 q 390 1124 336 1149 q 483 1171 421 1138 q 575 1224 546 1204 q 597 1176 593 1214 q 496 1103 549 1144 q 403 1021 443 1061 q 354 1015 382 1015 z "},"Ş":{"ha":767,"x_min":94,"x_max":693,"o":"m 693 254 q 624 75 693 150 q 419 -11 554 0 l 376 -69 q 465 -112 432 -79 q 497 -196 497 -146 q 469 -271 497 -239 q 400 -319 442 -303 q 319 -336 358 -336 q 310 -292 310 -318 q 387 -271 354 -292 q 419 -215 419 -250 q 394 -161 419 -182 q 329 -140 368 -140 q 304 -87 304 -121 l 351 -12 q 222 13 281 -8 q 94 76 163 35 q 107 274 107 154 q 182 282 139 282 q 238 113 188 171 q 396 54 289 54 q 530 94 486 54 q 574 199 574 133 q 546 290 574 253 q 478 352 518 328 q 365 410 438 376 q 232 482 282 450 q 147 567 182 514 q 111 701 111 621 q 186 885 111 818 q 390 951 261 951 q 521 934 458 951 q 622 890 583 917 q 631 707 622 767 q 553 694 600 694 q 494 849 533 808 q 389 890 456 890 q 274 854 315 890 q 232 753 232 818 q 260 660 232 699 q 330 596 289 621 q 443 535 371 571 q 574 464 525 496 q 658 381 624 432 q 693 254 693 329 z "},"Ŝ":{"ha":767,"x_min":94,"x_max":693,"o":"m 376 -12 q 232 9 296 -12 q 94 76 168 31 q 107 274 107 154 q 182 282 139 282 q 238 113 188 171 q 396 54 289 54 q 530 94 486 54 q 574 199 574 133 q 546 290 574 253 q 478 352 518 328 q 365 410 438 376 q 232 482 282 450 q 147 567 182 514 q 111 701 111 621 q 186 885 111 818 q 390 951 261 951 q 521 934 458 951 q 622 890 583 917 q 631 707 622 767 q 553 694 600 694 q 494 849 533 808 q 389 890 456 890 q 274 854 315 890 q 232 753 232 818 q 260 660 232 699 q 330 596 289 621 q 443 535 371 571 q 574 464 525 496 q 658 381 624 432 q 693 254 693 329 q 659 122 693 182 q 553 24 625 61 q 376 -12 482 -12 m 196 1011 q 174 1058 178 1021 q 275 1132 222 1090 q 368 1214 328 1174 q 417 1219 389 1219 q 597 1047 492 1133 q 550 1015 582 1024 l 517 1035 q 381 1111 435 1086 q 288 1064 350 1097 q 196 1011 225 1031 z "},"Ș":{"ha":767,"x_min":94,"x_max":693,"o":"m 376 -12 q 232 9 296 -12 q 94 76 168 31 q 107 274 107 154 q 182 282 139 282 q 238 113 188 171 q 396 54 289 54 q 530 94 486 54 q 574 199 574 133 q 546 290 574 253 q 478 352 518 328 q 365 410 438 376 q 232 482 282 450 q 147 567 182 514 q 111 701 111 621 q 186 885 111 818 q 390 951 261 951 q 521 934 458 951 q 622 890 583 917 q 631 707 622 767 q 553 694 600 694 q 494 849 533 808 q 389 890 456 890 q 274 854 315 890 q 232 753 232 818 q 260 660 232 699 q 330 596 289 621 q 443 535 371 571 q 574 464 525 496 q 658 381 624 432 q 693 254 693 329 q 659 122 693 182 q 553 24 625 61 q 376 -12 482 -12 m 436 -60 q 472 -94 460 -69 q 483 -153 483 -118 q 335 -389 483 -278 q 296 -360 307 -383 q 347 -293 329 -326 q 365 -235 365 -260 q 314 -185 365 -190 q 316 -144 313 -172 q 325 -101 319 -117 q 436 -60 392 -87 z "},"Ṡ":{"ha":767,"x_min":94,"x_max":693,"o":"m 376 -12 q 232 9 296 -12 q 94 76 168 31 q 107 274 107 154 q 182 282 139 282 q 238 113 188 171 q 396 54 289 54 q 530 94 486 54 q 574 199 574 133 q 546 290 574 253 q 478 352 518 328 q 365 410 438 376 q 232 482 282 450 q 147 567 182 514 q 111 701 111 621 q 186 885 111 818 q 390 951 261 951 q 521 934 458 951 q 622 890 583 917 q 631 707 622 767 q 553 694 600 694 q 494 849 533 808 q 389 890 456 890 q 274 854 315 890 q 232 753 232 818 q 260 660 232 699 q 330 596 289 621 q 443 535 371 571 q 574 464 525 496 q 658 381 624 432 q 693 254 693 329 q 659 122 693 182 q 553 24 625 61 q 376 -12 482 -12 z "},"Ṣ":{"ha":767,"x_min":94,"x_max":693,"o":"m 376 -12 q 232 9 296 -12 q 94 76 168 31 q 107 274 107 154 q 182 282 139 282 q 238 113 188 171 q 396 54 289 54 q 530 94 486 54 q 574 199 574 133 q 546 290 574 253 q 478 352 518 328 q 365 410 438 376 q 232 482 282 450 q 147 567 182 514 q 111 701 111 621 q 186 885 111 818 q 390 951 261 951 q 521 934 458 951 q 622 890 583 917 q 631 707 622 767 q 553 694 600 694 q 494 849 533 808 q 389 890 456 890 q 274 854 315 890 q 232 753 232 818 q 260 660 232 699 q 330 596 289 621 q 443 535 371 571 q 574 464 525 496 q 658 381 624 432 q 693 254 693 329 q 659 122 693 182 q 553 24 625 61 q 376 -12 482 -12 m 400 -292 q 342 -268 365 -292 q 318 -211 318 -244 q 342 -151 318 -175 q 400 -126 367 -126 q 460 -150 438 -126 q 483 -211 483 -174 q 459 -267 483 -243 q 400 -292 435 -292 z "},"Ṩ":{"ha":767,"x_min":94,"x_max":693,"o":"m 376 -12 q 232 9 296 -12 q 94 76 168 31 q 107 274 107 154 q 182 282 139 282 q 238 113 188 171 q 396 54 289 54 q 530 94 486 54 q 574 199 574 133 q 546 290 574 253 q 478 352 518 328 q 365 410 438 376 q 232 482 282 450 q 147 567 182 514 q 111 701 111 621 q 186 885 111 818 q 390 951 261 951 q 521 934 458 951 q 622 890 583 917 q 631 707 622 767 q 553 694 600 694 q 494 849 533 808 q 389 890 456 890 q 274 854 315 890 q 232 753 232 818 q 260 660 232 699 q 330 596 289 621 q 443 535 371 571 q 574 464 525 496 q 658 381 624 432 q 693 254 693 329 q 659 122 693 182 q 553 24 625 61 q 376 -12 482 -12 m 400 -292 q 342 -268 365 -292 q 318 -211 318 -244 q 342 -151 318 -175 q 400 -126 367 -126 q 460 -150 438 -126 q 483 -211 483 -174 q 459 -267 483 -243 q 400 -292 435 -292 z "},"ẞ":{"ha":1003,"x_min":58,"x_max":929,"o":"m 646 540 q 851 449 774 525 q 929 261 929 372 q 894 122 929 185 q 794 24 860 60 q 639 -12 728 -12 q 510 6 565 -12 q 397 63 454 25 q 413 249 413 142 q 493 257 446 257 q 510 142 499 183 q 552 77 522 100 q 639 54 582 54 q 743 108 707 54 q 779 244 779 163 q 710 407 779 340 q 501 489 640 474 q 486 544 486 517 q 694 879 585 681 l 631 882 q 497 886 564 886 q 385 860 429 886 q 316 769 340 835 q 292 583 292 703 l 292 -1 q 203 0 267 0 q 58 -4 115 0 q 65 56 58 35 q 125 72 106 60 q 153 119 144 85 q 161 224 161 153 l 161 583 q 257 860 161 779 q 526 942 353 942 q 594 940 574 942 l 671 939 q 836 943 774 939 q 854 878 854 910 q 646 540 756 697 z "},"Ə":{"ha":876,"x_min":49,"x_max":828,"o":"m 389 951 q 636 891 538 951 q 781 727 735 831 q 828 493 828 624 q 780 244 828 358 q 637 60 732 129 q 407 -10 542 -10 q 49 425 83 -10 q 71 471 56 453 l 685 471 q 611 769 682 654 q 369 885 540 885 q 265 865 303 885 q 206 805 226 844 q 174 697 186 765 l 154 696 q 99 706 131 696 q 103 794 103 750 q 97 886 103 846 q 230 935 150 918 q 389 951 310 951 m 435 57 q 606 140 538 57 q 683 403 675 222 q 206 410 478 410 q 263 151 206 246 q 435 57 321 57 z "},"T":{"ha":813,"x_min":35,"x_max":776,"o":"m 767 893 q 776 721 767 838 q 707 708 747 707 q 667 835 704 792 q 550 878 629 878 l 476 878 l 476 176 q 485 103 476 128 q 516 69 493 79 q 585 56 539 58 q 592 -4 592 36 q 410 0 503 0 q 228 -4 306 0 q 235 56 228 36 q 304 69 281 58 q 337 104 328 79 q 346 176 346 129 l 346 878 l 275 878 q 176 858 211 878 q 127 803 142 838 q 101 708 113 769 q 35 721 56 708 q 57 943 57 846 q 411 939 135 939 q 768 943 692 939 l 767 893 z "},"Ŧ":{"ha":813,"x_min":35,"x_max":776,"o":"m 767 893 q 776 721 767 838 q 707 708 747 707 q 667 835 704 792 q 550 878 629 878 l 476 878 l 476 521 l 667 521 q 651 451 667 475 q 476 453 585 453 l 476 176 q 485 103 476 128 q 516 69 493 79 q 585 56 539 58 q 592 -4 592 36 q 410 0 503 0 q 228 -4 306 0 q 235 56 228 36 q 304 69 281 58 q 337 104 328 79 q 346 176 346 129 l 346 453 q 158 450 243 453 q 163 490 158 467 q 174 521 168 513 l 346 521 l 346 878 l 275 878 q 176 858 211 878 q 127 803 142 838 q 101 708 113 769 q 35 721 56 708 q 57 943 57 846 q 411 939 135 939 q 768 943 692 939 l 767 893 z "},"Ť":{"ha":813,"x_min":35,"x_max":776,"o":"m 767 893 q 776 721 767 838 q 707 708 747 707 q 667 835 704 792 q 550 878 629 878 l 476 878 l 476 176 q 485 103 476 128 q 516 69 493 79 q 585 56 539 58 q 592 -4 592 36 q 410 0 503 0 q 228 -4 306 0 q 235 56 228 36 q 304 69 281 58 q 337 104 328 79 q 346 176 346 129 l 346 878 l 275 878 q 176 858 211 878 q 127 803 142 838 q 101 708 113 769 q 35 721 56 708 q 57 943 57 846 q 411 939 135 939 q 768 943 692 939 l 767 893 m 381 1015 q 200 1188 306 1101 q 247 1219 215 1211 l 281 1200 q 417 1124 363 1149 q 510 1171 447 1138 q 601 1224 572 1204 q 624 1176 619 1214 q 522 1103 575 1144 q 429 1021 469 1061 q 381 1015 408 1015 z "},"Ţ":{"ha":813,"x_min":35,"x_max":776,"o":"m 767 893 q 776 721 767 838 q 707 708 747 707 q 667 835 704 792 q 550 878 629 878 l 476 878 l 476 176 q 485 103 476 128 q 516 69 493 79 q 585 56 539 58 q 592 -4 592 36 q 435 0 515 0 l 385 -69 q 473 -112 440 -79 q 506 -196 506 -146 q 478 -271 506 -239 q 408 -319 450 -303 q 328 -336 367 -336 q 318 -292 318 -318 q 395 -271 363 -292 q 428 -215 428 -250 q 402 -161 428 -182 q 338 -140 376 -140 q 313 -87 313 -121 l 368 0 l 319 -1 q 228 -4 281 -1 q 235 56 228 36 q 304 69 281 58 q 337 104 328 79 q 346 176 346 129 l 346 878 l 275 878 q 176 858 211 878 q 127 803 142 838 q 101 708 113 769 q 35 721 56 708 q 57 943 57 846 q 411 939 135 939 q 768 943 692 939 l 767 893 z "},"Ț":{"ha":813,"x_min":35,"x_max":776,"o":"m 767 893 q 776 721 767 838 q 707 708 747 707 q 667 835 704 792 q 550 878 629 878 l 476 878 l 476 176 q 485 103 476 128 q 516 69 493 79 q 585 56 539 58 q 592 -4 592 36 q 410 0 503 0 q 228 -4 306 0 q 235 56 228 36 q 304 69 281 58 q 337 104 328 79 q 346 176 346 129 l 346 878 l 275 878 q 176 858 211 878 q 127 803 142 838 q 101 708 113 769 q 35 721 56 708 q 57 943 57 846 q 411 939 135 939 q 768 943 692 939 l 767 893 m 444 -60 q 480 -94 468 -69 q 492 -153 492 -118 q 343 -389 492 -278 q 304 -360 315 -383 q 356 -293 338 -326 q 374 -235 374 -260 q 322 -185 374 -190 q 324 -144 321 -172 q 333 -101 328 -117 q 444 -60 400 -87 z "},"Ṭ":{"ha":813,"x_min":35,"x_max":776,"o":"m 767 893 q 776 721 767 838 q 707 708 747 707 q 667 835 704 792 q 550 878 629 878 l 476 878 l 476 176 q 485 103 476 128 q 516 69 493 79 q 585 56 539 58 q 592 -4 592 36 q 410 0 503 0 q 228 -4 306 0 q 235 56 228 36 q 304 69 281 58 q 337 104 328 79 q 346 176 346 129 l 346 878 l 275 878 q 176 858 211 878 q 127 803 142 838 q 101 708 113 769 q 35 721 56 708 q 57 943 57 846 q 411 939 135 939 q 768 943 692 939 l 767 893 m 408 -292 q 350 -268 374 -292 q 326 -211 326 -244 q 351 -151 326 -175 q 408 -126 375 -126 q 469 -150 446 -126 q 492 -211 492 -174 q 467 -267 492 -243 q 408 -292 443 -292 z "},"Ṯ":{"ha":813,"x_min":35,"x_max":776,"o":"m 767 893 q 776 721 767 838 q 707 708 747 707 q 667 835 704 792 q 550 878 629 878 l 476 878 l 476 176 q 485 103 476 128 q 516 69 493 79 q 585 56 539 58 q 592 -4 592 36 q 410 0 503 0 q 228 -4 306 0 q 235 56 228 36 q 304 69 281 58 q 337 104 328 79 q 346 176 346 129 l 346 878 l 275 878 q 176 858 211 878 q 127 803 142 838 q 101 708 113 769 q 35 721 56 708 q 57 943 57 846 q 411 939 135 939 q 768 943 692 939 l 767 893 m 157 -229 q 160 -197 157 -217 q 169 -165 164 -176 l 663 -165 q 650 -225 663 -194 q 157 -229 394 -225 z "},"U":{"ha":938,"x_min":58,"x_max":881,"o":"m 792 374 q 775 181 792 249 q 713 67 758 113 q 488 -12 633 -12 q 224 69 301 -12 q 147 321 147 151 l 147 763 q 141 836 147 813 q 118 869 135 860 q 65 883 101 879 q 58 943 58 908 q 219 939 114 939 q 381 943 318 939 q 374 883 381 908 q 310 870 329 879 q 285 838 292 861 q 278 763 278 815 l 278 340 q 331 135 278 210 q 514 61 385 61 q 594 74 553 61 q 661 114 635 88 q 708 201 694 147 q 721 363 721 254 l 721 707 q 714 813 721 778 q 687 863 707 847 q 625 883 667 879 q 618 943 618 918 q 749 939 665 939 q 881 943 826 939 q 874 883 881 922 q 823 864 840 879 q 799 812 806 849 q 792 707 792 775 l 792 374 z "},"Ú":{"ha":938,"x_min":58,"x_max":881,"o":"m 792 374 q 775 181 792 249 q 713 67 758 113 q 488 -12 633 -12 q 224 69 301 -12 q 147 321 147 151 l 147 763 q 141 836 147 813 q 118 869 135 860 q 65 883 101 879 q 58 943 58 908 q 219 939 114 939 q 381 943 318 939 q 374 883 381 908 q 310 870 329 879 q 285 838 292 861 q 278 763 278 815 l 278 340 q 331 135 278 210 q 514 61 385 61 q 594 74 553 61 q 661 114 635 88 q 708 201 694 147 q 721 363 721 254 l 721 707 q 714 813 721 778 q 687 863 707 847 q 625 883 667 879 q 618 943 618 918 q 749 939 665 939 q 881 943 826 939 q 874 883 881 922 q 823 864 840 879 q 799 812 806 849 q 792 707 792 775 l 792 374 m 510 1017 q 479 1018 493 1017 q 454 1024 465 1019 q 532 1210 504 1125 q 599 1219 571 1219 q 664 1208 635 1219 q 510 1017 586 1115 z "},"Ŭ":{"ha":938,"x_min":58,"x_max":881,"o":"m 792 374 q 775 181 792 249 q 713 67 758 113 q 488 -12 633 -12 q 224 69 301 -12 q 147 321 147 151 l 147 763 q 141 836 147 813 q 118 869 135 860 q 65 883 101 879 q 58 943 58 908 q 219 939 114 939 q 381 943 318 939 q 374 883 381 908 q 310 870 329 879 q 285 838 292 861 q 278 763 278 815 l 278 340 q 331 135 278 210 q 514 61 385 61 q 594 74 553 61 q 661 114 635 88 q 708 201 694 147 q 721 363 721 254 l 721 707 q 714 813 721 778 q 687 863 707 847 q 625 883 667 879 q 618 943 618 918 q 749 939 665 939 q 881 943 826 939 q 874 883 881 922 q 823 864 840 879 q 799 812 806 849 q 792 707 792 775 l 792 374 m 706 1201 q 651 1060 706 1110 q 497 1011 597 1011 q 346 1059 399 1011 q 293 1196 293 1107 q 356 1208 321 1211 q 406 1129 364 1158 q 510 1100 447 1100 q 611 1129 572 1100 q 653 1208 650 1158 q 706 1201 685 1211 z "},"Ǔ":{"ha":938,"x_min":58,"x_max":881,"o":"m 792 374 q 775 181 792 249 q 713 67 758 113 q 488 -12 633 -12 q 224 69 301 -12 q 147 321 147 151 l 147 763 q 141 836 147 813 q 118 869 135 860 q 65 883 101 879 q 58 943 58 908 q 219 939 114 939 q 381 943 318 939 q 374 883 381 908 q 310 870 329 879 q 285 838 292 861 q 278 763 278 815 l 278 340 q 331 135 278 210 q 514 61 385 61 q 594 74 553 61 q 661 114 635 88 q 708 201 694 147 q 721 363 721 254 l 721 707 q 714 813 721 778 q 687 863 707 847 q 625 883 667 879 q 618 943 618 918 q 749 939 665 939 q 881 943 826 939 q 874 883 881 922 q 823 864 840 879 q 799 812 806 849 q 792 707 792 775 l 792 374 m 468 1015 q 288 1188 393 1101 q 335 1219 303 1211 l 368 1200 q 504 1124 450 1149 q 597 1171 535 1138 q 689 1224 660 1204 q 711 1176 707 1214 q 610 1103 663 1144 q 517 1021 557 1061 q 468 1015 496 1015 z "},"Û":{"ha":938,"x_min":58,"x_max":881,"o":"m 792 374 q 775 181 792 249 q 713 67 758 113 q 488 -12 633 -12 q 224 69 301 -12 q 147 321 147 151 l 147 763 q 141 836 147 813 q 118 869 135 860 q 65 883 101 879 q 58 943 58 908 q 219 939 114 939 q 381 943 318 939 q 374 883 381 908 q 310 870 329 879 q 285 838 292 861 q 278 763 278 815 l 278 340 q 331 135 278 210 q 514 61 385 61 q 594 74 553 61 q 661 114 635 88 q 708 201 694 147 q 721 363 721 254 l 721 707 q 714 813 721 778 q 687 863 707 847 q 625 883 667 879 q 618 943 618 918 q 749 939 665 939 q 881 943 826 939 q 874 883 881 922 q 823 864 840 879 q 799 812 806 849 q 792 707 792 775 l 792 374 m 310 1011 q 288 1058 292 1021 q 389 1132 336 1090 q 482 1214 442 1174 q 531 1219 503 1219 q 711 1047 606 1133 q 664 1015 696 1024 l 631 1035 q 494 1111 549 1086 q 401 1064 464 1097 q 310 1011 339 1031 z "},"Ȕ":{"ha":938,"x_min":58,"x_max":881,"o":"m 792 374 q 775 181 792 249 q 713 67 758 113 q 488 -12 633 -12 q 224 69 301 -12 q 147 321 147 151 l 147 763 q 141 836 147 813 q 118 869 135 860 q 65 883 101 879 q 58 943 58 908 q 219 939 114 939 q 381 943 318 939 q 374 883 381 908 q 310 870 329 879 q 285 838 292 861 q 278 763 278 815 l 278 340 q 331 135 278 210 q 514 61 385 61 q 594 74 553 61 q 661 114 635 88 q 708 201 694 147 q 721 363 721 254 l 721 707 q 714 813 721 778 q 687 863 707 847 q 625 883 667 879 q 618 943 618 918 q 749 939 665 939 q 881 943 826 939 q 874 883 881 922 q 823 864 840 879 q 799 812 806 849 q 792 707 792 775 l 792 374 m 382 1003 q 228 1181 301 1107 q 321 1199 264 1199 q 353 1197 342 1199 q 438 1010 400 1079 q 413 1004 426 1006 q 382 1003 399 1003 m 590 1003 q 436 1181 510 1107 q 529 1199 472 1199 q 561 1197 550 1199 q 646 1010 608 1079 q 621 1004 635 1006 q 590 1003 607 1003 z "},"Ü":{"ha":938,"x_min":58,"x_max":881,"o":"m 792 374 q 775 181 792 249 q 713 67 758 113 q 488 -12 633 -12 q 224 69 301 -12 q 147 321 147 151 l 147 763 q 141 836 147 813 q 118 869 135 860 q 65 883 101 879 q 58 943 58 908 q 219 939 114 939 q 381 943 318 939 q 374 883 381 908 q 310 870 329 879 q 285 838 292 861 q 278 763 278 815 l 278 340 q 331 135 278 210 q 514 61 385 61 q 594 74 553 61 q 661 114 635 88 q 708 201 694 147 q 721 363 721 254 l 721 707 q 714 813 721 778 q 687 863 707 847 q 625 883 667 879 q 618 943 618 918 q 749 939 665 939 q 881 943 826 939 q 874 883 881 922 q 823 864 840 879 q 799 812 806 849 q 792 707 792 775 l 792 374 z "},"Ǘ":{"ha":938,"x_min":58,"x_max":881,"o":"m 792 374 q 775 181 792 249 q 713 67 758 113 q 488 -12 633 -12 q 224 69 301 -12 q 147 321 147 151 l 147 763 q 141 836 147 813 q 118 869 135 860 q 65 883 101 879 q 58 943 58 908 q 219 939 114 939 q 381 943 318 939 q 374 883 381 908 q 310 870 329 879 q 285 838 292 861 q 278 763 278 815 l 278 340 q 331 135 278 210 q 514 61 385 61 q 594 74 553 61 q 661 114 635 88 q 708 201 694 147 q 721 363 721 254 l 721 707 q 714 813 721 778 q 687 863 707 847 q 625 883 667 879 q 618 943 618 918 q 749 939 665 939 q 881 943 826 939 q 874 883 881 922 q 823 864 840 879 q 799 812 806 849 q 792 707 792 775 l 792 374 m 510 1231 q 479 1232 493 1231 q 454 1238 465 1233 q 532 1424 504 1339 q 599 1433 571 1433 q 664 1422 635 1433 q 510 1231 586 1329 z "},"Ǚ":{"ha":938,"x_min":58,"x_max":881,"o":"m 792 374 q 775 181 792 249 q 713 67 758 113 q 488 -12 633 -12 q 224 69 301 -12 q 147 321 147 151 l 147 763 q 141 836 147 813 q 118 869 135 860 q 65 883 101 879 q 58 943 58 908 q 219 939 114 939 q 381 943 318 939 q 374 883 381 908 q 310 870 329 879 q 285 838 292 861 q 278 763 278 815 l 278 340 q 331 135 278 210 q 514 61 385 61 q 594 74 553 61 q 661 114 635 88 q 708 201 694 147 q 721 363 721 254 l 721 707 q 714 813 721 778 q 687 863 707 847 q 625 883 667 879 q 618 943 618 918 q 749 939 665 939 q 881 943 826 939 q 874 883 881 922 q 823 864 840 879 q 799 812 806 849 q 792 707 792 775 l 792 374 m 468 1229 q 288 1401 393 1315 q 335 1433 303 1425 l 368 1414 q 504 1338 450 1363 q 597 1385 535 1351 q 689 1438 660 1418 q 711 1390 707 1428 q 610 1317 663 1358 q 517 1235 557 1275 q 468 1229 496 1229 z "},"Ǜ":{"ha":938,"x_min":58,"x_max":881,"o":"m 792 374 q 775 181 792 249 q 713 67 758 113 q 488 -12 633 -12 q 224 69 301 -12 q 147 321 147 151 l 147 763 q 141 836 147 813 q 118 869 135 860 q 65 883 101 879 q 58 943 58 908 q 219 939 114 939 q 381 943 318 939 q 374 883 381 908 q 310 870 329 879 q 285 838 292 861 q 278 763 278 815 l 278 340 q 331 135 278 210 q 514 61 385 61 q 594 74 553 61 q 661 114 635 88 q 708 201 694 147 q 721 363 721 254 l 721 707 q 714 813 721 778 q 687 863 707 847 q 625 883 667 879 q 618 943 618 918 q 749 939 665 939 q 881 943 826 939 q 874 883 881 922 q 823 864 840 879 q 799 812 806 849 q 792 707 792 775 l 792 374 m 490 1231 q 336 1408 410 1335 q 429 1426 372 1426 q 461 1425 450 1426 q 546 1238 508 1307 q 521 1232 535 1233 q 490 1231 507 1231 z "},"Ǖ":{"ha":938,"x_min":58,"x_max":881,"o":"m 792 374 q 775 181 792 249 q 713 67 758 113 q 488 -12 633 -12 q 224 69 301 -12 q 147 321 147 151 l 147 763 q 141 836 147 813 q 118 869 135 860 q 65 883 101 879 q 58 943 58 908 q 219 939 114 939 q 381 943 318 939 q 374 883 381 908 q 310 870 329 879 q 285 838 292 861 q 278 763 278 815 l 278 340 q 331 135 278 210 q 514 61 385 61 q 594 74 553 61 q 661 114 635 88 q 708 201 694 147 q 721 363 721 254 l 721 707 q 714 813 721 778 q 687 863 707 847 q 625 883 667 879 q 618 943 618 918 q 749 939 665 939 q 881 943 826 939 q 874 883 881 922 q 823 864 840 879 q 799 812 806 849 q 792 707 792 775 l 792 374 m 753 1332 q 740 1272 753 1304 q 247 1268 485 1272 q 251 1301 247 1281 q 260 1332 254 1321 l 753 1332 z "},"Ụ":{"ha":938,"x_min":58,"x_max":881,"o":"m 792 374 q 775 181 792 249 q 713 67 758 113 q 488 -12 633 -12 q 224 69 301 -12 q 147 321 147 151 l 147 763 q 141 836 147 813 q 118 869 135 860 q 65 883 101 879 q 58 943 58 908 q 219 939 114 939 q 381 943 318 939 q 374 883 381 908 q 310 870 329 879 q 285 838 292 861 q 278 763 278 815 l 278 340 q 331 135 278 210 q 514 61 385 61 q 594 74 553 61 q 661 114 635 88 q 708 201 694 147 q 721 363 721 254 l 721 707 q 714 813 721 778 q 687 863 707 847 q 625 883 667 879 q 618 943 618 918 q 749 939 665 939 q 881 943 826 939 q 874 883 881 922 q 823 864 840 879 q 799 812 806 849 q 792 707 792 775 l 792 374 m 474 -292 q 415 -268 439 -292 q 392 -211 392 -244 q 416 -151 392 -175 q 474 -126 440 -126 q 534 -150 511 -126 q 557 -211 557 -174 q 533 -267 557 -243 q 474 -292 508 -292 z "},"Ù":{"ha":938,"x_min":58,"x_max":881,"o":"m 792 374 q 775 181 792 249 q 713 67 758 113 q 488 -12 633 -12 q 224 69 301 -12 q 147 321 147 151 l 147 763 q 141 836 147 813 q 118 869 135 860 q 65 883 101 879 q 58 943 58 908 q 219 939 114 939 q 381 943 318 939 q 374 883 381 908 q 310 870 329 879 q 285 838 292 861 q 278 763 278 815 l 278 340 q 331 135 278 210 q 514 61 385 61 q 594 74 553 61 q 661 114 635 88 q 708 201 694 147 q 721 363 721 254 l 721 707 q 714 813 721 778 q 687 863 707 847 q 625 883 667 879 q 618 943 618 918 q 749 939 665 939 q 881 943 826 939 q 874 883 881 922 q 823 864 840 879 q 799 812 806 849 q 792 707 792 775 l 792 374 m 490 1017 q 336 1194 410 1121 q 429 1213 372 1213 q 461 1211 450 1213 q 546 1024 508 1093 q 521 1018 535 1019 q 490 1017 507 1017 z "},"Ủ":{"ha":938,"x_min":58,"x_max":881,"o":"m 792 374 q 775 181 792 249 q 713 67 758 113 q 488 -12 633 -12 q 224 69 301 -12 q 147 321 147 151 l 147 763 q 141 836 147 813 q 118 869 135 860 q 65 883 101 879 q 58 943 58 908 q 219 939 114 939 q 381 943 318 939 q 374 883 381 908 q 310 870 329 879 q 285 838 292 861 q 278 763 278 815 l 278 340 q 331 135 278 210 q 514 61 385 61 q 594 74 553 61 q 661 114 635 88 q 708 201 694 147 q 721 363 721 254 l 721 707 q 714 813 721 778 q 687 863 707 847 q 625 883 667 879 q 618 943 618 918 q 749 939 665 939 q 881 943 826 939 q 874 883 881 922 q 823 864 840 879 q 799 812 806 849 q 792 707 792 775 l 792 374 m 472 1008 q 454 1051 454 1031 q 466 1085 454 1072 q 503 1114 478 1099 q 532 1135 522 1125 q 542 1158 542 1146 q 500 1186 542 1186 q 453 1167 469 1186 q 432 1106 438 1149 q 367 1118 389 1106 q 371 1160 371 1143 q 367 1194 371 1176 q 425 1227 393 1215 q 506 1239 457 1239 q 598 1219 563 1239 q 633 1161 633 1199 q 617 1117 633 1135 q 569 1079 600 1100 q 536 1056 547 1065 q 525 1033 525 1046 q 528 1015 525 1026 q 472 1008 506 1008 z "},"Ư":{"ha":1021,"x_min":58,"x_max":1010,"o":"m 981 1114 q 1010 1029 1010 1074 q 972 933 1010 971 q 874 883 933 896 q 823 864 840 879 q 799 812 806 849 q 792 707 792 775 l 792 374 q 775 181 792 249 q 713 67 758 113 q 488 -12 633 -12 q 224 69 301 -12 q 147 321 147 151 l 147 763 q 141 836 147 813 q 118 869 135 860 q 65 883 101 879 q 58 943 58 908 q 219 939 114 939 q 381 943 318 939 q 374 883 381 908 q 310 870 329 879 q 285 838 292 861 q 278 763 278 815 l 278 340 q 331 135 278 210 q 514 61 385 61 q 594 74 553 61 q 661 114 635 88 q 708 201 694 147 q 721 363 721 254 l 721 707 q 714 813 721 778 q 687 863 707 847 q 625 883 667 879 q 618 943 618 918 q 749 939 665 939 l 769 939 q 872 962 836 940 q 907 1039 907 983 q 899 1101 907 1067 q 961 1115 929 1115 q 981 1114 974 1115 z "},"Ứ":{"ha":1021,"x_min":58,"x_max":1010,"o":"m 981 1114 q 1010 1029 1010 1074 q 972 933 1010 971 q 874 883 933 896 q 823 864 840 879 q 799 812 806 849 q 792 707 792 775 l 792 374 q 775 181 792 249 q 713 67 758 113 q 488 -12 633 -12 q 224 69 301 -12 q 147 321 147 151 l 147 763 q 141 836 147 813 q 118 869 135 860 q 65 883 101 879 q 58 943 58 908 q 219 939 114 939 q 381 943 318 939 q 374 883 381 908 q 310 870 329 879 q 285 838 292 861 q 278 763 278 815 l 278 340 q 331 135 278 210 q 514 61 385 61 q 594 74 553 61 q 661 114 635 88 q 708 201 694 147 q 721 363 721 254 l 721 707 q 714 813 721 778 q 687 863 707 847 q 625 883 667 879 q 618 943 618 918 q 749 939 665 939 l 769 939 q 872 962 836 940 q 907 1039 907 983 q 899 1101 907 1067 q 961 1115 929 1115 q 981 1114 974 1115 m 510 1017 q 479 1018 493 1017 q 454 1024 465 1019 q 532 1210 504 1125 q 599 1219 571 1219 q 664 1208 635 1219 q 510 1017 586 1115 z "},"Ự":{"ha":1021,"x_min":58,"x_max":1010,"o":"m 981 1114 q 1010 1029 1010 1074 q 972 933 1010 971 q 874 883 933 896 q 823 864 840 879 q 799 812 806 849 q 792 707 792 775 l 792 374 q 775 181 792 249 q 713 67 758 113 q 488 -12 633 -12 q 224 69 301 -12 q 147 321 147 151 l 147 763 q 141 836 147 813 q 118 869 135 860 q 65 883 101 879 q 58 943 58 908 q 219 939 114 939 q 381 943 318 939 q 374 883 381 908 q 310 870 329 879 q 285 838 292 861 q 278 763 278 815 l 278 340 q 331 135 278 210 q 514 61 385 61 q 594 74 553 61 q 661 114 635 88 q 708 201 694 147 q 721 363 721 254 l 721 707 q 714 813 721 778 q 687 863 707 847 q 625 883 667 879 q 618 943 618 918 q 749 939 665 939 l 769 939 q 872 962 836 940 q 907 1039 907 983 q 899 1101 907 1067 q 961 1115 929 1115 q 981 1114 974 1115 m 474 -292 q 415 -268 439 -292 q 392 -211 392 -244 q 416 -151 392 -175 q 474 -126 440 -126 q 534 -150 511 -126 q 557 -211 557 -174 q 533 -267 557 -243 q 474 -292 508 -292 z "},"Ừ":{"ha":1021,"x_min":58,"x_max":1010,"o":"m 981 1114 q 1010 1029 1010 1074 q 972 933 1010 971 q 874 883 933 896 q 823 864 840 879 q 799 812 806 849 q 792 707 792 775 l 792 374 q 775 181 792 249 q 713 67 758 113 q 488 -12 633 -12 q 224 69 301 -12 q 147 321 147 151 l 147 763 q 141 836 147 813 q 118 869 135 860 q 65 883 101 879 q 58 943 58 908 q 219 939 114 939 q 381 943 318 939 q 374 883 381 908 q 310 870 329 879 q 285 838 292 861 q 278 763 278 815 l 278 340 q 331 135 278 210 q 514 61 385 61 q 594 74 553 61 q 661 114 635 88 q 708 201 694 147 q 721 363 721 254 l 721 707 q 714 813 721 778 q 687 863 707 847 q 625 883 667 879 q 618 943 618 918 q 749 939 665 939 l 769 939 q 872 962 836 940 q 907 1039 907 983 q 899 1101 907 1067 q 961 1115 929 1115 q 981 1114 974 1115 m 490 1017 q 336 1194 410 1121 q 429 1213 372 1213 q 461 1211 450 1213 q 546 1024 508 1093 q 521 1018 535 1019 q 490 1017 507 1017 z "},"Ử":{"ha":1021,"x_min":58,"x_max":1010,"o":"m 981 1114 q 1010 1029 1010 1074 q 972 933 1010 971 q 874 883 933 896 q 823 864 840 879 q 799 812 806 849 q 792 707 792 775 l 792 374 q 775 181 792 249 q 713 67 758 113 q 488 -12 633 -12 q 224 69 301 -12 q 147 321 147 151 l 147 763 q 141 836 147 813 q 118 869 135 860 q 65 883 101 879 q 58 943 58 908 q 219 939 114 939 q 381 943 318 939 q 374 883 381 908 q 310 870 329 879 q 285 838 292 861 q 278 763 278 815 l 278 340 q 331 135 278 210 q 514 61 385 61 q 594 74 553 61 q 661 114 635 88 q 708 201 694 147 q 721 363 721 254 l 721 707 q 714 813 721 778 q 687 863 707 847 q 625 883 667 879 q 618 943 618 918 q 749 939 665 939 l 769 939 q 872 962 836 940 q 907 1039 907 983 q 899 1101 907 1067 q 961 1115 929 1115 q 981 1114 974 1115 m 472 1008 q 454 1051 454 1031 q 466 1085 454 1072 q 503 1114 478 1099 q 532 1135 522 1125 q 542 1158 542 1146 q 500 1186 542 1186 q 453 1167 469 1186 q 432 1106 438 1149 q 367 1118 389 1106 q 371 1160 371 1143 q 367 1194 371 1176 q 425 1227 393 1215 q 506 1239 457 1239 q 598 1219 563 1239 q 633 1161 633 1199 q 617 1117 633 1135 q 569 1079 600 1100 q 536 1056 547 1065 q 525 1033 525 1046 q 528 1015 525 1026 q 472 1008 506 1008 z "},"Ữ":{"ha":1021,"x_min":58,"x_max":1010,"o":"m 981 1114 q 1010 1029 1010 1074 q 972 933 1010 971 q 874 883 933 896 q 823 864 840 879 q 799 812 806 849 q 792 707 792 775 l 792 374 q 775 181 792 249 q 713 67 758 113 q 488 -12 633 -12 q 224 69 301 -12 q 147 321 147 151 l 147 763 q 141 836 147 813 q 118 869 135 860 q 65 883 101 879 q 58 943 58 908 q 219 939 114 939 q 381 943 318 939 q 374 883 381 908 q 310 870 329 879 q 285 838 292 861 q 278 763 278 815 l 278 340 q 331 135 278 210 q 514 61 385 61 q 594 74 553 61 q 661 114 635 88 q 708 201 694 147 q 721 363 721 254 l 721 707 q 714 813 721 778 q 687 863 707 847 q 625 883 667 879 q 618 943 618 918 q 749 939 665 939 l 769 939 q 872 962 836 940 q 907 1039 907 983 q 899 1101 907 1067 q 961 1115 929 1115 q 981 1114 974 1115 m 579 1039 q 535 1045 556 1039 q 483 1064 514 1051 q 432 1082 451 1076 q 392 1088 413 1088 q 293 1043 342 1088 q 275 1086 275 1057 q 429 1176 343 1176 q 531 1151 469 1176 q 575 1135 557 1140 q 611 1129 593 1129 q 689 1165 653 1129 q 725 1146 714 1161 q 579 1039 667 1039 z "},"Ű":{"ha":938,"x_min":58,"x_max":881,"o":"m 792 374 q 775 181 792 249 q 713 67 758 113 q 488 -12 633 -12 q 224 69 301 -12 q 147 321 147 151 l 147 763 q 141 836 147 813 q 118 869 135 860 q 65 883 101 879 q 58 943 58 908 q 219 939 114 939 q 381 943 318 939 q 374 883 381 908 q 310 870 329 879 q 285 838 292 861 q 278 763 278 815 l 278 340 q 331 135 278 210 q 514 61 385 61 q 594 74 553 61 q 661 114 635 88 q 708 201 694 147 q 721 363 721 254 l 721 707 q 714 813 721 778 q 687 863 707 847 q 625 883 667 879 q 618 943 618 918 q 749 939 665 939 q 881 943 826 939 q 874 883 881 922 q 823 864 840 879 q 799 812 806 849 q 792 707 792 775 l 792 374 m 392 1017 q 342 1036 364 1017 q 413 1206 382 1118 q 508 1222 457 1222 q 556 1213 536 1222 q 392 1017 472 1125 m 614 1017 q 564 1036 586 1017 q 635 1206 604 1118 q 731 1222 679 1222 q 778 1213 758 1222 q 614 1017 686 1114 z "},"Ȗ":{"ha":938,"x_min":58,"x_max":881,"o":"m 792 374 q 775 181 792 249 q 713 67 758 113 q 488 -12 633 -12 q 224 69 301 -12 q 147 321 147 151 l 147 763 q 141 836 147 813 q 118 869 135 860 q 65 883 101 879 q 58 943 58 908 q 219 939 114 939 q 381 943 318 939 q 374 883 381 908 q 310 870 329 879 q 285 838 292 861 q 278 763 278 815 l 278 340 q 331 135 278 210 q 514 61 385 61 q 594 74 553 61 q 661 114 635 88 q 708 201 694 147 q 721 363 721 254 l 721 707 q 714 813 721 778 q 687 863 707 847 q 625 883 667 879 q 618 943 618 918 q 749 939 665 939 q 881 943 826 939 q 874 883 881 922 q 823 864 840 879 q 799 812 806 849 q 792 707 792 775 l 792 374 m 293 1018 q 347 1159 293 1110 q 501 1208 401 1208 q 653 1160 600 1208 q 706 1024 706 1113 q 643 1011 678 1008 q 593 1090 635 1061 q 489 1119 551 1119 q 388 1090 426 1119 q 346 1011 349 1061 q 293 1018 314 1008 z "},"Ū":{"ha":938,"x_min":58,"x_max":881,"o":"m 792 374 q 775 181 792 249 q 713 67 758 113 q 488 -12 633 -12 q 224 69 301 -12 q 147 321 147 151 l 147 763 q 141 836 147 813 q 118 869 135 860 q 65 883 101 879 q 58 943 58 908 q 219 939 114 939 q 381 943 318 939 q 374 883 381 908 q 310 870 329 879 q 285 838 292 861 q 278 763 278 815 l 278 340 q 331 135 278 210 q 514 61 385 61 q 594 74 553 61 q 661 114 635 88 q 708 201 694 147 q 721 363 721 254 l 721 707 q 714 813 721 778 q 687 863 707 847 q 625 883 667 879 q 618 943 618 918 q 749 939 665 939 q 881 943 826 939 q 874 883 881 922 q 823 864 840 879 q 799 812 806 849 q 792 707 792 775 l 792 374 m 753 1118 q 740 1058 753 1090 q 247 1054 485 1058 q 251 1087 247 1067 q 260 1118 254 1107 l 753 1118 z "},"Ṻ":{"ha":938,"x_min":58,"x_max":881,"o":"m 792 374 q 775 181 792 249 q 713 67 758 113 q 488 -12 633 -12 q 224 69 301 -12 q 147 321 147 151 l 147 763 q 141 836 147 813 q 118 869 135 860 q 65 883 101 879 q 58 943 58 908 q 219 939 114 939 q 381 943 318 939 q 374 883 381 908 q 310 870 329 879 q 285 838 292 861 q 278 763 278 815 l 278 340 q 331 135 278 210 q 514 61 385 61 q 594 74 553 61 q 661 114 635 88 q 708 201 694 147 q 721 363 721 254 l 721 707 q 714 813 721 778 q 687 863 707 847 q 625 883 667 879 q 618 943 618 918 q 749 939 665 939 q 881 943 826 939 q 874 883 881 922 q 823 864 840 879 q 799 812 806 849 q 792 707 792 775 l 792 374 m 753 1118 q 740 1058 753 1090 q 247 1054 485 1058 q 251 1087 247 1067 q 260 1118 254 1107 l 753 1118 z "},"Ų":{"ha":938,"x_min":58,"x_max":881,"o":"m 749 939 q 881 943 826 939 q 874 883 881 922 q 823 864 840 879 q 799 812 806 849 q 792 707 792 775 l 792 374 q 775 181 792 249 q 713 67 758 113 q 676 36 701 56 q 590 -48 618 -7 q 561 -137 561 -89 q 585 -206 561 -185 q 649 -226 610 -226 q 707 -215 679 -226 q 717 -269 718 -237 q 614 -343 663 -297 q 588 -346 606 -346 q 494 -308 535 -346 q 453 -194 453 -271 q 478 -96 453 -142 q 561 -7 503 -50 q 488 -12 529 -12 q 224 69 301 -12 q 147 321 147 151 l 147 763 q 141 836 147 813 q 118 869 135 860 q 65 883 101 879 q 58 943 58 908 q 219 939 114 939 q 381 943 318 939 q 374 883 381 908 q 310 870 329 879 q 285 838 292 861 q 278 763 278 815 l 278 340 q 331 135 278 210 q 514 61 385 61 q 594 74 553 61 q 661 114 635 88 q 708 201 694 147 q 721 363 721 254 l 721 707 q 714 813 721 778 q 687 863 707 847 q 625 883 667 879 q 618 943 618 918 q 749 939 665 939 z "},"Ů":{"ha":938,"x_min":58,"x_max":881,"o":"m 792 374 q 775 181 792 249 q 713 67 758 113 q 488 -12 633 -12 q 224 69 301 -12 q 147 321 147 151 l 147 763 q 141 836 147 813 q 118 869 135 860 q 65 883 101 879 q 58 943 58 908 q 219 939 114 939 q 381 943 318 939 q 374 883 381 908 q 310 870 329 879 q 285 838 292 861 q 278 763 278 815 l 278 340 q 331 135 278 210 q 514 61 385 61 q 594 74 553 61 q 661 114 635 88 q 708 201 694 147 q 721 363 721 254 l 721 707 q 714 813 721 778 q 687 863 707 847 q 625 883 667 879 q 618 943 618 918 q 749 939 665 939 q 881 943 826 939 q 874 883 881 922 q 823 864 840 879 q 799 812 806 849 q 792 707 792 775 l 792 374 m 494 1004 q 405 1033 442 1004 q 368 1107 368 1061 q 407 1185 368 1154 q 504 1217 446 1217 q 594 1190 557 1217 q 632 1115 632 1164 q 592 1036 632 1068 q 494 1004 553 1004 m 507 1047 q 545 1063 529 1047 q 561 1104 561 1079 q 544 1155 561 1132 q 494 1178 526 1178 q 456 1160 471 1178 q 440 1113 440 1143 q 458 1065 440 1083 q 507 1047 475 1047 z "},"Ũ":{"ha":938,"x_min":58,"x_max":881,"o":"m 792 374 q 775 181 792 249 q 713 67 758 113 q 488 -12 633 -12 q 224 69 301 -12 q 147 321 147 151 l 147 763 q 141 836 147 813 q 118 869 135 860 q 65 883 101 879 q 58 943 58 908 q 219 939 114 939 q 381 943 318 939 q 374 883 381 908 q 310 870 329 879 q 285 838 292 861 q 278 763 278 815 l 278 340 q 331 135 278 210 q 514 61 385 61 q 594 74 553 61 q 661 114 635 88 q 708 201 694 147 q 721 363 721 254 l 721 707 q 714 813 721 778 q 687 863 707 847 q 625 883 667 879 q 618 943 618 918 q 749 939 665 939 q 881 943 826 939 q 874 883 881 922 q 823 864 840 879 q 799 812 806 849 q 792 707 792 775 l 792 374 m 579 1039 q 535 1045 556 1039 q 483 1064 514 1051 q 432 1082 451 1076 q 392 1088 413 1088 q 293 1043 342 1088 q 275 1086 275 1057 q 429 1176 343 1176 q 531 1151 469 1176 q 575 1135 557 1140 q 611 1129 593 1129 q 689 1165 653 1129 q 725 1146 714 1161 q 579 1039 667 1039 z "},"Ṹ":{"ha":938,"x_min":58,"x_max":881,"o":"m 792 374 q 775 181 792 249 q 713 67 758 113 q 488 -12 633 -12 q 224 69 301 -12 q 147 321 147 151 l 147 763 q 141 836 147 813 q 118 869 135 860 q 65 883 101 879 q 58 943 58 908 q 219 939 114 939 q 381 943 318 939 q 374 883 381 908 q 310 870 329 879 q 285 838 292 861 q 278 763 278 815 l 278 340 q 331 135 278 210 q 514 61 385 61 q 594 74 553 61 q 661 114 635 88 q 708 201 694 147 q 721 363 721 254 l 721 707 q 714 813 721 778 q 687 863 707 847 q 625 883 667 879 q 618 943 618 918 q 749 939 665 939 q 881 943 826 939 q 874 883 881 922 q 823 864 840 879 q 799 812 806 849 q 792 707 792 775 l 792 374 m 579 1039 q 535 1045 556 1039 q 483 1064 514 1051 q 432 1082 451 1076 q 392 1088 413 1088 q 293 1043 342 1088 q 275 1086 275 1057 q 429 1176 343 1176 q 531 1151 469 1176 q 575 1135 557 1140 q 611 1129 593 1129 q 689 1165 653 1129 q 725 1146 714 1161 q 579 1039 667 1039 m 510 1240 q 479 1242 493 1240 q 454 1247 465 1243 q 532 1433 504 1349 q 599 1443 571 1443 q 664 1432 635 1443 q 510 1240 586 1339 z "},"V":{"ha":953,"x_min":35,"x_max":918,"o":"m 776 939 q 918 943 858 939 q 911 883 918 910 q 847 836 871 874 q 792 719 822 799 q 501 -3 654 367 q 447 -8 478 -8 q 160 724 286 426 q 113 828 128 799 q 83 869 97 858 q 42 883 68 881 q 35 943 35 911 q 203 939 89 939 q 371 943 292 939 q 364 883 371 915 q 297 870 317 881 q 276 833 276 860 q 308 731 276 803 q 515 197 403 507 q 722 714 636 472 q 742 806 742 769 q 724 859 742 840 q 665 883 706 878 q 658 943 658 910 q 776 939 719 939 z "},"W":{"ha":1393,"x_min":35,"x_max":1358,"o":"m 1226 939 q 1358 943 1303 939 q 1349 883 1358 911 q 1307 860 1324 878 q 1274 802 1290 842 q 1232 682 1257 763 l 1015 -4 q 960 -12 993 -12 q 689 725 821 382 l 444 -4 q 385 -12 422 -12 q 151 724 261 392 q 110 832 125 801 q 83 872 96 863 q 42 883 69 881 q 35 943 35 906 q 192 939 101 939 q 360 943 283 939 q 353 883 360 911 q 283 872 303 881 q 264 836 264 863 q 288 740 264 808 q 450 222 390 421 l 694 943 q 756 950 713 950 q 1021 219 881 624 l 1168 686 q 1190 797 1190 761 q 1169 858 1190 838 q 1101 883 1147 878 q 1092 943 1092 908 q 1226 939 1150 939 z "},"Ẃ":{"ha":1393,"x_min":35,"x_max":1358,"o":"m 1226 939 q 1358 943 1303 939 q 1349 883 1358 911 q 1307 860 1324 878 q 1274 802 1290 842 q 1232 682 1257 763 l 1015 -4 q 960 -12 993 -12 q 689 725 821 382 l 444 -4 q 385 -12 422 -12 q 151 724 261 392 q 110 832 125 801 q 83 872 96 863 q 42 883 69 881 q 35 943 35 906 q 192 939 101 939 q 360 943 283 939 q 353 883 360 911 q 283 872 303 881 q 264 836 264 863 q 288 740 264 808 q 450 222 390 421 l 694 943 q 756 950 713 950 q 1021 219 881 624 l 1168 686 q 1190 797 1190 761 q 1169 858 1190 838 q 1101 883 1147 878 q 1092 943 1092 908 q 1226 939 1150 939 m 736 1017 q 706 1018 719 1017 q 681 1024 692 1019 q 758 1210 731 1125 q 825 1219 797 1219 q 890 1208 861 1219 q 736 1017 813 1115 z "},"Ŵ":{"ha":1393,"x_min":35,"x_max":1358,"o":"m 1226 939 q 1358 943 1303 939 q 1349 883 1358 911 q 1307 860 1324 878 q 1274 802 1290 842 q 1232 682 1257 763 l 1015 -4 q 960 -12 993 -12 q 689 725 821 382 l 444 -4 q 385 -12 422 -12 q 151 724 261 392 q 110 832 125 801 q 83 872 96 863 q 42 883 69 881 q 35 943 35 906 q 192 939 101 939 q 360 943 283 939 q 353 883 360 911 q 283 872 303 881 q 264 836 264 863 q 288 740 264 808 q 450 222 390 421 l 694 943 q 756 950 713 950 q 1021 219 881 624 l 1168 686 q 1190 797 1190 761 q 1169 858 1190 838 q 1101 883 1147 878 q 1092 943 1092 908 q 1226 939 1150 939 m 536 1011 q 514 1058 518 1021 q 615 1132 563 1090 q 708 1214 668 1174 q 757 1219 729 1219 q 938 1047 832 1133 q 890 1015 922 1024 l 857 1035 q 721 1111 775 1086 q 628 1064 690 1097 q 536 1011 565 1031 z "},"Ẅ":{"ha":1393,"x_min":35,"x_max":1358,"o":"m 1226 939 q 1358 943 1303 939 q 1349 883 1358 911 q 1307 860 1324 878 q 1274 802 1290 842 q 1232 682 1257 763 l 1015 -4 q 960 -12 993 -12 q 689 725 821 382 l 444 -4 q 385 -12 422 -12 q 151 724 261 392 q 110 832 125 801 q 83 872 96 863 q 42 883 69 881 q 35 943 35 906 q 192 939 101 939 q 360 943 283 939 q 353 883 360 911 q 283 872 303 881 q 264 836 264 863 q 288 740 264 808 q 450 222 390 421 l 694 943 q 756 950 713 950 q 1021 219 881 624 l 1168 686 q 1190 797 1190 761 q 1169 858 1190 838 q 1101 883 1147 878 q 1092 943 1092 908 q 1226 939 1150 939 z "},"Ẁ":{"ha":1393,"x_min":35,"x_max":1358,"o":"m 1226 939 q 1358 943 1303 939 q 1349 883 1358 911 q 1307 860 1324 878 q 1274 802 1290 842 q 1232 682 1257 763 l 1015 -4 q 960 -12 993 -12 q 689 725 821 382 l 444 -4 q 385 -12 422 -12 q 151 724 261 392 q 110 832 125 801 q 83 872 96 863 q 42 883 69 881 q 35 943 35 906 q 192 939 101 939 q 360 943 283 939 q 353 883 360 911 q 283 872 303 881 q 264 836 264 863 q 288 740 264 808 q 450 222 390 421 l 694 943 q 756 950 713 950 q 1021 219 881 624 l 1168 686 q 1190 797 1190 761 q 1169 858 1190 838 q 1101 883 1147 878 q 1092 943 1092 908 q 1226 939 1150 939 m 717 1017 q 563 1194 636 1121 q 656 1213 599 1213 q 688 1211 676 1213 q 772 1024 735 1093 q 747 1018 761 1019 q 717 1017 733 1017 z "},"X":{"ha":926,"x_min":56,"x_max":871,"o":"m 863 56 q 871 -4 871 31 q 701 0 811 0 q 533 -3 617 0 q 539 56 533 29 q 588 67 572 60 q 604 96 604 75 q 561 200 604 129 q 489 321 514 281 l 444 394 l 322 215 q 272 108 272 142 q 346 56 272 68 q 353 -4 353 32 q 200 0 282 0 q 56 -4 113 0 q 64 58 56 35 q 229 200 140 78 l 407 454 q 238 717 296 629 q 163 826 186 796 q 126 867 140 857 q 86 882 111 878 q 78 943 78 908 q 247 939 151 939 q 415 942 329 939 q 410 883 415 911 q 359 865 375 876 q 343 835 343 854 q 388 735 343 801 q 501 560 426 676 l 603 719 q 653 835 653 801 q 635 867 653 856 q 582 883 618 879 q 575 943 575 910 q 717 939 644 939 q 854 943 803 939 q 849 883 854 904 q 780 843 813 874 q 689 724 747 813 l 540 497 q 711 218 628 357 q 798 92 768 124 q 863 56 828 61 z "},"Y":{"ha":875,"x_min":35,"x_max":840,"o":"m 721 939 q 840 942 776 939 q 835 888 840 914 q 763 842 796 876 q 694 738 729 807 l 507 361 l 507 226 q 514 118 507 150 q 542 74 521 86 q 614 56 563 63 q 622 -4 622 31 l 557 -3 q 446 0 479 0 q 257 -3 335 0 q 265 56 257 31 q 340 71 318 60 q 369 111 361 82 q 376 208 376 140 l 376 360 l 146 803 q 102 865 124 847 q 43 885 81 883 q 35 942 35 910 q 179 939 113 939 q 365 942 322 939 q 358 888 365 913 q 294 846 294 882 q 319 774 294 822 q 482 436 403 614 q 632 753 558 604 q 661 838 661 811 q 645 869 661 858 q 594 885 629 879 q 585 942 585 919 q 721 939 618 939 z "},"Ý":{"ha":875,"x_min":35,"x_max":840,"o":"m 721 939 q 840 942 776 939 q 835 888 840 914 q 763 842 796 876 q 694 738 729 807 l 507 361 l 507 226 q 514 118 507 150 q 542 74 521 86 q 614 56 563 63 q 622 -4 622 31 l 557 -3 q 446 0 479 0 q 257 -3 335 0 q 265 56 257 31 q 340 71 318 60 q 369 111 361 82 q 376 208 376 140 l 376 360 l 146 803 q 102 865 124 847 q 43 885 81 883 q 35 942 35 910 q 179 939 113 939 q 365 942 322 939 q 358 888 365 913 q 294 846 294 882 q 319 774 294 822 q 482 436 403 614 q 632 753 558 604 q 661 838 661 811 q 645 869 661 858 q 594 885 629 879 q 585 942 585 919 q 721 939 618 939 m 485 1017 q 454 1018 468 1017 q 429 1024 440 1019 q 507 1210 479 1125 q 574 1219 546 1219 q 639 1208 610 1219 q 485 1017 561 1115 z "},"Ŷ":{"ha":875,"x_min":35,"x_max":840,"o":"m 721 939 q 840 942 776 939 q 835 888 840 914 q 763 842 796 876 q 694 738 729 807 l 507 361 l 507 226 q 514 118 507 150 q 542 74 521 86 q 614 56 563 63 q 622 -4 622 31 l 557 -3 q 446 0 479 0 q 257 -3 335 0 q 265 56 257 31 q 340 71 318 60 q 369 111 361 82 q 376 208 376 140 l 376 360 l 146 803 q 102 865 124 847 q 43 885 81 883 q 35 942 35 910 q 179 939 113 939 q 365 942 322 939 q 358 888 365 913 q 294 846 294 882 q 319 774 294 822 q 482 436 403 614 q 632 753 558 604 q 661 838 661 811 q 645 869 661 858 q 594 885 629 879 q 585 942 585 919 q 721 939 618 939 m 285 1011 q 263 1058 267 1021 q 364 1132 311 1090 q 457 1214 417 1174 q 506 1219 478 1219 q 686 1047 581 1133 q 639 1015 671 1024 l 606 1035 q 469 1111 524 1086 q 376 1064 439 1097 q 285 1011 314 1031 z "},"Ÿ":{"ha":875,"x_min":35,"x_max":840,"o":"m 721 939 q 840 942 776 939 q 835 888 840 914 q 763 842 796 876 q 694 738 729 807 l 507 361 l 507 226 q 514 118 507 150 q 542 74 521 86 q 614 56 563 63 q 622 -4 622 31 l 557 -3 q 446 0 479 0 q 257 -3 335 0 q 265 56 257 31 q 340 71 318 60 q 369 111 361 82 q 376 208 376 140 l 376 360 l 146 803 q 102 865 124 847 q 43 885 81 883 q 35 942 35 910 q 179 939 113 939 q 365 942 322 939 q 358 888 365 913 q 294 846 294 882 q 319 774 294 822 q 482 436 403 614 q 632 753 558 604 q 661 838 661 811 q 645 869 661 858 q 594 885 629 879 q 585 942 585 919 q 721 939 618 939 z "},"Ẏ":{"ha":875,"x_min":35,"x_max":840,"o":"m 721 939 q 840 942 776 939 q 835 888 840 914 q 763 842 796 876 q 694 738 729 807 l 507 361 l 507 226 q 514 118 507 150 q 542 74 521 86 q 614 56 563 63 q 622 -4 622 31 l 557 -3 q 446 0 479 0 q 257 -3 335 0 q 265 56 257 31 q 340 71 318 60 q 369 111 361 82 q 376 208 376 140 l 376 360 l 146 803 q 102 865 124 847 q 43 885 81 883 q 35 942 35 910 q 179 939 113 939 q 365 942 322 939 q 358 888 365 913 q 294 846 294 882 q 319 774 294 822 q 482 436 403 614 q 632 753 558 604 q 661 838 661 811 q 645 869 661 858 q 594 885 629 879 q 585 942 585 919 q 721 939 618 939 z "},"Ỵ":{"ha":875,"x_min":35,"x_max":840,"o":"m 721 939 q 840 942 776 939 q 835 888 840 914 q 763 842 796 876 q 694 738 729 807 l 507 361 l 507 226 q 514 118 507 150 q 542 74 521 86 q 614 56 563 63 q 622 -4 622 31 l 557 -3 q 446 0 479 0 q 257 -3 335 0 q 265 56 257 31 q 340 71 318 60 q 369 111 361 82 q 376 208 376 140 l 376 360 l 146 803 q 102 865 124 847 q 43 885 81 883 q 35 942 35 910 q 179 939 113 939 q 365 942 322 939 q 358 888 365 913 q 294 846 294 882 q 319 774 294 822 q 482 436 403 614 q 632 753 558 604 q 661 838 661 811 q 645 869 661 858 q 594 885 629 879 q 585 942 585 919 q 721 939 618 939 m 439 -292 q 381 -268 404 -292 q 357 -211 357 -244 q 381 -151 357 -175 q 439 -126 406 -126 q 499 -150 476 -126 q 522 -211 522 -174 q 498 -267 522 -243 q 439 -292 474 -292 z "},"Ỳ":{"ha":875,"x_min":35,"x_max":840,"o":"m 721 939 q 840 942 776 939 q 835 888 840 914 q 763 842 796 876 q 694 738 729 807 l 507 361 l 507 226 q 514 118 507 150 q 542 74 521 86 q 614 56 563 63 q 622 -4 622 31 l 557 -3 q 446 0 479 0 q 257 -3 335 0 q 265 56 257 31 q 340 71 318 60 q 369 111 361 82 q 376 208 376 140 l 376 360 l 146 803 q 102 865 124 847 q 43 885 81 883 q 35 942 35 910 q 179 939 113 939 q 365 942 322 939 q 358 888 365 913 q 294 846 294 882 q 319 774 294 822 q 482 436 403 614 q 632 753 558 604 q 661 838 661 811 q 645 869 661 858 q 594 885 629 879 q 585 942 585 919 q 721 939 618 939 m 465 1017 q 311 1194 385 1121 q 404 1213 347 1213 q 436 1211 425 1213 q 521 1024 483 1093 q 496 1018 510 1019 q 465 1017 482 1017 z "},"Ỷ":{"ha":875,"x_min":35,"x_max":840,"o":"m 721 939 q 840 942 776 939 q 835 888 840 914 q 763 842 796 876 q 694 738 729 807 l 507 361 l 507 226 q 514 118 507 150 q 542 74 521 86 q 614 56 563 63 q 622 -4 622 31 l 557 -3 q 446 0 479 0 q 257 -3 335 0 q 265 56 257 31 q 340 71 318 60 q 369 111 361 82 q 376 208 376 140 l 376 360 l 146 803 q 102 865 124 847 q 43 885 81 883 q 35 942 35 910 q 179 939 113 939 q 365 942 322 939 q 358 888 365 913 q 294 846 294 882 q 319 774 294 822 q 482 436 403 614 q 632 753 558 604 q 661 838 661 811 q 645 869 661 858 q 594 885 629 879 q 585 942 585 919 q 721 939 618 939 m 447 1008 q 429 1051 429 1031 q 441 1085 429 1072 q 478 1114 453 1099 q 507 1135 497 1125 q 517 1158 517 1146 q 475 1186 517 1186 q 428 1167 444 1186 q 407 1106 413 1149 q 342 1118 364 1106 q 346 1160 346 1143 q 342 1194 346 1176 q 400 1227 368 1215 q 481 1239 432 1239 q 573 1219 538 1239 q 608 1161 608 1199 q 592 1117 608 1135 q 544 1079 575 1100 q 511 1056 522 1065 q 500 1033 500 1046 q 503 1015 500 1026 q 447 1008 481 1008 z "},"Ȳ":{"ha":875,"x_min":35,"x_max":840,"o":"m 721 939 q 840 942 776 939 q 835 888 840 914 q 763 842 796 876 q 694 738 729 807 l 507 361 l 507 226 q 514 118 507 150 q 542 74 521 86 q 614 56 563 63 q 622 -4 622 31 l 557 -3 q 446 0 479 0 q 257 -3 335 0 q 265 56 257 31 q 340 71 318 60 q 369 111 361 82 q 376 208 376 140 l 376 360 l 146 803 q 102 865 124 847 q 43 885 81 883 q 35 942 35 910 q 179 939 113 939 q 365 942 322 939 q 358 888 365 913 q 294 846 294 882 q 319 774 294 822 q 482 436 403 614 q 632 753 558 604 q 661 838 661 811 q 645 869 661 858 q 594 885 629 879 q 585 942 585 919 q 721 939 618 939 m 728 1118 q 715 1058 728 1090 q 222 1054 460 1058 q 226 1087 222 1067 q 235 1118 229 1107 l 728 1118 z "},"Ỹ":{"ha":875,"x_min":35,"x_max":840,"o":"m 721 939 q 840 942 776 939 q 835 888 840 914 q 763 842 796 876 q 694 738 729 807 l 507 361 l 507 226 q 514 118 507 150 q 542 74 521 86 q 614 56 563 63 q 622 -4 622 31 l 557 -3 q 446 0 479 0 q 257 -3 335 0 q 265 56 257 31 q 340 71 318 60 q 369 111 361 82 q 376 208 376 140 l 376 360 l 146 803 q 102 865 124 847 q 43 885 81 883 q 35 942 35 910 q 179 939 113 939 q 365 942 322 939 q 358 888 365 913 q 294 846 294 882 q 319 774 294 822 q 482 436 403 614 q 632 753 558 604 q 661 838 661 811 q 645 869 661 858 q 594 885 629 879 q 585 942 585 919 q 721 939 618 939 m 554 1039 q 510 1045 531 1039 q 458 1064 489 1051 q 407 1082 426 1076 q 367 1088 388 1088 q 268 1043 317 1088 q 250 1086 250 1057 q 404 1176 318 1176 q 506 1151 444 1176 q 550 1135 532 1140 q 586 1129 568 1129 q 664 1165 628 1129 q 700 1146 689 1161 q 554 1039 642 1039 z "},"Z":{"ha":876,"x_min":81,"x_max":789,"o":"m 717 235 q 789 211 763 231 q 764 -4 767 121 q 401 0 628 0 q 92 -4 178 0 q 81 40 81 18 q 370 511 258 328 q 590 883 482 694 l 393 883 q 291 870 328 883 q 231 819 254 857 q 194 706 208 781 q 115 719 138 706 q 135 824 128 763 q 142 942 142 885 q 481 939 256 939 q 747 942 649 939 q 763 896 763 924 q 257 58 497 432 l 471 58 q 607 72 561 58 q 677 121 653 85 q 717 235 701 157 z "},"Ź":{"ha":876,"x_min":81,"x_max":789,"o":"m 717 235 q 789 211 763 231 q 764 -4 767 121 q 401 0 628 0 q 92 -4 178 0 q 81 40 81 18 q 370 511 258 328 q 590 883 482 694 l 393 883 q 291 870 328 883 q 231 819 254 857 q 194 706 208 781 q 115 719 138 706 q 135 824 128 763 q 142 942 142 885 q 481 939 256 939 q 747 942 649 939 q 763 896 763 924 q 257 58 497 432 l 471 58 q 607 72 561 58 q 677 121 653 85 q 717 235 701 157 m 469 1017 q 439 1018 453 1017 q 414 1024 425 1019 q 492 1210 464 1125 q 558 1219 531 1219 q 624 1208 594 1219 q 469 1017 546 1115 z "},"Ž":{"ha":876,"x_min":81,"x_max":789,"o":"m 717 235 q 789 211 763 231 q 764 -4 767 121 q 401 0 628 0 q 92 -4 178 0 q 81 40 81 18 q 370 511 258 328 q 590 883 482 694 l 393 883 q 291 870 328 883 q 231 819 254 857 q 194 706 208 781 q 115 719 138 706 q 135 824 128 763 q 142 942 142 885 q 481 939 256 939 q 747 942 649 939 q 763 896 763 924 q 257 58 497 432 l 471 58 q 607 72 561 58 q 677 121 653 85 q 717 235 701 157 m 428 1015 q 247 1188 353 1101 q 294 1219 263 1211 l 328 1200 q 464 1124 410 1149 q 557 1171 494 1138 q 649 1224 619 1204 q 671 1176 667 1214 q 569 1103 622 1144 q 476 1021 517 1061 q 428 1015 456 1015 z "},"Ẑ":{"ha":876,"x_min":81,"x_max":789,"o":"m 717 235 q 789 211 763 231 q 764 -4 767 121 q 401 0 628 0 q 92 -4 178 0 q 81 40 81 18 q 370 511 258 328 q 590 883 482 694 l 393 883 q 291 870 328 883 q 231 819 254 857 q 194 706 208 781 q 115 719 138 706 q 135 824 128 763 q 142 942 142 885 q 481 939 256 939 q 747 942 649 939 q 763 896 763 924 q 257 58 497 432 l 471 58 q 607 72 561 58 q 677 121 653 85 q 717 235 701 157 m 269 1011 q 247 1058 251 1021 q 349 1132 296 1090 q 442 1214 401 1174 q 490 1219 463 1219 q 671 1047 565 1133 q 624 1015 656 1024 l 590 1035 q 454 1111 508 1086 q 361 1064 424 1097 q 269 1011 299 1031 z "},"Ż":{"ha":876,"x_min":81,"x_max":789,"o":"m 717 235 q 789 211 763 231 q 764 -4 767 121 q 401 0 628 0 q 92 -4 178 0 q 81 40 81 18 q 370 511 258 328 q 590 883 482 694 l 393 883 q 291 870 328 883 q 231 819 254 857 q 194 706 208 781 q 115 719 138 706 q 135 824 128 763 q 142 942 142 885 q 481 939 256 939 q 747 942 649 939 q 763 896 763 924 q 257 58 497 432 l 471 58 q 607 72 561 58 q 677 121 653 85 q 717 235 701 157 z "},"Ẓ":{"ha":876,"x_min":81,"x_max":789,"o":"m 717 235 q 789 211 763 231 q 764 -4 767 121 q 401 0 628 0 q 92 -4 178 0 q 81 40 81 18 q 370 511 258 328 q 590 883 482 694 l 393 883 q 291 870 328 883 q 231 819 254 857 q 194 706 208 781 q 115 719 138 706 q 135 824 128 763 q 142 942 142 885 q 481 939 256 939 q 747 942 649 939 q 763 896 763 924 q 257 58 497 432 l 471 58 q 607 72 561 58 q 677 121 653 85 q 717 235 701 157 m 438 -292 q 379 -268 403 -292 q 356 -211 356 -244 q 380 -151 356 -175 q 438 -126 404 -126 q 498 -150 475 -126 q 521 -211 521 -174 q 497 -267 521 -243 q 438 -292 472 -292 z "},"a":{"ha":692,"x_min":69,"x_max":636,"o":"m 550 203 q 556 138 550 160 q 581 107 563 117 q 636 94 599 97 q 628 31 636 54 q 551 16 593 28 q 476 -12 508 4 q 451 13 460 -6 q 443 69 443 32 q 444 106 443 93 q 396 38 428 65 q 249 -10 342 -10 q 116 29 163 -10 q 69 138 69 68 q 129 269 69 219 q 263 339 189 318 q 425 372 336 360 q 419 490 425 457 q 396 544 414 522 q 310 586 363 586 q 219 535 247 586 q 188 425 190 483 q 147 428 169 425 q 115 435 125 431 q 117 482 117 449 q 108 586 117 543 q 228 632 164 615 q 344 649 292 649 q 492 596 439 649 q 538 508 525 563 q 550 356 550 453 l 550 203 m 425 315 q 314 295 358 307 q 237 252 269 283 q 204 165 204 221 q 228 92 204 117 q 288 67 251 67 q 352 88 321 67 q 404 153 383 108 q 425 263 425 197 l 425 315 z "},"á":{"ha":692,"x_min":69,"x_max":636,"o":"m 550 203 q 556 138 550 160 q 581 107 563 117 q 636 94 599 97 q 628 31 636 54 q 551 16 593 28 q 476 -12 508 4 q 451 13 460 -6 q 443 69 443 32 q 444 106 443 93 q 396 38 428 65 q 249 -10 342 -10 q 116 29 163 -10 q 69 138 69 68 q 129 269 69 219 q 263 339 189 318 q 425 372 336 360 q 419 490 425 457 q 396 544 414 522 q 310 586 363 586 q 219 535 247 586 q 188 425 190 483 q 147 428 169 425 q 115 435 125 431 q 117 482 117 449 q 108 586 117 543 q 228 632 164 615 q 344 649 292 649 q 492 596 439 649 q 538 508 525 563 q 550 356 550 453 l 550 203 m 425 315 q 314 295 358 307 q 237 252 269 283 q 204 165 204 221 q 228 92 204 117 q 288 67 251 67 q 352 88 321 67 q 404 153 383 108 q 425 263 425 197 l 425 315 m 340 738 q 290 746 311 735 q 381 985 353 874 q 474 1001 429 1001 q 524 992 504 1001 q 340 738 443 899 z "},"ă":{"ha":692,"x_min":69,"x_max":636,"o":"m 550 203 q 556 138 550 160 q 581 107 563 117 q 636 94 599 97 q 628 31 636 54 q 551 16 593 28 q 476 -12 508 4 q 451 13 460 -6 q 443 69 443 32 q 444 106 443 93 q 396 38 428 65 q 249 -10 342 -10 q 116 29 163 -10 q 69 138 69 68 q 129 269 69 219 q 263 339 189 318 q 425 372 336 360 q 419 490 425 457 q 396 544 414 522 q 310 586 363 586 q 219 535 247 586 q 188 425 190 483 q 147 428 169 425 q 115 435 125 431 q 117 482 117 449 q 108 586 117 543 q 228 632 164 615 q 344 649 292 649 q 492 596 439 649 q 538 508 525 563 q 550 356 550 453 l 550 203 m 425 315 q 314 295 358 307 q 237 252 269 283 q 204 165 204 221 q 228 92 204 117 q 288 67 251 67 q 352 88 321 67 q 404 153 383 108 q 425 263 425 197 l 425 315 m 563 968 q 501 794 563 856 q 329 732 440 732 q 160 792 219 732 q 100 961 100 851 q 156 976 126 976 q 217 864 167 906 q 343 822 267 822 q 466 864 419 822 q 517 976 513 906 q 563 968 550 976 z "},"ắ":{"ha":692,"x_min":69,"x_max":636,"o":"m 550 203 q 556 138 550 160 q 581 107 563 117 q 636 94 599 97 q 628 31 636 54 q 551 16 593 28 q 476 -12 508 4 q 451 13 460 -6 q 443 69 443 32 q 444 106 443 93 q 396 38 428 65 q 249 -10 342 -10 q 116 29 163 -10 q 69 138 69 68 q 129 269 69 219 q 263 339 189 318 q 425 372 336 360 q 419 490 425 457 q 396 544 414 522 q 310 586 363 586 q 219 535 247 586 q 188 425 190 483 q 147 428 169 425 q 115 435 125 431 q 117 482 117 449 q 108 586 117 543 q 228 632 164 615 q 344 649 292 649 q 492 596 439 649 q 538 508 525 563 q 550 356 550 453 l 550 203 m 425 315 q 314 295 358 307 q 237 252 269 283 q 204 165 204 221 q 228 92 204 117 q 288 67 251 67 q 352 88 321 67 q 404 153 383 108 q 425 263 425 197 l 425 315 z "},"ặ":{"ha":692,"x_min":69,"x_max":636,"o":"m 550 203 q 556 138 550 160 q 581 107 563 117 q 636 94 599 97 q 628 31 636 54 q 551 16 593 28 q 476 -12 508 4 q 451 13 460 -6 q 443 69 443 32 q 444 106 443 93 q 396 38 428 65 q 249 -10 342 -10 q 116 29 163 -10 q 69 138 69 68 q 129 269 69 219 q 263 339 189 318 q 425 372 336 360 q 419 490 425 457 q 396 544 414 522 q 310 586 363 586 q 219 535 247 586 q 188 425 190 483 q 147 428 169 425 q 115 435 125 431 q 117 482 117 449 q 108 586 117 543 q 228 632 164 615 q 344 649 292 649 q 492 596 439 649 q 538 508 525 563 q 550 356 550 453 l 550 203 m 425 315 q 314 295 358 307 q 237 252 269 283 q 204 165 204 221 q 228 92 204 117 q 288 67 251 67 q 352 88 321 67 q 404 153 383 108 q 425 263 425 197 l 425 315 m 349 -292 q 290 -268 314 -292 q 267 -211 267 -244 q 291 -151 267 -175 q 349 -126 315 -126 q 409 -150 386 -126 q 432 -211 432 -174 q 408 -267 432 -243 q 349 -292 383 -292 m 563 968 q 501 794 563 856 q 329 732 440 732 q 160 792 219 732 q 100 961 100 851 q 156 976 126 976 q 217 864 167 906 q 343 822 267 822 q 466 864 419 822 q 517 976 513 906 q 563 968 550 976 z "},"ằ":{"ha":692,"x_min":69,"x_max":636,"o":"m 550 203 q 556 138 550 160 q 581 107 563 117 q 636 94 599 97 q 628 31 636 54 q 551 16 593 28 q 476 -12 508 4 q 451 13 460 -6 q 443 69 443 32 q 444 106 443 93 q 396 38 428 65 q 249 -10 342 -10 q 116 29 163 -10 q 69 138 69 68 q 129 269 69 219 q 263 339 189 318 q 425 372 336 360 q 419 490 425 457 q 396 544 414 522 q 310 586 363 586 q 219 535 247 586 q 188 425 190 483 q 147 428 169 425 q 115 435 125 431 q 117 482 117 449 q 108 586 117 543 q 228 632 164 615 q 344 649 292 649 q 492 596 439 649 q 538 508 525 563 q 550 356 550 453 l 550 203 m 425 315 q 314 295 358 307 q 237 252 269 283 q 204 165 204 221 q 228 92 204 117 q 288 67 251 67 q 352 88 321 67 q 404 153 383 108 q 425 263 425 197 l 425 315 z "},"ẳ":{"ha":692,"x_min":69,"x_max":636,"o":"m 550 203 q 556 138 550 160 q 581 107 563 117 q 636 94 599 97 q 628 31 636 54 q 551 16 593 28 q 476 -12 508 4 q 451 13 460 -6 q 443 69 443 32 q 444 106 443 93 q 396 38 428 65 q 249 -10 342 -10 q 116 29 163 -10 q 69 138 69 68 q 129 269 69 219 q 263 339 189 318 q 425 372 336 360 q 419 490 425 457 q 396 544 414 522 q 310 586 363 586 q 219 535 247 586 q 188 425 190 483 q 147 428 169 425 q 115 435 125 431 q 117 482 117 449 q 108 586 117 543 q 228 632 164 615 q 344 649 292 649 q 492 596 439 649 q 538 508 525 563 q 550 356 550 453 l 550 203 m 425 315 q 314 295 358 307 q 237 252 269 283 q 204 165 204 221 q 228 92 204 117 q 288 67 251 67 q 352 88 321 67 q 404 153 383 108 q 425 263 425 197 l 425 315 z "}}}
